<?xml version="1.0" encoding="UTF-8"?>
<svg width="170px" height="86px" viewBox="0 0 170 86" version="1.1" xmlns="http://www.w3.org/2000/svg" xmlns:xlink="http://www.w3.org/1999/xlink">
    <title>Group 32</title>
    <g id="Page-Carreras-y-Payments" stroke="none" stroke-width="1" fill="none" fill-rule="evenodd">
        <g id="Landing-Carreras" transform="translate(-1033.000000, -2217.000000)">
            <g id="Group-31" transform="translate(1033.000000, 2217.562814)">
                <g id="Group-13-Copy-4">
                    <rect id="Rectangle-Copy-7" x="0" y="0" width="170" height="85" rx="10"></rect>
                </g>
                <g id="Cencosud_logo" transform="translate(43.000000, 20.437186)" fill-rule="nonzero">
                    <g id="Group" transform="translate(42.500000, 22.500000) scale(-1, 1) rotate(-180.000000) translate(-42.500000, -22.500000) ">
                        <path d="M42.5664164,0 C33.0887892,0 24.9815885,6.0847035 21.8013387,14.5135376 L21.6684847,14.8214817 L22.0139051,14.8214817 L24.3919914,14.8214817 L24.5248454,14.8214817 L24.5912724,14.687593 C27.5635701,7.65084553 34.4961435,2.71794109 42.5664164,2.71794109 C46.7988977,2.71794109 50.7018714,4.08069784 53.8988612,6.38649212 C53.7855378,6.73995406 53.726151,7.09364994 53.726151,7.48437965 C53.726151,9.49559864 55.3319199,11.1529307 57.3264939,11.1529307 C57.704573,11.1529307 58.0690053,11.0475707 58.4158966,10.9387087 C59.2433495,12.1007253 59.9649826,13.3573886 60.528275,14.687593 L60.5947019,14.8214817 L60.7408413,14.8214817 L63.1454984,14.8214817 L63.4909188,14.8214817 L63.3580648,14.5135376 C62.6540662,12.6194004 61.675011,10.8106554 60.5017042,9.19815531 C60.7801321,8.67991855 61.0065493,8.11312495 61.0065493,7.48437965 C61.0065493,5.45995901 59.374014,3.81582862 57.3663501,3.81582862 C56.7238215,3.81582862 56.1490633,4.02958032 55.625963,4.32460577 C51.9619479,1.62940949 47.4501246,0 42.5664164,0 Z M82.5820362,13.2817614 L82.5820362,13.4825945 L82.5820362,17.2180899 L79.8585296,17.2180899 C79.1699166,17.2180899 78.5093283,17.3651592 77.8922906,17.6331449 C77.8835754,17.6364439 77.8611284,17.6298459 77.8524557,17.6331449 L77.8524557,17.6599226 C77.2548721,17.9169012 76.715791,18.3027505 76.2582079,18.7578102 L76.2183729,18.7578102 C75.7549145,19.215339 75.3728094,19.7585014 75.1023995,20.3778637 C74.843026,20.9939232 74.7171229,21.6808405 74.7171229,22.3995835 C74.7171229,23.1025348 74.8441356,23.7505147 75.1023995,24.3811366 C75.3763975,25.0064252 75.74699,25.5919392 76.2183729,26.0681345 C76.6904318,26.5415864 77.2287562,26.8917374 77.8524769,27.166022 L77.8923119,27.1927998 C78.5174823,27.454453 79.1602363,27.5810771 79.8585508,27.5810771 C80.5568654,27.5810771 81.2129898,27.4544205 81.8380752,27.1927998 L81.864646,27.1927998 L81.864646,27.166022 C82.4889152,26.8914961 83.0143877,26.5432655 83.4721792,26.0681345 C83.9443231,25.591171 84.3036368,25.0086968 84.5615819,24.3811366 C84.8362601,23.7493956 85,23.1039945 85,22.3995835 L85,13.4825945 L85,13.2817614 L84.7608628,13.2817614 L82.8211947,13.2817614 L82.5820575,13.2817614 L82.5820362,13.2817614 Z M5.12816377,17.2180899 C4.47227109,17.2180899 3.8247083,17.374169 3.18849561,17.6331449 C2.56115438,17.8795884 1.98926657,18.2525994 1.48796462,18.7578102 C0.985345049,19.2631966 0.616442909,19.8128036 0.371991154,20.4448081 C0.127912904,21.0729167 0,21.7270191 0,22.3995835 C0,23.0595499 0.12814702,23.7268534 0.371991154,24.3543588 C0.616446183,24.9852219 0.985500775,25.5617605 1.48796462,26.0681345 C1.98836384,26.571293 2.56288577,26.9321122 3.18849561,27.1927998 C3.82395475,27.4366533 4.47408173,27.5810771 5.12816377,27.5810771 C5.78328568,27.5810771 6.41900751,27.4372459 7.04126113,27.1927998 C7.68106296,26.9323646 8.26712971,26.5721272 8.76836292,26.0681345 L9.41934744,25.385302 L9.59205762,25.2112467 L9.45920364,25.0371913 L8.0908076,23.6715263 L7.91809743,23.497471 L7.75867265,23.6715263 L7.06783193,24.3543588 C6.8107988,24.6266024 6.52511342,24.8351569 6.19099564,24.970247 C5.85059907,25.1070928 5.49480888,25.17108 5.12816377,25.17108 C4.36465214,25.17108 3.73544402,24.9055618 3.18849561,24.3543588 C2.91765714,24.0814131 2.7130424,23.7688118 2.57736728,23.4305266 C2.44212337,23.0861948 2.37808631,22.7526067 2.37808631,22.3995835 C2.37808631,22.0465602 2.44228016,21.6713788 2.57736728,21.3284737 C2.71257854,20.991341 2.91926218,20.7039485 3.18849561,20.4448081 C3.46049707,20.170688 3.74335613,19.9912488 4.0786173,19.8556977 C4.4187286,19.7186321 4.77787097,19.6548646 5.12816377,19.6548646 C5.47845657,19.6548646 5.81116971,19.7186544 6.15113944,19.8556977 C6.48726852,19.991194 6.79563346,20.1704904 7.06783193,20.4448081 L7.75867265,21.1276406 L7.91809743,21.3016959 L8.0908076,21.1276406 L9.45920364,19.7619756 L9.59205762,19.5879203 L9.41934744,19.4540315 L8.76836292,18.7578102 C8.266228,18.2517652 7.68272906,17.8793031 7.04126113,17.6331449 C6.41824525,17.3735327 5.7850942,17.2180899 5.12816377,17.2180899 Z M15.3712059,17.2180899 C14.7147929,17.2180899 14.0427464,17.3728524 13.404967,17.6331449 C12.7773209,17.8797092 12.2320703,18.252841 11.7310068,18.7578102 C11.2298246,19.2629001 10.8596037,19.8124964 10.6150333,20.4448081 C10.3724785,21.0719073 10.2430421,21.7404071 10.2430421,22.3995835 C10.2430421,23.0598022 10.3731187,23.7129607 10.6150333,24.3543588 C10.8595407,24.9853539 11.2294292,25.5637909 11.7310068,26.0681345 C12.2179002,26.5588154 12.7813759,26.9324742 13.404967,27.1927998 C14.0304006,27.454091 14.6864522,27.5810771 15.3712059,27.5810771 C16.0559596,27.5810771 16.686411,27.454157 17.3108741,27.1927998 C17.9368336,26.9324412 18.4980641,26.5586951 18.9848343,26.0681345 L19.6623896,25.385302 L19.8350998,25.2112467 L19.6623896,25.0371913 L18.3072789,23.6715263 L18.1345688,23.497471 L18.0017148,23.6715263 L17.3108741,24.3543588 C16.8731217,24.7944937 16.3664174,25.0494868 15.7830533,25.1443023 C15.3352575,25.2093452 14.9328617,25.0766274 14.5209404,24.9300803 L19.6623896,19.7619756 L19.8350998,19.5879203 L19.6623896,19.4540315 L18.9848343,18.7578102 C18.4829378,18.2520069 17.9260696,17.8794239 17.2843033,17.6331449 C16.6598062,17.3722487 16.0276189,17.2180899 15.3712059,17.2180899 Z M25.5876773,17.2180899 C24.8881528,17.2180899 24.2344653,17.3560621 23.6081529,17.6331449 C22.9847744,17.8951936 22.4207588,18.2819876 21.9474781,18.7578102 C21.490664,19.2193334 21.1307411,19.7518947 20.8580754,20.3778637 C20.5974312,20.9942304 20.4860843,21.6810817 20.4860843,22.3995835 L20.4860843,27.3400774 L20.4860843,27.5810771 L20.6853653,27.5810771 L22.6516042,27.5810771 L22.8641706,27.5810771 L22.8641706,27.3400774 L22.8641706,22.3995835 C22.8641706,22.0148562 22.929315,21.6533156 23.0634516,21.3284737 C23.213412,20.9850969 23.4061009,20.6885957 23.6480091,20.4448081 C23.9047973,20.1849984 24.2020293,19.9915011 24.5248454,19.8556977 C24.8617389,19.7066708 25.208699,19.6548646 25.5876773,19.6548646 C25.9666555,19.6548646 26.341478,19.706846 26.6770799,19.8556977 C27.0138492,19.9914574 27.287074,20.1885978 27.5273454,20.4448081 L27.5539162,20.4715858 C27.807933,20.7135298 28.0024623,20.9893547 28.1384737,21.3284737 C28.2850642,21.6520756 28.3377547,22.0176548 28.3377547,22.3995835 L28.3377547,27.3400774 L28.3377547,27.5810771 L28.5768919,27.5810771 L30.51656,27.5810771 L30.7556972,27.5810771 L30.7556972,27.3400774 L30.7556972,22.3995835 C30.7556972,21.6794138 30.5931167,20.9949656 30.3172791,20.3778637 C30.0580701,19.7488549 29.7017115,19.2203758 29.2278764,18.7578102 C28.7547219,18.2821196 28.2172394,17.8952373 27.5937724,17.6331449 C26.9799611,17.3550085 26.3007635,17.2180899 25.5876773,17.2180899 Z M36.6145579,17.2180899 C35.9576275,17.2180899 35.3111026,17.374169 34.6748897,17.6331449 C34.0464151,17.8795884 33.474683,18.2524456 32.9743587,18.7578102 C32.4743767,19.2628346 32.0897225,19.8123645 31.8450999,20.4448081 C31.6023121,21.072511 31.4731087,21.7267667 31.4731087,22.3995835 C31.4731087,23.0598022 31.6025451,23.7272596 31.8450999,24.3543588 C32.0897268,24.9856611 32.4745323,25.5621337 32.9743587,26.0681345 C33.4737813,26.5714468 34.0481399,26.9321122 34.6748897,27.1927998 C35.3103488,27.4366533 35.959436,27.5810771 36.6145579,27.5810771 C37.2686399,27.5810771 37.8921162,27.4372459 38.5143699,27.1927998 C39.1541717,26.9323646 39.7136676,26.5721272 40.2149009,26.0681345 L40.254757,26.0681345 L40.8924562,25.385302 L41.0651663,25.2112467 L40.8924562,25.0371913 L39.5639163,23.6715263 L39.4044916,23.497471 L39.2317814,23.6715263 L38.5542261,24.3543588 C38.2959201,24.6268766 37.9992382,24.8351457 37.6641044,24.970247 C37.3262701,25.1068734 36.981203,25.17108 36.6145579,25.17108 C35.8510463,25.17108 35.2205672,24.9053094 34.6748897,24.3543588 C34.4024387,24.0818299 34.1984107,23.768757 34.0637614,23.4305266 C33.9276135,23.0864802 33.851195,22.7526067 33.851195,22.3995835 C33.851195,22.0465602 33.9277738,21.6710934 34.0637614,21.3284737 C34.1979512,20.9913958 34.3641929,20.7035535 34.6350335,20.4448081 L34.6748897,20.4448081 C34.9456181,20.1709515 35.2154545,19.9912488 35.551726,19.8556977 C35.8904174,19.7187422 36.2642651,19.6548646 36.6145579,19.6548646 C36.9648507,19.6548646 37.2841369,19.7185884 37.6242482,19.8556977 C37.9603773,19.991194 38.2807556,20.1702274 38.5542261,20.4448081 L39.2317814,21.1276406 L39.4044916,21.3016959 L39.5639163,21.1276406 L40.8924562,19.7619756 L41.0651663,19.5879203 L40.8924562,19.4540315 L40.254757,18.7578102 C39.7526221,18.2517652 39.1558378,17.8793031 38.5143699,17.6331449 C37.891354,17.3735327 37.2704506,17.2180899 36.6145579,17.2180899 Z M46.8177438,17.2180899 C46.1179796,17.2180899 45.4642317,17.3561936 44.8382195,17.6331449 C44.2134614,17.8941508 43.6897871,18.2805939 43.2174009,18.7578102 C42.7605362,19.2182361 42.3608991,19.7516865 42.088142,20.3778637 C41.8286771,20.9941426 41.7161509,21.6821353 41.7161509,22.3995835 C41.7161509,23.103336 41.829825,23.7503831 42.088142,24.3811366 C42.3606105,25.0055143 42.7620965,25.593267 43.2174009,26.0681345 C43.6888263,26.5432325 44.2150301,26.8908265 44.8382195,27.166022 L44.8382195,27.1927998 C45.4635175,27.4545083 46.1196716,27.5810771 46.8177438,27.5810771 C47.5304576,27.5810771 48.2110654,27.4554847 48.823839,27.1927998 L48.823839,27.166022 C49.4471176,26.8907828 49.9866451,26.543101 50.457943,26.0681345 C50.9315961,25.5919392 51.3282535,25.0083673 51.5872019,24.3811366 C51.8606302,23.7496479 51.9857638,23.1050481 51.9857638,22.3995835 C51.9857638,21.6804673 51.8618631,20.9948997 51.5872019,20.3778637 C51.3279942,19.7488549 50.9331734,19.2194761 50.457943,18.7578102 C49.9856843,18.2807259 49.4486821,17.8941838 48.823839,17.6331449 C48.2103342,17.3551512 47.5321114,17.2180899 46.8177438,17.2180899 Z M55.8651001,17.2180899 C55.4273877,17.2180899 55.0088062,17.3256691 54.6162727,17.4992562 C54.2405574,17.6580062 53.9028192,17.8567622 53.6198678,18.141922 C53.3369165,18.4270819 53.1135007,18.7823549 52.9423125,19.1728652 C52.7857914,19.5535646 52.7031753,19.9663172 52.7031753,20.4046415 C52.7031753,20.8429657 52.7871815,21.2548409 52.9423125,21.6498066 L52.9423125,21.6765843 C53.1132711,22.0502714 53.3408829,22.3698662 53.6198678,22.6673609 C53.9009358,22.9494368 54.2424279,23.1915865 54.6162727,23.3635823 C55.0075861,23.5213336 55.4301638,23.604582 55.8651001,23.604582 L59.8108634,23.604582 C60.0543837,23.604582 60.206611,23.6820793 60.3555648,23.8321928 C60.5061085,23.9847865 60.5947019,24.1530527 60.5947019,24.3811366 C60.5947019,24.6259888 60.5034982,24.7809981 60.3555648,24.9300803 C60.206645,25.081028 60.0543837,25.17108 59.8108634,25.17108 L53.8988612,25.17108 L53.659724,25.17108 L53.659724,25.385302 L53.659724,27.3400774 L53.659724,27.5810771 L53.8988612,27.5810771 L59.8108634,27.5810771 C60.2457998,27.5810771 60.6681946,27.4991894 61.0464055,27.3400774 C61.4327066,27.1675657 61.7467054,26.9410877 62.029525,26.6572449 C62.3259148,26.35738 62.5498152,26.0071438 62.7070803,25.6263017 C62.8793908,25.2305566 62.9860737,24.822259 62.9860737,24.3811366 C62.9860737,23.9400141 62.8807725,23.5316073 62.7070803,23.1493603 C62.5499045,22.7521778 62.3304212,22.4050037 62.029525,22.1184171 C61.7561944,21.8429585 61.4173083,21.6320652 61.0464055,21.4757513 C61.0315684,21.469496 61.0215352,21.4421698 61.0065706,21.4355846 L61.0065706,21.4757513 C60.6354084,21.3097143 60.2370123,21.1945849 59.8108847,21.1945849 L55.8651214,21.1945849 C55.6395077,21.1945849 55.4698372,21.1452042 55.3204201,20.9937519 C55.1653996,20.8258494 55.1211391,20.6314194 55.1211391,20.4046415 C55.1211391,20.1778635 55.1693491,20.0079401 55.3204201,19.8556977 C55.4698372,19.7042565 55.6395077,19.6548646 55.8651214,19.6548646 L61.7904091,19.6548646 L62.0295462,19.6548646 L62.0295462,19.4138649 L62.0295462,17.4590896 L62.0295462,17.2180899 L61.7904091,17.2180899 L55.8651214,17.2180899 L55.8651001,17.2180899 Z M63.730056,17.2180899 L63.730056,17.4590896 L63.730056,22.3995835 C63.730056,23.1035776 63.8437109,23.7514804 64.1020471,24.3811366 C64.3754117,25.0061176 64.7349635,25.5920707 65.1914498,26.0681345 C65.6627987,26.5420144 66.2430199,26.8918145 66.86541,27.166022 L66.86541,27.1927998 C67.4904954,27.4544205 68.1322886,27.5810771 68.8316489,27.5810771 C69.5435507,27.5810771 70.2242265,27.4553202 70.8377441,27.1927998 L70.8377441,27.166022 C71.4590841,26.8917815 72.0006267,26.5418829 72.4718481,26.0681345 C72.9438645,25.5912914 73.3032122,25.0100682 73.5612508,24.3811366 C73.8360055,23.7503613 73.9730981,23.1050481 73.9730981,22.3995835 L73.9730981,17.4590896 L73.9730981,17.2180899 L73.7738171,17.2180899 L71.7942928,17.2180899 L71.5950118,17.2180899 L71.5950118,17.4590896 L71.5950118,22.3995835 C71.5950118,22.7819182 71.5044415,23.1184048 71.3558746,23.4573044 C71.220827,23.7975535 71.0271875,24.0964913 70.7713171,24.3543588 C70.5295398,24.5990243 70.2627733,24.8191348 69.9210516,24.970247 C69.5829308,25.1065444 69.2122448,25.17108 68.8316489,25.17108 C68.4614178,25.17108 68.1098841,25.0982917 67.7821025,24.970247 C67.7718993,24.9658597 67.7523857,24.9746342 67.7422675,24.970247 C67.4240046,24.8205615 67.1454577,24.5967638 66.892002,24.3543588 C66.6565253,24.0995752 66.4682212,23.7938008 66.3207086,23.4573044 C66.1854654,23.1165501 66.1081423,22.7843107 66.1081423,22.3995835 L66.1081423,17.4590896 L66.1081423,17.2180899 L65.8690051,17.2180899 L63.9293369,17.2180899 L63.730056,17.2180899 Z M15.2383519,19.6414758 C15.5703606,19.6572168 15.8886252,19.7495075 16.1949006,19.8556977 C16.0235755,20.0249279 15.8546728,20.1676357 15.6103431,20.4046415 C15.2455545,20.7722712 14.8627259,21.1591771 14.4545134,21.5694734 L13.33854,22.7476941 C13.1156063,22.9730676 12.9723268,23.1035592 12.8204094,23.2564713 C12.7238329,22.9765899 12.6211284,22.7013691 12.6211284,22.3995835 C12.6211284,21.6312927 12.8583683,20.9946392 13.404967,20.4448081 C13.8415205,20.0048489 14.3269791,19.7369502 14.8929316,19.6548646 C15.0067757,19.6389565 15.1276822,19.6362273 15.2383519,19.6414758 Z M46.8177438,19.6548646 C47.1967199,19.6548646 47.5719633,19.7060123 47.9071465,19.8556977 C48.2435243,19.9902831 48.5171397,20.1885978 48.757412,20.4448081 L48.7972469,20.4448081 C49.0505878,20.6870593 49.2326466,20.9886851 49.3685191,21.3284737 C49.5140973,21.651044 49.5810854,22.0176548 49.5810854,22.3995835 C49.5810854,22.7815121 49.515462,23.1175158 49.3685191,23.4573044 C49.232247,23.7970818 49.0531896,24.1221829 48.7972469,24.3811366 C48.5553379,24.6249242 48.248847,24.8191348 47.9071252,24.970247 C47.5704329,25.1064343 47.199479,25.17108 46.8177226,25.17108 C46.4371267,25.17108 46.1048685,25.1063794 45.7681761,24.970247 C45.4255574,24.8187286 45.1369433,24.6009339 44.8780544,24.3543588 C44.6422248,24.0983242 44.4146512,23.793285 44.2669261,23.4573044 L44.2934969,23.4573044 C44.1582537,23.1165501 44.0942159,22.7843107 44.0942159,22.3995835 C44.0942159,22.0148562 44.1594865,21.6519985 44.2934969,21.3284737 L44.2669261,21.3284737 C44.4180565,20.983725 44.6361454,20.6885957 44.8780544,20.4448081 C45.1350939,20.1857666 45.4309523,19.9906233 45.7681761,19.8556977 C46.1033593,19.7060123 46.4399114,19.6548646 46.8177226,19.6548646 L46.8177438,19.6548646 Z M79.8585296,19.6548646 L82.5820362,19.6548646 L82.5820362,22.3995835 C82.5820362,22.7807332 82.5304336,23.1181306 82.3827553,23.4573044 C82.246479,23.7981024 82.0270127,24.0980058 81.7716269,24.3543588 C81.5298539,24.5990243 81.2630874,24.8191348 80.9213614,24.970247 C80.6011515,25.1059955 80.2395208,25.17108 79.8585296,25.17108 C79.4867935,25.17108 79.1362163,25.0989721 78.8089831,24.970247 C78.7988649,24.9658597 78.7789262,24.9746342 78.7691482,24.970247 C78.4375701,24.820298 78.1444198,24.5954798 77.8923119,24.3543588 C77.6572942,24.1009248 77.4553307,23.7939435 77.3077543,23.4573044 C77.1725111,23.1165501 77.1084734,22.7831474 77.1084734,22.3995835 C77.1084734,22.0148562 77.1738078,21.6518451 77.3077543,21.3284737 C77.4588083,20.982869 77.650186,20.6888155 77.8923119,20.4448081 C78.1496787,20.1864577 78.4318776,19.991655 78.7691482,19.8556977 L78.8089831,19.8556977 C79.1445871,19.7068901 79.4783886,19.6548646 79.8585296,19.6548646 Z M21.4957746,30.2454627 L21.6419139,30.526629 C24.8155673,38.984303 32.891991,45 42.3937062,45 C51.8754036,45 60.036086,38.9556606 63.2252108,30.526629 L63.3182086,30.2454627 L63.0126444,30.2454627 L60.5681311,30.2454627 L60.395421,30.2454627 L60.355586,30.3927403 C57.3572438,37.3876219 50.4349731,42.3222255 42.3937062,42.3222255 C34.3321622,42.3222255 27.4182317,37.4123461 24.4318476,30.3927403 L24.3919914,30.2454627 L24.2192812,30.2454627 L21.8411949,30.2454627 L21.4957746,30.2454627 Z" id="Shape" fill="#007CC1" transform="translate(42.500000, 22.500000) scale(-1, 1) rotate(-180.000000) translate(-42.500000, -22.500000) "></path>
                        <path d="M57.3663501,35.6277893 C56.3057077,35.6277893 55.426682,36.4745933 55.426682,37.5423981 C55.426682,38.6102029 56.3057417,39.4703957 57.3663501,39.4703957 C58.4280129,39.4703957 59.2661621,38.6102029 59.2661621,37.5423981 C59.2661621,36.4745933 58.4280512,35.6277893 57.3663501,35.6277893 Z" id="Path" fill="#F9A41E" transform="translate(57.346422, 37.549093) scale(-1, 1) rotate(-180.000000) translate(-57.346422, -37.549093) "></path>
                    </g>
                </g>
            </g>
        </g>
    </g>
</svg>