<?xml version="1.0" encoding="UTF-8"?>
<svg width="170px" height="86px" viewBox="0 0 170 86" version="1.1" xmlns="http://www.w3.org/2000/svg" xmlns:xlink="http://www.w3.org/1999/xlink">
    <title>Group 28</title>
    <g id="Page-Carreras-y-Payments" stroke="none" stroke-width="1" fill="none" fill-rule="evenodd">
        <g id="Landing-Carreras" transform="translate(-673.000000, -2217.000000)">
            <g id="Group-28" transform="translate(673.000000, 2217.562814)">
                <g id="Group-13-Copy-2">
                    <rect id="Rectangle-Copy-7" x="0" y="0" width="170" height="85" rx="10"></rect>
                </g>
                <g id="Group" transform="translate(24.000000, 33.437186)" fill="#E3663B">
                    <path d="M21.2596167,15.8367222 L24.1790661,15.8367222 L24.1790661,0.0319523009 C23.4043719,0.0319523009 22.662674,0.342761046 22.1146496,0.897569179 C21.5680598,1.45237731 21.2596167,2.20325638 21.2596167,2.98754013 L21.2596167,15.8367222" id="Fill-1"></path>
                    <path d="M65.0872226,15.8367222 L68.0081065,15.8367222 L68.0081065,0.0319523009 C67.2334124,0.0319523009 66.4902798,0.342761046 65.94369,0.897569179 C65.3956656,1.45237731 65.0872226,2.20325638 65.0872226,2.98754013 L65.0872226,15.8367222" id="Fill-2"></path>
                    <path d="M69.993619,15.8367222 L72.9130684,15.8367222 L72.9130684,0.0319523009 C72.1398088,0.0319523009 71.3966763,0.342761046 70.8486519,0.897569179 C70.3020621,1.45237731 69.993619,2.20325638 69.993619,2.98754013 L69.993619,15.8367222" id="Fill-3"></path>
                    <path d="M4.68689978,2.83794527 L7.52170663,2.83794527 L7.52170663,0.0261427916 L4.66968435,0.0261427916 C3.43304291,0.0261427916 2.24661312,0.52430821 1.37293024,1.40880599 C0.497812741,2.29475615 0.00717309425,3.49441981 0.00717309425,4.74782143 L0.00717309425,19 L0,19 C0.77325956,19 1.5149575,18.6891913 2.06298191,18.1358355 C2.61100631,17.5839321 2.91801474,16.833053 2.92088398,16.0502217 L2.92088398,9.17176273 L6.21476885,9.17176273 L6.21476885,6.35124599 L2.92088398,6.35124599 L2.92088398,4.62582174 C2.92088398,4.15234674 3.10738443,3.69775264 3.43734676,3.36225348 C3.76874372,3.02675432 4.21777942,2.83794527 4.68689978,2.83794527" id="Fill-4"></path>
                    <path d="M58.0532864,16.1228405 C53.6576142,16.1228405 51.8342136,13.0292769 52.0164102,9.86890384 C52.1598721,7.41438618 54.0248766,4.62001223 57.8796975,4.62001223 C62.2380695,4.62001223 63.9868699,8.61840697 63.3527684,11.5798043 L55.1582255,11.5798043 C55.3217721,12.6923253 56.3876939,13.4562758 57.8237473,13.5550375 C59.5438553,13.6712276 60.6513811,12.3640881 60.6513811,12.3640881 L62.8707364,13.5492279 C61.7904685,15.3763186 60.0689258,16.1228405 58.0532864,16.1228405 Z M57.8710898,7.19072007 C55.8066732,7.1761963 55.1740063,8.95245375 55.1854833,9.45788106 L60.4648806,9.45788106 C60.5122231,9.0134536 60.0890105,7.20379147 57.8710898,7.19072007 L57.8710898,7.19072007 Z" id="Fill-5"></path>
                    <path d="M50.4856719,8.96988228 C50.0151169,6.97431585 48.8186448,5.56550986 46.8804748,4.92210671 C45.121632,4.31937013 43.2365429,4.67229781 42.1691865,5.69477144 L42.1691865,0 C41.7847086,0 41.4059692,0.0755236202 41.0516184,0.223666106 C40.6972675,0.373260969 40.3744783,0.591117566 40.1033353,0.865616878 C39.833627,1.14011619 39.6184341,1.46544871 39.4706684,1.8241859 C39.3243373,2.18437548 39.2497371,2.56780309 39.2497371,2.95558783 L39.2497371,15.8120318 L41.7344969,15.8120318 L41.8177048,15.0495337 C44.1159642,16.9172909 47.824454,16.0691026 49.3092845,14.1519645 C50.4340256,12.7010396 50.933273,10.8754013 50.4856719,8.96988228 Z M47.553311,11.3372573 C47.203264,12.4962544 46.3955736,13.2093717 45.1976668,13.3487999 C44.0600141,13.483871 43.0027,13.11061 42.2366135,12.1622076 L42.2366135,8.61985935 C42.4733257,8.29307445 42.7717264,8.01567039 43.1146003,7.80507568 C43.4589088,7.59593334 43.8390828,7.45650512 44.2350376,7.39550527 C46.992375,7.10793457 48.0439506,9.44045253 47.553311,11.3372573 L47.553311,11.3372573 Z" id="Fill-6"></path>
                    <path d="M19.2999274,5.19370127 C18.6715643,5.19224889 18.0604167,5.40865311 17.5683424,5.80660449 C16.132289,4.75508332 14.0305723,4.20898945 11.7064898,5.00489222 C9.78696979,5.65120012 8.59767076,7.05274423 8.12711578,9.03669164 C7.68238394,10.9247821 8.17876206,12.7460633 9.29776476,14.188274 C10.7625106,16.0850787 14.4293964,16.9318147 16.7176135,15.1032717 L16.9471525,15.8367222 L19.2999274,15.8367222 L19.2999274,5.19370127 Z M16.4149089,12.2740407 C15.5885684,13.2398716 14.5226466,13.4577282 13.3892977,13.3284666 C12.1899564,13.1933955 11.3908737,12.5427305 11.0436959,11.3895429 C10.5559255,9.5 11.600328,7.12536309 14.3418846,7.41002905 C15.8467998,7.64676655 16.4149089,8.75928757 16.4149089,8.75928757 L16.4149089,12.2740407 L16.4149089,12.2740407 Z" id="Fill-7"></path>
                    <path d="M86.1804235,5.19660602 C85.5520605,5.19515365 84.9409128,5.41155787 84.4488386,5.80950925 C83.0127851,4.75798808 80.9110685,4.21189421 78.5869859,5.00779697 C76.6674659,5.65410488 75.4781669,7.05419661 75.0104812,9.03669164 C74.5628801,10.9334964 75.0592582,12.748968 76.1768263,14.1897263 C77.6430067,16.0879835 81.3098925,16.9332671 83.5981096,15.1061764 L83.8276486,15.839627 L86.1804235,15.839627 L86.1804235,5.19660602 Z M83.295405,12.2813026 C82.4733684,13.241324 81.3974043,13.4606329 80.2697939,13.3313713 C79.0704525,13.1963003 78.2713698,12.5441828 77.924192,11.3909953 C77.4364216,9.51016664 78.4808241,7.12826785 81.2223808,7.4129338 C82.7272959,7.6496713 83.295405,8.76219233 83.295405,8.76219233 L83.295405,12.2813026 L83.295405,12.2813026 Z" id="Fill-8"></path>
                    <path d="M35.5570282,5.80660449 C34.1195401,4.75508332 32.0192581,4.20898945 29.6937409,5.00489222 C27.7727863,5.65120012 26.5849219,7.05274423 26.1143669,9.03669164 C25.6667658,10.9334964 26.163144,12.748968 27.280712,14.1911787 C28.7468925,16.0879835 32.4137783,16.9332671 34.7005607,15.1061764 L34.9315344,15.839627 L37.2843093,15.839627 L37.2843093,5.19370127 C36.6559462,5.19224889 36.0462332,5.40865311 35.5570282,5.80660449 Z M34.4007254,12.2740407 C33.5743849,13.2398716 32.5084631,13.4577282 31.3751142,13.3284666 C30.1757729,13.1933955 29.3766902,12.5427305 29.030947,11.3895429 C28.5431766,9.5 29.5875791,7.12536309 32.3277011,7.41002905 C33.8340509,7.64676655 34.4007254,8.75928757 34.4007254,8.75928757 L34.4007254,12.2740407 L34.4007254,12.2740407 Z" id="Fill-9"></path>
                    <path d="M103.273907,6.72595933 C100.68442,6.72595933 98.7319038,8.6808592 98.7319038,11.2733527 C98.7319038,13.8658462 100.68442,15.8367222 103.273907,15.8367222 C105.864829,15.8367222 107.83456,13.8760128 107.83456,11.2733527 C107.83456,8.66924018 105.873436,6.72595933 103.273907,6.72595933 Z M103.273907,13.637823 C101.998531,13.637823 101.073202,12.6429445 101.073202,11.2719003 C101.073202,9.93280844 102.02005,8.92485858 103.273907,8.92485858 C104.529199,8.92485858 105.494697,9.93280844 105.494697,11.2719003 C105.494697,12.6095398 104.539241,13.637823 103.272472,13.637823 L103.273907,13.637823 L103.273907,13.637823 Z" id="Fill-10"></path>
                    <path d="M118.598506,6.72595933 C117.257137,6.61993579 116.112311,7.32579116 115.471037,7.7266473 C114.736512,7.12681547 113.920214,6.72595933 112.872942,6.72595933 C110.924729,6.72595933 108.937782,7.90819447 108.937782,7.90819447 L108.937782,15.6290323 L111.210219,15.6290323 L111.210219,9.22985782 C111.577481,8.95971564 112.237406,8.92485858 112.608972,8.92485858 C113.386535,8.92485858 114.29178,9.54066656 114.29178,10.5834735 L114.29178,15.6290323 L116.557043,15.6290323 L116.557043,10.0025226 C116.567085,9.76723743 116.525481,9.53485706 116.4351,9.31845284 C117.951493,8.46155022 119.726116,9.11512001 119.726116,10.5834735 L119.726116,15.6290323 L122,15.6290323 L122,10.547164 C122.005725,8.07812261 120.119202,6.8436019 118.598506,6.72595933" id="Fill-11"></path>
                    <path d="M92.6304699,10.9044489 C92.8083626,9.84857055 93.7193456,8.92485858 94.7996136,8.92485858 C95.5728731,8.93357285 96.3246134,9.18773888 96.9486726,9.64959486 L98.1107139,7.8036233 C97.1796462,7.1122917 96.0577743,6.7346736 94.9014715,6.72450696 C92.7624548,6.72450696 91.0480853,8.00114661 90.4699339,9.86018957 C91.2833628,9.95604648 92.0437107,10.3234979 92.6304699,10.9044489" id="Fill-12"></path>
                    <path d="M97.0089266,12.8608011 C96.3791289,13.3633237 95.6015655,13.6363706 94.7996136,13.637823 C94.4280473,13.6349182 94.0650887,13.5288947 93.7509072,13.329919 C93.7580803,13.4228711 93.7609495,13.5172756 93.7609495,13.6131325 C93.7609495,14.2972023 93.5773183,14.9682006 93.2287059,15.5535086 C93.7652534,15.7437701 94.3304932,15.839627 94.8986023,15.8367222 C97.0304459,15.8367222 98.2197449,14.5891301 98.2197449,14.5891301 L97.0089266,12.8608011" id="Fill-13"></path>
                    <path d="M90.0280713,15.7306987 C91.1829394,15.7306987 92.1197455,14.7837487 92.1197455,13.6145849 C92.1197455,12.4454212 91.1829394,11.4984712 90.0280713,11.4984712 C88.8746377,11.4984712 87.9378316,12.4454212 87.9378316,13.6145849 C87.9378316,14.7837487 88.8746377,15.7306987 90.0280713,15.7306987" id="Fill-14"></path>
                </g>
            </g>
        </g>
    </g>
</svg>