<?xml version="1.0" encoding="UTF-8"?>
<svg width="147px" height="86px" viewBox="0 0 147 86" version="1.1" xmlns="http://www.w3.org/2000/svg" xmlns:xlink="http://www.w3.org/1999/xlink">
    <title>Group 19</title>
    <g id="Page-Carreras-y-Payments" stroke="none" stroke-width="1" fill="none" fill-rule="evenodd">
        <g id="Landing-Carreras" transform="translate(-96.000000, -2217.000000)">
            <g id="Group-19" transform="translate(96.000000, 2217.562814)">
                <rect id="Rectangle" x="0" y="0" width="147" height="85" rx="10"></rect>
                <g id="logo-IBM-Copy-5" transform="translate(42.000000, 32.437186)" fill="#4B82C3" fill-rule="nonzero">
                    <polygon id="Path" points="62.3225806 2.73684211 52.1612903 2.73684211 52.7877426 0 62.3225806 0"></polygon>
                    <path d="M35.2266665,0.00101448264 L44.1260494,0 L44.7096774,2.73605968 C44.7139764,2.73200175 35.2297383,2.73910313 35.2297383,2.73605968 C35.2297383,2.73200175 35.2235948,0.00101448264 35.2266665,0.00101448264 Z" id="Path"></path>
                    <path d="M26.9814117,0.00101464735 C28.5830725,0.234383537 29.9754711,1.09784843 31.1612903,2.73548924 C31.1612903,2.73548924 13.5483871,2.73853318 13.5483871,2.73548924 L13.5483871,0 L26.9814117,0.00101464735 Z" id="Path"></path>
                    <rect id="Rectangle" x="0" y="0" width="12.1935484" height="2.73684211"></rect>
                    <path d="M63,6.15789474 L51.483871,6.15789474 C51.483871,6.15789474 52.1115901,3.42207499 52.1089414,3.42105263 L63,3.42105263 L63,6.15789474 Z" id="Path"></path>
                    <polygon id="Path" points="46.7419355 6.15789474 35.2258065 6.15789474 35.2258065 3.42105263 46.1109513 3.42105263"></polygon>
                    <path d="M32.6830649,3.42105263 C32.9170083,4.32549821 33.1935484,5.09708738 33.1935484,6.15789474 L13.5483871,6.15789474 L13.5483871,3.42105263 L32.6830649,3.42105263 Z" id="Path"></path>
                    <rect id="Rectangle" x="0" y="3.42105263" width="12.1935484" height="2.73684211"></rect>
                    <polygon id="Path" points="50.1290323 9.57894737 50.7753676 6.84210526 59.6129032 6.84617492 59.6129032 9.57284289"></polygon>
                    <polygon id="Path" points="47.4470255 6.84210526 48.0967742 9.57894737 38.6129032 9.57894737 38.6129032 6.84210526"></polygon>
                    <path d="M33.8709677,6.84210526 C33.8709677,7.77981185 33.7962315,8.75718281 33.6214136,9.57894737 L28.4516129,9.57894737 L28.4516129,6.84210526 L33.8709677,6.84210526 Z" id="Path"></path>
                    <rect id="Rectangle" x="4.06451613" y="6.84210526" width="4.74193548" height="2.73684211"></rect>
                    <rect id="Rectangle" x="16.9354839" y="6.84210526" width="4.74193548" height="2.73684211"></rect>
                    <path d="M43.7862425,10.2299522 C43.7862425,10.2299522 43.7882555,12.3106796 43.7869135,12.3157895 L38.6129032,12.3157895 L38.6129032,9.57894737 L48.4724425,9.57894737 L49.0843861,12.1297912 C49.0870701,12.1318352 49.674858,9.57282656 49.6762,9.57894737 L59.6129032,9.57894737 L59.6129032,12.3157895 L54.4643906,12.3157895 C54.4643906,12.3106796 54.4610356,10.2309741 54.4610356,10.2309741 L53.9853031,12.3157895 L44.261975,12.3106796 L43.7862425,10.2299522 Z" id="Path"></path>
                    <path d="M16.9361773,9.58098877 L32.516129,9.58098877 L32.516129,9.57894737 C32.1756708,10.494517 31.5571601,11.6081028 30.9705457,12.3144285 C30.9705457,12.3144285 16.9354839,12.3174906 16.9354839,12.3144285 C16.9354839,12.309325 16.9361773,9.58507158 16.9361773,9.58098877 Z" id="Path"></path>
                    <rect id="Rectangle" x="4.06451613" y="9.57894737" width="4.74193548" height="2.73684211"></rect>
                    <rect id="Rectangle" x="54.1935484" y="13.6842105" width="4.74193548" height="2.73684211"></rect>
                    <path d="M43.3512684,13.6842105 L38.6129032,13.6842105 L38.6129032,16.4203329 C38.6104459,16.4193108 43.3531122,16.422377 43.3531122,16.4203329 C43.3531122,16.4193108 43.3580288,13.6842105 43.3512684,13.6842105 Z" id="Path"></path>
                    <path d="M52.8387097,13.6842105 C52.8146783,13.6791154 52.2221345,16.41493 52.1974165,16.4159504 L44.6927763,16.4210526 C44.6865968,16.4169708 44.0329447,13.6791154 44.0322581,13.6842105 L52.8387097,13.6842105 Z" id="Path"></path>
                    <path d="M16.9354839,13.6842105 L30.856196,13.6842105 C31.4921817,14.4709224 32.0668426,15.4384758 32.516129,16.4203331 C32.5415924,16.4193114 16.9361729,16.4223766 16.9361729,16.4203331 C16.9361729,16.4193114 16.9354839,13.6862539 16.9354839,13.6842105 Z" id="Path"></path>
                    <path d="M8.80645161,16.4210526 L8.80645161,13.6842105 L4.06451613,13.6842105 C4.06451613,13.6842105 4.06572782,16.4200307 4.06451613,16.4200307 C4.06391029,16.4200307 8.80402824,16.4210526 8.80645161,16.4210526 Z" id="Path"></path>
                    <rect id="Rectangle" x="54.1935484" y="17.1052632" width="4.74193548" height="2.73684211"></rect>
                    <rect id="Rectangle" x="38.6129032" y="17.1052632" width="4.74193548" height="2.73684211"></rect>
                    <path d="M51.4606289,19.8390774 C51.4620871,19.8268819 52.1503539,17.1022169 52.1612903,17.1052632 L45.387258,17.1052632 C45.3748633,17.1032331 46.0813575,19.8268819 46.0813575,19.8268819 C46.0813575,19.8268819 51.4591707,19.8502565 51.4606289,19.8390774 Z" id="Path"></path>
                    <path d="M17.6131684,19.8410837 C17.6131684,19.8512996 17.6125717,17.1062847 17.6131684,17.1052632 L22.3532475,17.1052632 C22.3532475,17.1052632 22.3568277,19.8421053 22.3532475,19.8421053 C22.3484741,19.8421053 17.6131684,19.8380189 17.6131684,19.8410837 Z" id="Path"></path>
                    <path d="M33.5496443,17.1052632 C33.7969152,17.9263158 33.8220287,18.9040501 33.8709677,19.8421053 L28.4516129,19.8421053 L28.4516129,17.1052632 L33.5496443,17.1052632 Z" id="Path"></path>
                    <rect id="Rectangle" x="4.06451613" y="17.1052632" width="4.74193548" height="2.73684211"></rect>
                    <rect id="Rectangle" x="54.1935484" y="19.8421053" width="8.80645161" height="2.73684211"></rect>
                    <rect id="Rectangle" x="34.5483871" y="19.8421053" width="8.80645161" height="2.73684211"></rect>
                    <polygon id="Path" points="50.2741516 22.5789474 47.9716308 22.5789474 47.4193548 19.8421053 50.8064516 19.8421053"></polygon>
                    <path d="M0,19.8421053 L0,22.5789474 L12.1923256,22.5789474 C12.1970072,22.5830307 12.1863063,19.8441492 12.1923256,19.8441492 C12.1970072,19.8441492 -0.0133651176,19.8421053 0,19.8421053 Z" id="Path"></path>
                    <path d="M33.8709677,19.8421053 C33.7416657,20.7451916 33.6231388,21.8444235 33.1887646,22.5789474 L33.0264635,22.5779258 L14.2258065,22.5779258 L14.2258065,19.8421053 L33.8709677,19.8421053 Z" id="Path"></path>
                    <polygon id="Path" points="48.1997468 26 47.9791348 26 47.4193548 23.2631579 48.7741935 23.2631579"></polygon>
                    <rect id="Rectangle" x="54.1935484" y="23.2631579" width="8.80645161" height="2.73684211"></rect>
                    <path d="M13.5483871,25.9949035 L13.5483871,23.2631579 C13.5483871,23.2631579 31.1106134,23.2662158 31.1612903,23.2662158 C29.9817179,24.9898657 28.3640567,25.9622856 26.6217035,26 L13.5510543,25.9949035" id="Path"></path>
                    <rect id="Rectangle" x="34.5483871" y="23.2631579" width="8.80645161" height="2.73684211"></rect>
                    <path d="M12.1935484,23.2713092 C12.1935484,23.2713092 12.1875275,25.9938612 12.1935484,25.9938612 C12.1982289,25.9938612 0.00405139912,26.0030315 0.000707230216,25.9989558 C-0.0019681049,25.9938612 0.00405139912,23.2631579 0.000707230216,23.2631579 C-0.0019681049,23.2631579 12.1875275,23.2794606 12.1935484,23.2713092 Z" id="Path"></path>
                </g>
            </g>
        </g>
    </g>
</svg>