<?xml version="1.0" encoding="UTF-8"?>
<svg width="170px" height="85px" viewBox="0 0 170 85" version="1.1" xmlns="http://www.w3.org/2000/svg" xmlns:xlink="http://www.w3.org/1999/xlink">
    <title>Group 71</title>
    <g id="Page-Carreras-y-Payments" stroke="none" stroke-width="1" fill="none" fill-rule="evenodd">
        <g id="Group-70">
            <g id="Group-13-Copy-4">
                <rect id="Rectangle-Copy-7" x="0" y="0" width="170" height="85" rx="10"></rect>
            </g>
            <g id="la-escala" transform="translate(29.000000, 27.000000)" fill-rule="nonzero">
                <g id="XMLID_4074_" transform="translate(36.470000, 5.871078)" fill="#161616">
                    <path d="M0.07,0 L0.84,0 L0.84,17.6839703 C0.84,18.1791215 1.05,18.462065 1.33,18.462065 C1.4,18.462065 1.54,18.462065 1.82,18.3913292 L1.96,19.098688 C1.75,19.1694238 1.61,19.1694238 1.26,19.1694238 C0.49,19.1694238 0,18.6742727 0,17.4717627 L0,0 L0.07,0 Z" id="XMLID_4093_"></path>
                    <path d="M12.11,11.1055334 C12.18,9.05419281 11.62,6.79064461 9.03,6.79064461 C7.28,6.79064461 5.74,7.71021107 4.97,8.27609812 L4.55,7.63947519 C5.32,7.07358813 7,6.01254991 9.03,6.01254991 C11.9,6.01254991 12.81,8.20536224 12.81,10.751854 L12.81,18.8864803 L12.11,18.8864803 L12.04,17.1888192 L11.97,17.1888192 C10.71,18.2498574 9.1,19.1694238 7.49,19.1694238 C5.6,19.1694238 3.92,18.1791215 3.92,15.7741015 C3.99,13.0154022 6.51,11.7421563 12.11,11.1055334 Z M7.63,18.462065 C9.1,18.462065 10.5,17.7547062 12.11,16.3399886 L12.11,11.8128922 C6.65,12.4495151 4.83,13.722761 4.83,15.8448374 C4.83,17.7547062 6.09,18.462065 7.63,18.462065 L7.63,18.462065 Z" id="XMLID_4090_"></path>
                    <path d="M20.65,5.72960639 C24.08,5.72960639 25.9,8.20536224 25.9,11.8128922 C25.9,12.3787792 25.83,12.9446663 25.76,13.2276098 L17.71,13.2276098 C17.99,15.5618939 19.39,16.8351398 21.49,16.8351398 C22.61,16.8351398 23.52,16.4814604 24.43,15.9155733 L25.41,17.8254421 C24.22,18.6035368 22.68,19.2401597 21.07,19.2401597 C17.57,19.2401597 14.84,16.7644039 14.84,12.520251 C14.77,8.346834 17.64,5.72960639 20.65,5.72960639 L20.65,5.72960639 Z M23.31,11.317741 C23.31,9.26640046 22.47,8.06389047 20.72,8.06389047 C19.25,8.06389047 17.92,9.19566458 17.64,11.317741 L23.31,11.317741 L23.31,11.317741 Z" id="XMLID_4087_"></path>
                    <path d="M27.58,15.491158 C28.7,16.4107245 29.82,16.9058756 31.08,16.9058756 C32.48,16.9058756 33.11,16.2692527 33.11,15.3496863 C33.11,14.288648 31.71,13.7934969 30.38,13.2983457 C28.7,12.6617228 26.81,11.6714204 26.81,9.54934398 C26.81,7.28579578 28.56,5.72960639 31.43,5.72960639 C33.18,5.72960639 34.58,6.4369652 35.63,7.28579578 L34.23,9.12492869 C33.32,8.48830576 32.41,7.99315459 31.43,7.99315459 C30.17,7.99315459 29.54,8.62977752 29.54,9.40787222 C29.54,10.3981746 30.8,10.8225898 32.2,11.317741 C33.95,11.9543639 35.84,12.8031945 35.84,15.2082145 C35.84,17.4010268 34.09,19.1694238 30.87,19.1694238 C29.12,19.1694238 27.3,18.3913292 26.04,17.4010268 L27.58,15.491158 Z" id="XMLID_4085_"></path>
                    <path d="M42.84,5.72960639 C44.45,5.72960639 45.71,6.36622932 46.55,7.2150599 L45.15,9.12492869 C44.45,8.48830576 43.82,8.20536224 42.98,8.20536224 C40.95,8.20536224 39.48,9.90302339 39.48,12.520251 C39.48,15.0667427 40.88,16.7644039 42.84,16.7644039 C43.89,16.7644039 44.73,16.2692527 45.43,15.6326298 L46.69,17.5424986 C45.5,18.6035368 43.96,19.1694238 42.49,19.1694238 C38.99,19.1694238 36.33,16.693668 36.33,12.4495151 C36.47,8.20536224 39.41,5.72960639 42.84,5.72960639 Z" id="XMLID_4083_"></path>
                    <path d="M54.6,10.6811181 C54.6,9.33713634 53.97,8.20536224 52.29,8.20536224 C51.03,8.20536224 49.84,8.77124929 48.72,9.4786081 L47.6,7.49800342 C49,6.57843697 50.75,5.80034227 52.78,5.80034227 C55.93,5.80034227 57.54,7.78094695 57.54,11.317741 L57.54,18.9572162 L55.09,18.9572162 L54.88,17.5424986 L54.81,17.5424986 C53.69,18.5328009 52.36,19.2401597 50.89,19.2401597 C48.65,19.2401597 47.11,17.7547062 47.11,15.491158 C47.11,12.7324586 49.42,11.2470051 54.6,10.6811181 Z M51.87,16.8351398 C52.92,16.8351398 53.69,16.3399886 54.67,15.4204221 L54.67,12.520251 C51.24,12.9446663 50.12,13.8642327 50.12,15.1374786 C50.05,16.3399886 50.82,16.8351398 51.87,16.8351398 Z" id="XMLID_4080_"></path>
                    <path d="M59.92,0.424415288 L62.93,0.424415288 L62.93,15.7741015 C62.93,16.4814604 63.28,16.7644039 63.56,16.7644039 C63.7,16.7644039 63.77,16.7644039 64.05,16.693668 L64.47,18.9572162 C64.12,19.098688 63.56,19.2401597 62.86,19.2401597 C60.76,19.2401597 59.99,17.8254421 59.99,15.6326298 L59.99,0.424415288 L59.92,0.424415288 Z" id="XMLID_4078_"></path>
                    <path d="M72.59,10.6811181 C72.59,9.33713634 72.03,8.20536224 70.28,8.20536224 C69.02,8.20536224 67.83,8.77124929 66.71,9.4786081 L65.59,7.49800342 C66.99,6.57843697 68.74,5.80034227 70.77,5.80034227 C73.92,5.80034227 75.53,7.78094695 75.53,11.317741 L75.53,18.9572162 L73.08,18.9572162 L72.87,17.5424986 L72.8,17.5424986 C71.68,18.5328009 70.35,19.2401597 68.88,19.2401597 C66.64,19.2401597 65.1,17.7547062 65.1,15.491158 C65.1,12.7324586 67.41,11.2470051 72.59,10.6811181 Z M69.79,16.8351398 C70.84,16.8351398 71.61,16.3399886 72.59,15.4204221 L72.59,12.520251 C69.16,12.9446663 68.04,13.8642327 68.04,15.1374786 C67.97,16.3399886 68.74,16.8351398 69.79,16.8351398 Z" id="XMLID_4075_"></path>
                </g>
                <g id="XMLID_4069_" fill="#FF3060">
                    <path d="M23.17,5.02224758 C20.65,1.83913292 16.94,0 12.95,0 C5.81,0 0,5.87107815 0,13.086138 C0,16.7644039 1.54,20.3011979 4.2,22.7769538 C4.27,22.7769538 4.27,22.8476897 4.34,22.8476897 L4.41,22.8476897 C4.48,22.8476897 4.55,22.7769538 4.55,22.635482 L4.55,20.3719338 C4.55,20.3011979 4.55,20.3011979 4.48,20.2304621 C2.8,18.2498574 1.89,15.7033657 1.89,13.086138 C1.89,6.93211637 6.86,1.9098688 12.95,1.9098688 C15.96,1.9098688 18.76,3.11237878 20.93,5.3051911 C21,5.37592698 21,5.37592698 21.07,5.37592698 L23.03,5.37592698 C23.1,5.37592698 23.17,5.3051911 23.24,5.23445522 C23.24,5.16371934 23.17,5.09298346 23.17,5.02224758 Z" id="XMLID_4072_"></path>
                    <path d="M24.43,7.2150599 L20.44,7.2150599 C19.6,7.2150599 18.97,7.85168283 18.97,8.70051341 L18.97,12.8739304 C18.97,13.2983457 18.62,13.6520251 18.2,13.6520251 L14.14,13.6520251 C13.3,13.6520251 12.67,14.288648 12.67,15.1374786 L12.67,19.3108956 C12.67,19.7353109 12.32,20.0889903 11.9,20.0889903 L7.77,20.0889903 C6.93,20.0889903 6.3,20.7256132 6.3,21.5744438 L6.3,24.8990302 C9.59,28.3650884 10.15,29.0017114 11.27,30.2042213 C12.32,31.2652596 14.07,31.2652596 15.05,30.2042213 L22.05,22.635482 C24.43,20.3011979 25.9,17.0473474 25.9,13.3690816 C25.97,11.1762693 25.41,9.05419281 24.43,7.2150599 L24.43,7.2150599 Z" id="XMLID_4070_"></path>
                </g>
            </g>
        </g>
    </g>
</svg>