<?xml version="1.0" encoding="UTF-8"?>
<svg width="170px" height="86px" viewBox="0 0 170 86" version="1.1" xmlns="http://www.w3.org/2000/svg" xmlns:xlink="http://www.w3.org/1999/xlink">
    <title>Group 26</title>
    <g id="Page-Carreras-y-Payments" stroke="none" stroke-width="1" fill="none" fill-rule="evenodd">
        <g id="Landing-Carreras" transform="translate(-853.000000, -2217.000000)">
            <g id="Group-26" transform="translate(853.000000, 2217.562814)">
                <g id="Group-13-Copy-3">
                    <rect id="Rectangle-Copy-7" x="0" y="0" width="170" height="85" rx="10"></rect>
                </g>
                <g id="logo-novacomp-blanco-2" transform="translate(18.000000, 30.437186)" fill-rule="nonzero">
                    <g id="logo-novacomp-blanco">
                        <g id="Group">
                            <path d="M17.1395349,0 C14.8802326,0 12.6988372,0.625 10.9069767,1.640625 L12.4651163,4.53125 C13.7895349,3.75 15.4255814,3.28125 17.0616279,3.28125 C22.1255814,3.28125 26.2546512,7.421875 26.2546512,12.5 C26.2546512,17.578125 22.1255814,21.71875 17.0616279,21.71875 C11.9976744,21.71875 7.86860465,17.578125 7.86860465,12.5 C7.86860465,11.328125 8.10232558,10.234375 8.49186047,9.21875 L8.49186047,9.21875 C8.95930233,7.96875 9.66046512,6.875 10.5953488,5.9375 L1.3244186,5.9375 C0.46744186,7.96875 0,10.15625 0,12.5 C0,15.625 0.856976744,18.515625 2.25930233,21.015625 L5.06395349,19.375 C3.89534884,17.421875 3.27209302,15 3.27209302,12.5 C3.27209302,11.40625 3.42790698,10.3125 3.66162791,9.21875 L5.06395349,9.21875 C4.83023256,10.234375 4.6744186,11.40625 4.6744186,12.5 C4.6744186,19.375 10.2837209,25 17.1395349,25 C23.9953488,25 29.6046512,19.453125 29.6046512,12.5 C29.6046512,5.546875 23.9953488,0 17.1395349,0 Z" id="Path" fill="#7F8082"></path>
                            <path d="M19.8662791,15.234375 C19.1651163,15.9375 18.1523256,16.40625 17.1395349,16.40625 C14.9581395,16.40625 13.244186,14.6875 13.244186,12.5 C13.244186,10.3125 14.9581395,8.59375 17.1395349,8.59375 C18.2302326,8.59375 19.1651163,9.0625 19.8662791,9.765625 L22.1255814,7.5 C20.8011628,6.171875 19.0872093,5.390625 17.0616279,5.390625 C13.0883721,5.390625 9.89418605,8.59375 9.89418605,12.5 C9.89418605,16.40625 13.0883721,19.609375 17.0616279,19.609375 C19.0093023,19.609375 20.8011628,18.828125 22.1255814,17.5 L19.8662791,15.234375 Z" id="Path" fill="#0C7ABD"></path>
                        </g>
                        <g id="Group" transform="translate(34.201163, 3.828125)" fill="#7F8082">
                            <g>
                                <path d="M10.127907,8.671875 C10.05,8.671875 9.89418605,8.671875 9.81627907,8.671875 C9.73837209,8.671875 9.66046512,8.671875 9.58255814,8.59375 C9.50465116,8.59375 9.42674419,8.515625 9.34883721,8.4375 C9.27093023,8.359375 9.19302326,8.28125 9.11511628,8.203125 L1.63604651,2.109375 L1.63604651,8.125 C1.63604651,8.359375 1.55813953,8.515625 1.40232558,8.59375 C1.3244186,8.59375 1.09069767,8.671875 0.856976744,8.671875 C0.623255814,8.671875 0.389534884,8.671875 0.23372093,8.59375 C0.0779069767,8.515625 0,8.359375 0,8.125 L0,0.546875 C0,0.3125 0.0779069767,0.15625 0.155813953,0.078125 C0.23372093,0 0.46744186,0 0.701162791,0 C0.934883721,0 1.16860465,0 1.3244186,0.078125 C1.48023256,0.15625 1.63604651,0.234375 1.86976744,0.390625 L9.34883721,6.5625 L9.34883721,0.546875 C9.34883721,0.3125 9.42674419,0.15625 9.58255814,0.078125 C9.73837209,0.078125 9.89418605,0 10.205814,0 C10.4395349,0 10.6732558,0 10.8290698,0.078125 C10.9069767,0.15625 10.9848837,0.3125 10.9848837,0.546875 L10.9848837,8.046875 C10.9848837,8.28125 10.9069767,8.4375 10.7511628,8.515625 C10.6732558,8.59375 10.4395349,8.671875 10.127907,8.671875 Z" id="Path"></path>
                                <path d="M16.2825581,8.671875 C13.8674419,8.671875 12.6988372,7.96875 12.6988372,6.484375 L12.6988372,2.265625 C12.6988372,0.78125 13.8674419,0.078125 16.2825581,0.078125 L19.7883721,0.078125 C22.2034884,0.078125 23.372093,0.78125 23.372093,2.265625 L23.372093,6.484375 C23.372093,7.96875 22.2034884,8.671875 19.7883721,8.671875 L16.2825581,8.671875 Z M19.7104651,7.34375 C20.4116279,7.34375 20.9569767,7.265625 21.2686047,7.03125 C21.5802326,6.875 21.7360465,6.640625 21.7360465,6.40625 L21.7360465,2.265625 C21.7360465,2.03125 21.5802326,1.796875 21.2686047,1.640625 C20.9569767,1.484375 20.4116279,1.40625 19.7104651,1.40625 L16.2825581,1.40625 C15.5813953,1.40625 15.0360465,1.484375 14.7244186,1.640625 C14.4127907,1.796875 14.2569767,2.03125 14.2569767,2.265625 L14.2569767,6.484375 C14.2569767,6.71875 14.4127907,6.953125 14.7244186,7.109375 C15.0360465,7.265625 15.5813953,7.421875 16.2825581,7.421875 L19.7104651,7.421875 L19.7104651,7.34375 Z" id="Shape"></path>
                                <path d="M30.6174419,8.671875 C30.3837209,8.671875 30.227907,8.671875 30.072093,8.59375 C29.9162791,8.515625 29.7604651,8.4375 29.6825581,8.28125 L24.3069767,0.9375 C24.2290698,0.78125 24.2290698,0.703125 24.2290698,0.625 C24.2290698,0.546875 24.2290698,0.46875 24.3069767,0.390625 C24.3848837,0.3125 24.4627907,0.234375 24.5406977,0.15625 C24.6186047,0.15625 24.6965116,0.078125 24.8523256,0.078125 C24.9302326,0.078125 25.0860465,0 25.1639535,0 C25.2418605,0 25.3976744,0 25.4755814,0.078125 C25.5534884,0.15625 25.7093023,0.15625 25.7093023,0.234375 L30.6174419,7.03125 L35.4476744,0.234375 C35.5255814,0.078125 35.7593023,0 35.9930233,0 C36.0709302,0 36.2267442,0 36.3046512,0.078125 C36.3825581,0.078125 36.5383721,0.15625 36.6162791,0.234375 C36.694186,0.3125 36.772093,0.390625 36.85,0.46875 C36.927907,0.546875 36.927907,0.625 36.927907,0.703125 C36.927907,0.78125 36.927907,0.859375 36.85,0.9375 L31.5523256,8.28125 C31.4744186,8.4375 31.3186047,8.515625 31.1627907,8.59375 C31.0069767,8.59375 30.8511628,8.671875 30.6174419,8.671875 Z" id="Path"></path>
                                <path d="M51.3406977,8.671875 C48.9255814,8.671875 47.7569767,7.96875 47.7569767,6.484375 L47.7569767,2.265625 C47.7569767,0.78125 48.9255814,0.078125 51.3406977,0.078125 L57.6511628,0.078125 C57.8069767,0.078125 57.9627907,0.15625 58.0406977,0.234375 C58.1186047,0.3125 58.1186047,0.46875 58.1186047,0.703125 C58.1186047,0.9375 58.1186047,1.09375 58.0406977,1.171875 C57.9627907,1.25 57.8848837,1.328125 57.6511628,1.328125 L51.4186047,1.328125 C50.7174419,1.328125 50.172093,1.40625 49.8604651,1.5625 C49.5488372,1.71875 49.3930233,1.953125 49.3930233,2.1875 L49.3930233,6.40625 C49.3930233,6.640625 49.5488372,6.875 49.8604651,7.03125 C50.172093,7.1875 50.7174419,7.34375 51.4186047,7.34375 L57.6511628,7.34375 C57.8069767,7.34375 57.9627907,7.421875 58.0406977,7.5 C58.1186047,7.578125 58.1186047,7.734375 58.1186047,7.96875 C58.1186047,8.203125 58.1186047,8.359375 58.0406977,8.4375 C57.9627907,8.515625 57.8848837,8.59375 57.6511628,8.59375 L51.3406977,8.59375 L51.3406977,8.671875 Z" id="Path"></path>
                                <path d="M63.3383721,8.671875 C60.9232558,8.671875 59.7546512,7.96875 59.7546512,6.484375 L59.7546512,2.265625 C59.7546512,0.78125 60.9232558,0.078125 63.3383721,0.078125 L66.844186,0.078125 C69.2593023,0.078125 70.427907,0.78125 70.427907,2.265625 L70.427907,6.484375 C70.427907,7.96875 69.2593023,8.671875 66.844186,8.671875 L63.3383721,8.671875 Z M66.844186,7.34375 C67.5453488,7.34375 68.0906977,7.265625 68.4023256,7.03125 C68.7139535,6.875 68.8697674,6.640625 68.8697674,6.40625 L68.8697674,2.265625 C68.8697674,2.03125 68.7139535,1.796875 68.4023256,1.640625 C68.0906977,1.484375 67.5453488,1.40625 66.844186,1.40625 L63.4162791,1.40625 C62.7151163,1.40625 62.1697674,1.484375 61.8581395,1.640625 C61.5465116,1.796875 61.3906977,2.03125 61.3906977,2.265625 L61.3906977,6.484375 C61.3906977,6.71875 61.5465116,6.953125 61.8581395,7.109375 C62.1697674,7.265625 62.7151163,7.421875 63.4162791,7.421875 L66.844186,7.421875 L66.844186,7.34375 Z" id="Shape"></path>
                                <path d="M85.2302326,0.46875 C85.3860465,0.3125 85.5418605,0.234375 85.6976744,0.15625 C85.8534884,0.078125 86.0093023,0.078125 86.2430233,0.078125 C86.8662791,0.078125 87.177907,0.3125 87.177907,0.859375 L87.177907,8.125 C87.177907,8.359375 87.1,8.515625 86.944186,8.59375 C86.7883721,8.671875 86.6325581,8.671875 86.3209302,8.671875 C86.0872093,8.671875 85.8534884,8.671875 85.6976744,8.59375 C85.5418605,8.515625 85.4639535,8.359375 85.4639535,8.125 L85.4639535,2.5 L80.6337209,8.203125 C80.477907,8.359375 80.322093,8.4375 80.244186,8.515625 C80.0883721,8.59375 79.9325581,8.59375 79.6988372,8.59375 C79.4651163,8.59375 79.2313953,8.59375 79.0755814,8.515625 C78.9197674,8.4375 78.7639535,8.359375 78.6081395,8.203125 L73.777907,2.5 L73.777907,8.125 C73.777907,8.359375 73.7,8.515625 73.544186,8.59375 C73.3883721,8.671875 73.2325581,8.671875 72.9209302,8.671875 C72.6872093,8.671875 72.4534884,8.671875 72.2976744,8.59375 C72.1418605,8.515625 72.0639535,8.359375 72.0639535,8.125 L72.0639535,0.859375 C72.0639535,0.3125 72.3755814,0.078125 72.9209302,0.078125 C73.3104651,0.078125 73.622093,0.234375 73.855814,0.46875 L79.4651163,7.03125 L85.2302326,0.46875 Z" id="Path"></path>
                                <path d="M88.7360465,0.546875 C88.7360465,0.15625 88.8918605,0 89.2813953,0 L96.1372093,0 C96.6825581,0 97.15,0.078125 97.6174419,0.15625 C98.0848837,0.234375 98.3965116,0.390625 98.7081395,0.546875 C99.0197674,0.703125 99.2534884,0.9375 99.4093023,1.171875 C99.5651163,1.40625 99.6430233,1.640625 99.6430233,1.953125 L99.6430233,3.671875 C99.6430233,3.984375 99.5651163,4.21875 99.4093023,4.453125 C99.2534884,4.6875 99.0197674,4.921875 98.7081395,5.078125 C98.3965116,5.234375 98.0069767,5.390625 97.6174419,5.46875 C97.15,5.546875 96.6825581,5.625 96.1372093,5.625 L90.294186,5.625 L90.294186,8.125 C90.294186,8.359375 90.2162791,8.515625 90.0604651,8.59375 C89.9046512,8.671875 89.7488372,8.671875 89.4372093,8.671875 C89.2034884,8.671875 88.9697674,8.671875 88.8139535,8.59375 C88.6581395,8.515625 88.5802326,8.359375 88.5802326,8.125 L88.5802326,0.546875 L88.7360465,0.546875 Z M90.372093,1.328125 L90.372093,4.296875 L96.0593023,4.296875 C96.4488372,4.296875 96.8383721,4.296875 97.072093,4.21875 C97.305814,4.140625 97.5395349,4.140625 97.6953488,4.0625 C97.8511628,3.984375 98.0069767,3.90625 98.0069767,3.828125 C98.0848837,3.75 98.0848837,3.671875 98.0848837,3.515625 L98.0848837,2.109375 C98.0848837,2.03125 98.0848837,1.875 98.0069767,1.796875 C97.9290698,1.71875 97.8511628,1.640625 97.6953488,1.5625 C97.5395349,1.484375 97.305814,1.40625 97.072093,1.40625 C96.8383721,1.328125 96.4488372,1.328125 96.0593023,1.328125 L90.372093,1.328125 Z" id="Shape"></path>
                                <path d="M40.5116279,0 C40.7453488,0 40.9011628,0 41.0569767,0.078125 C41.2127907,0.15625 41.3686047,0.234375 41.4465116,0.390625 L46.822093,7.734375 C46.9,7.8125 46.9,7.890625 46.9,7.96875 C46.9,8.046875 46.9,8.125 46.822093,8.203125 C46.744186,8.28125 46.6662791,8.359375 46.5883721,8.4375 C46.5104651,8.515625 46.4325581,8.515625 46.2767442,8.59375 C46.1988372,8.59375 46.0430233,8.671875 45.9651163,8.671875 C45.8872093,8.671875 45.7313953,8.671875 45.6534884,8.59375 C45.5755814,8.515625 45.4197674,8.515625 45.4197674,8.4375 L40.5116279,1.640625 L35.6813953,8.4375 C35.5255814,8.515625 35.3697674,8.671875 35.1360465,8.671875 C35.0581395,8.671875 34.9023256,8.671875 34.8244186,8.59375 C34.7465116,8.59375 34.5906977,8.515625 34.5127907,8.4375 C34.4348837,8.359375 34.3569767,8.28125 34.2790698,8.203125 C34.2011628,8.125 34.2011628,8.046875 34.2011628,7.96875 C34.2011628,7.890625 34.2011628,7.8125 34.2790698,7.734375 L39.5767442,0.390625 C39.6546512,0.234375 39.8104651,0.15625 39.9662791,0.078125 C40.122093,0.078125 40.277907,0 40.5116279,0 Z" id="Path"></path>
                            </g>
                            <g transform="translate(0.000000, 12.031250)">
                                <polygon id="Path" points="2.96046512 1.015625 2.96046512 1.484375 1.79186047 1.484375 1.79186047 4.296875 1.16860465 4.296875 1.16860465 1.484375 0 1.484375 0 1.015625"></polygon>
                                <polygon id="Path" points="6.54418605 1.015625 6.54418605 1.484375 5.06395349 1.484375 5.06395349 2.34375 6.46627907 2.34375 6.46627907 2.890625 5.06395349 2.890625 5.06395349 3.828125 6.62209302 3.828125 6.62209302 4.296875 4.44069767 4.296875 4.44069767 1.015625"></polygon>
                                <path d="M9.89418605,0.9375 C10.05,0.9375 10.2837209,0.9375 10.4395349,1.015625 C10.5953488,1.09375 10.8290698,1.09375 10.9848837,1.25 L10.9848837,1.875 C10.7511628,1.796875 10.5953488,1.640625 10.4395349,1.640625 C10.2837209,1.5625 10.05,1.5625 9.89418605,1.5625 C9.66046512,1.5625 9.42674419,1.640625 9.27093023,1.71875 C9.11511628,1.796875 8.95930233,1.953125 8.80348837,2.109375 C8.7255814,2.265625 8.64767442,2.5 8.64767442,2.734375 C8.64767442,2.96875 8.7255814,3.125 8.80348837,3.359375 C8.88139535,3.515625 9.0372093,3.671875 9.27093023,3.75 C9.50465116,3.828125 9.66046512,3.90625 9.89418605,3.90625 C10.05,3.90625 10.2837209,3.90625 10.4395349,3.828125 C10.5953488,3.75 10.8290698,3.671875 11.0627907,3.515625 L11.0627907,4.140625 C10.8290698,4.21875 10.6732558,4.296875 10.4395349,4.375 C10.2837209,4.453125 10.05,4.453125 9.81627907,4.453125 C9.50465116,4.453125 9.19302326,4.375 8.88139535,4.21875 C8.56976744,4.0625 8.41395349,3.90625 8.25813953,3.59375 C8.10232558,3.359375 8.0244186,3.046875 8.0244186,2.734375 C8.0244186,2.421875 8.10232558,2.109375 8.25813953,1.875 C8.41395349,1.640625 8.64767442,1.40625 8.95930233,1.25 C9.19302326,1.015625 9.50465116,0.9375 9.89418605,0.9375 Z" id="Path"></path>
                                <polygon id="Path" points="13.1662791 1.015625 15.1139535 3.28125 15.1139535 1.015625 15.7372093 1.015625 15.7372093 4.296875 15.1918605 4.296875 13.244186 1.953125 13.244186 4.296875 12.6209302 4.296875 12.6209302 1.015625"></polygon>
                                <path d="M19.1651163,0.9375 C19.4767442,0.9375 19.7883721,1.015625 20.1,1.171875 C20.3337209,1.328125 20.5674419,1.484375 20.7232558,1.796875 C20.8790698,2.109375 20.9569767,2.34375 20.9569767,2.65625 C20.9569767,2.96875 20.8790698,3.28125 20.7232558,3.515625 C20.5674419,3.75 20.3337209,3.984375 20.1,4.140625 C19.7883721,4.296875 19.4767442,4.375 19.1651163,4.375 C18.8534884,4.375 18.5418605,4.296875 18.2302326,4.140625 C17.9186047,3.984375 17.7627907,3.828125 17.6069767,3.515625 C17.4511628,3.28125 17.3732558,2.96875 17.3732558,2.65625 C17.3732558,2.34375 17.4511628,2.109375 17.6069767,1.796875 C17.7627907,1.5625 17.9965116,1.328125 18.2302326,1.171875 C18.4639535,1.015625 18.7755814,0.9375 19.1651163,0.9375 Z M17.9965116,2.65625 C17.9965116,2.890625 18.0744186,3.046875 18.1523256,3.28125 C18.2302326,3.515625 18.3860465,3.59375 18.5418605,3.671875 C18.6976744,3.75 18.9313953,3.828125 19.1651163,3.828125 C19.4767442,3.828125 19.7883721,3.75 20.022093,3.515625 C20.255814,3.28125 20.3337209,3.046875 20.3337209,2.734375 C20.3337209,2.5 20.255814,2.34375 20.177907,2.109375 C20.1,1.953125 19.944186,1.796875 19.7883721,1.71875 C19.6325581,1.640625 19.3988372,1.5625 19.1651163,1.5625 C18.9313953,1.5625 18.7755814,1.640625 18.5418605,1.71875 C18.3860465,1.796875 18.2302326,1.953125 18.1523256,2.109375 C17.9965116,2.265625 17.9965116,2.421875 17.9965116,2.65625 Z" id="Shape"></path>
                                <polygon id="Path" points="23.1383721 1.015625 23.1383721 3.828125 24.7744186 3.828125 24.7744186 4.296875 22.5151163 4.296875 22.5151163 1.015625 23.1383721 1.015625"></polygon>
                                <path d="M27.7348837,0.9375 C28.0465116,0.9375 28.3581395,1.015625 28.6697674,1.171875 C28.9034884,1.328125 29.1372093,1.484375 29.2930233,1.796875 C29.4488372,2.109375 29.5267442,2.34375 29.5267442,2.65625 C29.5267442,2.96875 29.4488372,3.28125 29.2930233,3.515625 C29.1372093,3.75 28.9034884,3.984375 28.6697674,4.140625 C28.3581395,4.296875 28.0465116,4.375 27.7348837,4.375 C27.4232558,4.375 27.1116279,4.296875 26.8,4.140625 C26.4883721,3.984375 26.3325581,3.828125 26.1767442,3.515625 C26.0209302,3.28125 25.9430233,2.96875 25.9430233,2.65625 C25.9430233,2.34375 26.0209302,2.109375 26.1767442,1.796875 C26.3325581,1.5625 26.5662791,1.328125 26.8,1.171875 C27.0337209,1.015625 27.3453488,0.9375 27.7348837,0.9375 Z M26.5662791,2.65625 C26.5662791,2.890625 26.644186,3.046875 26.722093,3.28125 C26.8,3.515625 26.955814,3.59375 27.1116279,3.671875 C27.2674419,3.75 27.5011628,3.828125 27.7348837,3.828125 C28.0465116,3.828125 28.3581395,3.75 28.5918605,3.515625 C28.8255814,3.28125 28.9034884,3.046875 28.9034884,2.734375 C28.9034884,2.5 28.8255814,2.34375 28.7476744,2.109375 C28.6697674,1.953125 28.5139535,1.796875 28.3581395,1.71875 C28.2023256,1.640625 27.9686047,1.5625 27.7348837,1.5625 C27.5011628,1.5625 27.3453488,1.640625 27.1116279,1.71875 C26.955814,1.796875 26.8,1.953125 26.722093,2.109375 C26.644186,2.265625 26.5662791,2.421875 26.5662791,2.65625 Z" id="Shape"></path>
                                <path d="M32.7988372,0.9375 C33.1883721,0.9375 33.577907,1.015625 33.9674419,1.171875 L33.9674419,1.71875 C33.577907,1.484375 33.1883721,1.40625 32.7988372,1.40625 C32.5651163,1.40625 32.3313953,1.484375 32.1755814,1.5625 C32.0197674,1.640625 31.8639535,1.796875 31.7081395,1.953125 C31.6302326,2.109375 31.5523256,2.34375 31.5523256,2.578125 C31.5523256,2.890625 31.6302326,3.203125 31.8639535,3.359375 C32.0976744,3.59375 32.4093023,3.671875 32.7209302,3.671875 C32.7988372,3.671875 32.9546512,3.671875 33.0325581,3.671875 C33.1104651,3.671875 33.2662791,3.59375 33.344186,3.59375 L33.344186,3.046875 L32.7988372,3.046875 L32.7988372,2.578125 L33.9674419,2.578125 L33.9674419,3.90625 C33.8116279,3.984375 33.577907,4.140625 33.422093,4.140625 C33.1883721,4.21875 32.9546512,4.21875 32.7209302,4.21875 C32.4093023,4.21875 32.0976744,4.140625 31.7860465,3.984375 C31.4744186,3.828125 31.3186047,3.671875 31.1627907,3.359375 C31.0069767,3.125 30.9290698,2.8125 30.9290698,2.5 C30.9290698,2.1875 31.0069767,1.875 31.1627907,1.640625 C31.3186047,1.40625 31.5523256,1.171875 31.8639535,1.015625 C32.1755814,1.015625 32.4872093,0.9375 32.7988372,0.9375 Z" id="Path"></path>
                                <path d="M37.005814,0 L36.1488372,0.78125 L35.7593023,0.78125 L36.2267442,0 L37.005814,0 Z M36.3825581,1.015625 L36.3825581,4.296875 L35.7593023,4.296875 L35.7593023,1.015625 L36.3825581,1.015625 Z" id="Shape"></path>
                                <path d="M39.8104651,1.015625 L41.2906977,4.296875 L40.5895349,4.296875 L40.277907,3.515625 L38.7976744,3.515625 L38.4860465,4.296875 L37.7848837,4.296875 L39.1093023,1.015625 L39.8104651,1.015625 Z M38.9534884,3.046875 L40.044186,3.046875 L39.4988372,1.71875 L38.9534884,3.046875 Z" id="Shape"></path>
                                <path d="M46.3546512,1.015625 C46.744186,1.015625 47.055814,1.09375 47.2895349,1.25 C47.6011628,1.40625 47.7569767,1.5625 47.9127907,1.875 C48.0686047,2.1875 48.1465116,2.421875 48.1465116,2.734375 C48.1465116,3.046875 48.0686047,3.359375 47.9127907,3.59375 C47.7569767,3.828125 47.5232558,4.0625 47.2116279,4.140625 C46.9,4.296875 46.5883721,4.375 46.1988372,4.375 L44.7965116,4.375 L44.7965116,1.09375 L46.3546512,1.09375 L46.3546512,1.015625 Z M46.2767442,3.828125 C46.6662791,3.828125 46.977907,3.75 47.1337209,3.515625 C47.3674419,3.28125 47.4453488,3.046875 47.4453488,2.65625 C47.4453488,2.265625 47.3674419,2.03125 47.1337209,1.796875 C46.9,1.5625 46.5883721,1.484375 46.1988372,1.484375 L45.4976744,1.484375 L45.4976744,3.75 L46.2767442,3.75 L46.2767442,3.828125 Z" id="Shape"></path>
                                <polygon id="Path" points="52.0418605 1.015625 52.0418605 1.484375 50.4837209 1.484375 50.4837209 2.34375 51.9639535 2.34375 51.9639535 2.890625 50.4837209 2.890625 50.4837209 3.828125 52.1197674 3.828125 52.1197674 4.296875 49.8604651 4.296875 49.8604651 1.015625"></polygon>
                                <polygon id="Path" points="56.2488372 1.015625 56.2488372 4.296875 55.6255814 4.296875 55.6255814 1.015625"></polygon>
                                <polygon id="Path" points="58.5081395 1.015625 60.455814 3.28125 60.455814 1.015625 61.0790698 1.015625 61.0790698 4.296875 60.5337209 4.296875 58.5860465 1.953125 58.5860465 4.296875 57.9627907 4.296875 57.9627907 1.015625"></polygon>
                                <polygon id="Path" points="64.8186047 1.015625 64.8186047 1.484375 63.4162791 1.484375 63.4162791 2.34375 64.8186047 2.34375 64.8186047 2.890625 63.4162791 2.890625 63.4162791 4.296875 62.7930233 4.296875 62.7930233 1.015625"></polygon>
                                <path d="M68.0127907,0.9375 C68.3244186,0.9375 68.6360465,1.015625 68.9476744,1.171875 C69.1813953,1.328125 69.4151163,1.484375 69.5709302,1.796875 C69.7267442,2.03125 69.8046512,2.34375 69.8046512,2.65625 C69.8046512,2.96875 69.7267442,3.28125 69.5709302,3.515625 C69.4151163,3.75 69.1813953,3.984375 68.9476744,4.140625 C68.6360465,4.296875 68.3244186,4.375 68.0127907,4.375 C67.7011628,4.375 67.3895349,4.296875 67.077907,4.140625 C66.7662791,3.984375 66.6104651,3.828125 66.4546512,3.515625 C66.2988372,3.28125 66.2209302,2.96875 66.2209302,2.65625 C66.2209302,2.34375 66.2988372,2.109375 66.4546512,1.796875 C66.6104651,1.5625 66.844186,1.328125 67.077907,1.171875 C67.3116279,1.015625 67.6232558,0.9375 68.0127907,0.9375 Z M66.844186,2.65625 C66.844186,2.890625 66.922093,3.046875 67,3.28125 C67.077907,3.4375 67.2337209,3.59375 67.3895349,3.671875 C67.5453488,3.75 67.7790698,3.828125 68.0127907,3.828125 C68.3244186,3.828125 68.6360465,3.75 68.8697674,3.515625 C69.1034884,3.28125 69.1813953,3.046875 69.1813953,2.734375 C69.1813953,2.5 69.1034884,2.34375 69.0255814,2.109375 C68.9476744,1.953125 68.7918605,1.796875 68.6360465,1.71875 C68.4802326,1.640625 68.2465116,1.5625 68.0127907,1.5625 C67.7790698,1.5625 67.6232558,1.640625 67.3895349,1.71875 C67.2337209,1.796875 67.077907,1.953125 67,2.109375 C66.922093,2.265625 66.844186,2.421875 66.844186,2.65625 Z" id="Shape"></path>
                                <path d="M72.6093023,1.015625 C72.9209302,1.015625 73.1546512,1.09375 73.3883721,1.25 C73.544186,1.40625 73.7,1.640625 73.7,1.953125 C73.7,2.109375 73.622093,2.265625 73.544186,2.421875 C73.4662791,2.578125 73.3104651,2.65625 73.0767442,2.734375 C73.1546512,2.8125 73.3104651,2.890625 73.3883721,2.96875 C73.4662791,3.046875 73.544186,3.203125 73.7,3.4375 C73.9337209,3.828125 74.0116279,4.140625 74.1674419,4.296875 L73.4662791,4.296875 C73.3883721,4.21875 73.3883721,4.140625 73.2325581,3.984375 C73.0767442,3.671875 72.9209302,3.4375 72.8430233,3.28125 C72.7651163,3.125 72.6872093,3.046875 72.6093023,3.046875 C72.5313953,2.96875 72.4534884,2.96875 72.3755814,2.96875 L72.1418605,2.96875 L72.1418605,4.375 L71.5186047,4.375 L71.5186047,1.09375 L72.6093023,1.09375 L72.6093023,1.015625 Z M72.4534884,2.421875 C72.6093023,2.421875 72.7651163,2.34375 72.8430233,2.265625 C72.9209302,2.1875 72.9988372,2.03125 72.9988372,1.953125 C72.9988372,1.796875 72.9209302,1.71875 72.8430233,1.640625 C72.7651163,1.5625 72.6093023,1.5625 72.4534884,1.5625 L72.0639535,1.5625 L72.0639535,2.5 L72.4534884,2.5 L72.4534884,2.421875 Z" id="Shape"></path>
                                <polygon id="Path" points="76.0372093 1.015625 77.127907 2.34375 78.2186047 1.015625 78.7639535 1.015625 78.7639535 4.296875 78.1406977 4.296875 78.1406977 1.953125 78.1406977 1.953125 77.205814 3.125 77.127907 3.125 76.1930233 1.953125 76.1930233 1.953125 76.1930233 4.296875 75.5697674 4.296875 75.5697674 1.015625"></polygon>
                                <path d="M82.1139535,1.015625 L83.594186,4.296875 L82.8930233,4.296875 L82.5813953,3.515625 L81.1011628,3.515625 L80.7895349,4.296875 L80.0883721,4.296875 L81.4127907,1.015625 L82.1139535,1.015625 Z M81.2569767,3.046875 L82.3476744,3.046875 L81.8023256,1.71875 L81.2569767,3.046875 Z" id="Shape"></path>
                                <path d="M86.4767442,0.9375 C86.6325581,0.9375 86.8662791,0.9375 87.022093,1.015625 C87.177907,1.09375 87.4116279,1.09375 87.5674419,1.25 L87.5674419,1.875 C87.3337209,1.796875 87.177907,1.640625 87.022093,1.640625 C86.8662791,1.5625 86.6325581,1.5625 86.4767442,1.5625 C86.2430233,1.5625 86.0093023,1.640625 85.8534884,1.71875 C85.6976744,1.796875 85.5418605,1.953125 85.3860465,2.109375 C85.3081395,2.265625 85.2302326,2.5 85.2302326,2.734375 C85.2302326,2.96875 85.3081395,3.125 85.3860465,3.359375 C85.4639535,3.59375 85.6197674,3.671875 85.8534884,3.75 C86.0093023,3.828125 86.2430233,3.90625 86.4767442,3.90625 C86.6325581,3.90625 86.8662791,3.90625 87.022093,3.828125 C87.177907,3.75 87.4116279,3.671875 87.6453488,3.515625 L87.6453488,4.140625 C87.4116279,4.21875 87.255814,4.296875 87.022093,4.375 C86.8662791,4.453125 86.6325581,4.453125 86.3988372,4.453125 C86.0872093,4.453125 85.7755814,4.375 85.4639535,4.21875 C85.1523256,4.0625 84.9965116,3.90625 84.8406977,3.59375 C84.6848837,3.359375 84.6069767,3.046875 84.6069767,2.734375 C84.6069767,2.421875 84.6848837,2.109375 84.8406977,1.875 C84.9965116,1.640625 85.2302326,1.40625 85.5418605,1.25 C85.8534884,1.015625 86.1651163,0.9375 86.4767442,0.9375 Z" id="Path"></path>
                                <polygon id="Path" points="89.9046512 1.015625 89.9046512 4.296875 89.2813953 4.296875 89.2813953 1.015625"></polygon>
                                <path d="M93.2546512,0.9375 C93.5662791,0.9375 93.877907,1.015625 94.1895349,1.171875 C94.4232558,1.328125 94.6569767,1.484375 94.8127907,1.796875 C94.9686047,2.03125 95.0465116,2.34375 95.0465116,2.65625 C95.0465116,2.96875 94.9686047,3.28125 94.8127907,3.515625 C94.6569767,3.75 94.4232558,3.984375 94.1895349,4.140625 C93.877907,4.296875 93.5662791,4.375 93.2546512,4.375 C92.9430233,4.375 92.6313953,4.296875 92.3197674,4.140625 C92.0081395,3.984375 91.8523256,3.828125 91.6965116,3.515625 C91.5406977,3.203125 91.4627907,2.96875 91.4627907,2.65625 C91.4627907,2.34375 91.5406977,2.109375 91.6965116,1.796875 C91.8523256,1.484375 92.0860465,1.328125 92.3197674,1.171875 C92.6313953,1.015625 92.9430233,0.9375 93.2546512,0.9375 Z M92.1639535,2.65625 C92.1639535,2.890625 92.2418605,3.046875 92.3197674,3.28125 C92.3976744,3.4375 92.5534884,3.59375 92.7093023,3.671875 C92.8651163,3.75 93.0988372,3.828125 93.3325581,3.828125 C93.644186,3.828125 93.955814,3.75 94.1895349,3.515625 C94.4232558,3.28125 94.5011628,3.046875 94.5011628,2.734375 C94.5011628,2.5 94.4232558,2.34375 94.3453488,2.109375 C94.2674419,1.875 94.1116279,1.796875 93.955814,1.71875 C93.8,1.640625 93.5662791,1.5625 93.3325581,1.5625 C93.0988372,1.5625 92.9430233,1.640625 92.7093023,1.71875 C92.5534884,1.796875 92.3976744,1.953125 92.3197674,2.109375 C92.1639535,2.265625 92.1639535,2.421875 92.1639535,2.65625 Z M94.1116279,0 L93.2546512,0.78125 L92.8651163,0.78125 L93.3325581,0 L94.1116279,0 Z" id="Shape"></path>
                                <polygon id="Path" points="97.227907 1.015625 99.1755814 3.28125 99.1755814 1.015625 99.7988372 1.015625 99.7988372 4.296875 99.2534884 4.296875 97.305814 1.953125 97.305814 4.296875 96.6825581 4.296875 96.6825581 1.015625"></polygon>
                            </g>
                        </g>
                    </g>
                </g>
            </g>
        </g>
    </g>
</svg>