<?xml version="1.0" encoding="UTF-8"?>
<svg width="170px" height="85px" viewBox="0 0 170 85" version="1.1" xmlns="http://www.w3.org/2000/svg" xmlns:xlink="http://www.w3.org/1999/xlink">
    <title>Group 79</title>
    <g id="Page-Carreras-y-Payments" stroke="none" stroke-width="1" fill="none" fill-rule="evenodd">
        <g id="Group-79">
            <g id="Group-13-Copy-4">
                <rect id="Rectangle-Copy-7" x="0" y="0" width="170" height="85" rx="10"></rect>
            </g>
            <g id="ntt-data-logo" transform="translate(43.000000, 32.000000)" fill="#0F1C50">
                <path d="M26.2,16 C26.6,16.3 26.9,16.7 27,17.3 L26.4,17.3 C26.4,17 26.2,16.7 26,16.6 C25.7,16.4 25.4,16.3 25.2,16.4 C24.8,16.4 24.4,16.6 24.2,16.9 C23.9,17.3 23.8,17.8 23.8,18.3 C23.8,18.8 23.9,19.2 24.1,19.6 C24.4,19.9 24.8,20.2 25.2,20.1 C25.5,20.1 25.9,20 26.2,19.8 C26.5,19.5 26.6,19.1 26.6,18.6 L25.2,18.6 L25.2,18.1 L27.2,18.1 L27.2,20.6 L26.8,20.6 L26.7,19.9 C26.5,20.1 26.4,20.2 26.1,20.4 C25.8,20.6 25.4,20.7 25.1,20.6 C24.6,20.6 24.1,20.4 23.7,20.1 C23.3,19.6 23,19 23.1,18.3 C23.1,17.6 23.3,17 23.7,16.5 C24.1,16.1 24.6,15.8 25.2,15.8 C25.5,15.8 25.8,15.9 26.2,16 Z M12.1,17.4 C12.2,17.6 12.3,17.8 12.3,18 L11.8,18 C11.8,17.9 11.8,17.7 11.7,17.7 C11.5,17.5 11.3,17.4 11,17.5 C10.8,17.5 10.7,17.5 10.5,17.6 C10.4,17.7 10.3,17.8 10.3,17.9 C10.3,18 10.4,18.2 10.5,18.2 C10.6,18.3 10.8,18.3 10.9,18.3 L11.3,18.4 C11.6,18.4 11.9,18.5 12.1,18.7 C12.3,18.8 12.4,19.1 12.4,19.4 C12.4,19.7 12.3,20 12.1,20.2 C11.8,20.5 11.4,20.5 11,20.5 C10.6,20.5 10.2,20.4 9.9,20.2 C9.7,20 9.6,19.7 9.6,19.4 L10.1,19.4 C10.1,19.6 10.1,19.7 10.2,19.8 C10.4,20 10.7,20.1 11,20.1 C11.2,20.1 11.4,20.1 11.6,20 C11.8,19.9 11.9,19.7 11.9,19.6 C11.9,19.5 11.8,19.3 11.7,19.3 C11.5,19.2 11.4,19.2 11.2,19.1 L10.7,19 C10.5,19 10.3,18.9 10,18.7 C9.8,18.6 9.6,18.4 9.6,18.1 C9.6,17.8 9.7,17.5 9.9,17.3 C10.2,17.1 10.5,17 10.9,17 C11.4,16.9 11.9,17.1 12.1,17.4 Z M63.4,17 C63.8,17 64.2,17.1 64.4,17.4 C64.7,17.7 64.9,18.2 64.8,18.7 C64.8,19.2 64.7,19.7 64.4,20.1 C64.1,20.4 63.7,20.7 63.2,20.6 C62.8,20.6 62.4,20.4 62.2,20.1 C61.9,19.8 61.8,19.3 61.8,18.8 C61.8,18.3 61.9,17.8 62.2,17.4 C62.6,17.2 63,17 63.4,17 L63.4,17 Z M51.9,17 C52.3,17 52.7,17.1 52.9,17.4 C53.2,17.7 53.4,18.2 53.3,18.7 C53.3,19.2 53.2,19.7 52.9,20.1 C52.6,20.4 52.2,20.7 51.7,20.6 C51.3,20.6 50.9,20.4 50.7,20.1 C50.4,19.8 50.3,19.3 50.3,18.8 C50.3,18.3 50.4,17.8 50.7,17.4 C51.1,17.1 51.5,17 51.9,17 Z M30.5,17 C30.9,17 31.3,17.2 31.5,17.4 C31.8,17.7 32,18.2 31.9,18.7 C31.9,19.2 31.8,19.7 31.5,20.1 C31.2,20.4 30.8,20.7 30.3,20.6 C29.9,20.6 29.5,20.4 29.3,20.1 C29,19.8 28.9,19.3 28.9,18.8 C28.9,18.3 29,17.8 29.3,17.4 C29.7,17.1 30.1,17 30.5,17 Z M21.1,15.8 L21.1,20.6 L20.6,20.6 L20.6,20.1 C20.5,20.2 20.4,20.3 20.3,20.4 C20.1,20.5 19.9,20.6 19.7,20.6 C19.3,20.6 18.9,20.4 18.7,20.1 C18.4,19.7 18.3,19.2 18.3,18.7 C18.3,18.2 18.4,17.8 18.7,17.4 C19,17.1 19.3,17 19.7,17 C19.9,17 20.1,17 20.3,17.1 C20.5,17.2 20.6,17.3 20.7,17.5 L20.7,15.8 C20.6,15.8 21.1,15.8 21.1,15.8 Z M47.7,17 L47.7,17.7 C47.8,17.5 48,17.4 48.2,17.3 C48.4,17.2 48.6,17.2 48.8,17.2 C49.2,17.2 49.5,17.4 49.8,17.7 C49.9,18 49.9,18.2 49.9,18.5 L49.9,20.7 L49.3,20.7 L49.3,18.5 C49.3,18.3 49.3,18.2 49.2,18 C49.1,17.8 48.9,17.7 48.7,17.7 C48.6,17.7 48.5,17.7 48.4,17.7 C48.2,17.7 48.1,17.8 48,18 C47.9,18.1 47.9,18.2 47.8,18.3 C47.8,18.4 47.8,18.6 47.8,18.7 L47.8,20.7 L47.2,20.7 L47.2,17.1 L47.7,17 L47.7,17 Z M40.1,15.8 L40.1,19.9 C40.1,20 40.1,20.1 40.2,20.1 L40.3,20.1 L40.3,20.6 L40.1,20.6 C39.9,20.6 39.7,20.6 39.6,20.4 C39.5,20.2 39.5,20.1 39.5,19.9 L39.5,15.8 L40.1,15.8 L40.1,15.8 Z M28.5,15.8 L28.5,19.9 C28.5,20 28.5,20.1 28.6,20.1 L28.7,20.1 L28.7,20.6 L28.6,20.6 C28.4,20.6 28.2,20.6 28.1,20.4 C28,20.2 28,20.1 28,19.9 L28,15.8 L28.5,15.8 L28.5,15.8 Z M44.3,17 L44.3,17.7 C44.4,17.5 44.6,17.4 44.8,17.3 C45,17.2 45.2,17.2 45.4,17.2 C45.8,17.2 46.1,17.3 46.4,17.7 C46.5,18 46.5,18.2 46.5,18.5 L46.5,20.7 L45.9,20.7 L45.9,18.5 C45.9,18.3 45.9,18.2 45.8,18 C45.7,17.8 45.5,17.7 45.3,17.7 C45.2,17.7 45.1,17.7 45,17.7 C44.8,17.7 44.7,17.8 44.6,18 C44.5,18.1 44.5,18.2 44.4,18.3 C44.4,18.4 44.4,18.6 44.4,18.7 L44.4,20.7 L43.8,20.7 L43.8,17.1 L44.3,17 L44.3,17 Z M66,17 L66,17.7 C66.1,17.5 66.2,17.4 66.3,17.3 C66.5,17.1 66.6,17 66.9,17 L67.1,17 L67.1,17.6 L66.9,17.6 C66.6,17.6 66.4,17.7 66.2,17.9 C66.1,18.1 66,18.4 66,18.6 L66,20.6 L65.4,20.6 L65.4,17 C65.4,17 66,17 66,17 Z M33.2,15.8 L33.2,17.5 C33.3,17.3 33.5,17.2 33.6,17.1 C33.8,17 33.9,17 34.2,17 C34.6,17 34.9,17.1 35.2,17.4 C35.5,17.7 35.6,18.2 35.6,18.7 C35.6,19.2 35.5,19.7 35.2,20.1 C35,20.4 34.6,20.7 34.2,20.6 C34,20.6 33.8,20.6 33.6,20.4 C33.5,20.3 33.4,20.2 33.3,20.1 L33.3,20.6 L32.8,20.6 L32.8,15.8 L33.2,15.8 Z M59.2,17.2 C59.5,17.4 59.6,17.6 59.5,17.9 L59.5,19.9 C59.5,19.9 59.5,20 59.5,20 C59.5,20 59.6,20 59.6,20 L59.8,20 L59.8,20.4 C59.8,20.4 59.7,20.4 59.6,20.4 L59.4,20.4 C59.2,20.4 59.1,20.3 59,20.2 C59,20.1 58.9,20 58.9,19.9 C58.8,20.1 58.6,20.2 58.4,20.3 C58.2,20.4 58,20.5 57.7,20.5 C57.4,20.5 57.1,20.4 57,20.2 C56.8,20 56.7,19.8 56.7,19.5 C56.7,19.2 56.8,19 57,18.8 C57.2,18.6 57.5,18.5 57.7,18.5 L58.5,18.4 C58.6,18.4 58.7,18.3 58.8,18.2 C58.8,18.1 58.8,18.1 58.8,18 C58.8,17.8 58.8,17.7 58.6,17.6 C58.4,17.5 58.2,17.5 58,17.5 C57.8,17.5 57.6,17.6 57.4,17.8 C57.3,17.9 57.3,18.1 57.3,18.2 L56.8,18.2 C56.8,17.9 56.9,17.5 57.2,17.3 C57.5,17.1 57.8,17 58.1,17 C58.6,17 59,17 59.2,17.2 Z M4,15.8 L4,16.4 L2.4,16.4 L2.4,20.6 L1.7,20.6 L1.7,16.4 L0.1,16.4 L0.1,15.8 L4,15.8 Z M42.9,15.8 L42.9,20.6 L42.3,20.6 L42.3,15.8 C42.3,15.8 42.9,15.8 42.9,15.8 Z M38.3,17.2 C38.5,17.4 38.7,17.6 38.6,17.9 L38.6,19.9 C38.6,19.9 38.6,20 38.6,20 C38.6,20 38.7,20 38.7,20 L38.9,20 L38.9,20.4 C38.8,20.4 38.8,20.4 38.7,20.4 L38.5,20.4 C38.3,20.4 38.2,20.3 38.1,20.2 C38.1,20.1 38,20 38,19.9 C37.9,20.1 37.7,20.2 37.5,20.3 C37.3,20.4 37.1,20.5 36.8,20.5 C36.5,20.5 36.2,20.4 36.1,20.2 C35.9,20 35.8,19.8 35.8,19.5 C35.8,19.2 35.9,19 36.1,18.8 C36.3,18.6 36.6,18.5 36.8,18.5 L37.7,18.4 C37.8,18.4 37.9,18.4 38,18.2 C38,18.1 38,18.1 38,18 C38,17.8 38,17.7 37.8,17.6 C37.6,17.5 37.4,17.5 37.2,17.5 C37,17.5 36.8,17.6 36.6,17.8 C36.5,17.9 36.5,18.1 36.5,18.2 L36,18.2 C36,17.9 36.1,17.5 36.4,17.3 C36.7,17.1 37,17 37.3,17 C37.7,17 38,17 38.3,17.2 Z M4.7,17 L4.7,17.7 C4.8,17.5 4.9,17.4 5,17.3 C5.2,17.1 5.3,17.1 5.6,17.1 L5.8,17.1 L5.8,17.7 L5.6,17.7 C5.3,17.7 5.1,17.8 4.9,18 C4.8,18.2 4.7,18.5 4.6,18.7 L4.6,20.7 L4.1,20.7 L4.1,17.1 L4.7,17 L4.7,17 Z M54.2,17 L55.2,19.9 L56.2,17 L56.9,17 L55.5,20.6 L54.9,20.6 L53.6,17 L54.2,17 Z M9.1,17 L9.1,20.5 L8.5,20.5 L8.5,20 C8.4,20.1 8.3,20.3 8.2,20.3 C8,20.5 7.7,20.6 7.4,20.6 C7,20.6 6.6,20.5 6.4,20.1 C6.3,19.9 6.2,19.6 6.3,19.4 L6.3,17 L6.9,17 L6.9,19.3 C6.9,19.4 6.9,19.6 7,19.7 C7.1,19.9 7.3,20 7.6,20 C7.9,20 8.3,19.8 8.4,19.4 C8.5,19.1 8.5,18.9 8.5,18.6 L8.5,16.9 C8.5,17 9.1,17 9.1,17 Z M61,15.8 L61,17 L61.5,17 L61.5,17.4 L61,17.4 L61,19.8 C61,19.9 61,20 61.1,20 C61.2,20 61.2,20 61.3,20 L61.5,20 L61.5,20.4 C61.5,20.4 61.4,20.4 61.3,20.4 L61.1,20.4 C60.9,20.4 60.7,20.4 60.6,20.2 C60.5,20.1 60.5,19.9 60.5,19.8 L60.5,17.3 L60.1,17.3 L60.1,16.9 L60.5,16.9 L60.5,15.7 C60.5,15.8 61,15.8 61,15.8 Z M13.7,15.8 L13.7,17 L14.2,17 L14.2,17.4 L13.7,17.4 L13.7,19.8 C13.7,19.9 13.7,20 13.8,20 C13.9,20 13.9,20 14,20 L14.2,20 L14.2,20.4 C14.2,20.4 14.1,20.4 14,20.4 L13.8,20.4 C13.6,20.4 13.4,20.4 13.3,20.2 C13.2,20 13.2,19.9 13.2,19.7 L13.2,17.3 L12.8,17.3 L12.8,16.9 L13.2,16.9 L13.2,15.7 L13.7,15.8 L13.7,15.8 Z M16.3,17 C16.6,17 16.8,17 17,17.2 C17.2,17.3 17.4,17.5 17.5,17.6 C17.6,17.8 17.7,18 17.7,18.2 C17.7,18.5 17.7,18.7 17.7,18.9 L15.2,18.9 C15.2,19.2 15.3,19.5 15.5,19.8 C15.7,20 15.9,20.1 16.2,20.1 C16.5,20.1 16.7,20 16.9,19.8 C17,19.7 17.1,19.5 17.1,19.4 L17.7,19.4 C17.7,19.5 17.6,19.7 17.6,19.8 C17.5,19.9 17.4,20.1 17.3,20.2 C17.1,20.4 16.9,20.5 16.6,20.5 C16.4,20.5 16.3,20.5 16.1,20.5 C15.7,20.5 15.3,20.3 15,20 C14.7,19.7 14.5,19.2 14.6,18.7 C14.6,18.2 14.7,17.7 15,17.4 C15.4,17.1 15.8,17 16.3,17 Z M59.1,18.7 L58.8,18.8 C58.7,18.8 58.6,18.8 58.5,18.8 L58.2,18.8 C58,18.8 57.9,18.8 57.8,18.9 C57.6,19 57.5,19.2 57.5,19.4 C57.5,19.5 57.5,19.7 57.7,19.8 C57.8,19.9 58,19.9 58.1,19.9 C58.3,19.9 58.5,19.9 58.7,19.8 C59,19.7 59.2,19.4 59.2,19 L59.1,18.7 L59.1,18.7 Z M38.1,18.7 L37.8,18.8 C37.7,18.8 37.6,18.8 37.5,18.8 L37.2,18.8 C37,18.8 36.9,18.8 36.8,18.9 C36.6,19 36.5,19.2 36.5,19.4 C36.5,19.5 36.5,19.7 36.7,19.8 C36.8,19.9 37,19.9 37.1,19.9 C37.3,19.9 37.5,19.9 37.7,19.8 C38,19.7 38.2,19.4 38.1,19 C38.1,19.2 38.1,18.7 38.1,18.7 Z M63.4,17.5 C63.1,17.5 62.8,17.6 62.7,17.9 C62.5,18.2 62.5,18.5 62.5,18.9 C62.5,19.2 62.6,19.5 62.7,19.8 C62.9,20.1 63.1,20.2 63.4,20.1 C63.7,20.1 64,20 64.1,19.7 C64.2,19.4 64.3,19.1 64.3,18.7 C64.3,18.4 64.3,18.2 64.2,17.9 C64,17.7 63.7,17.4 63.4,17.5 Z M30.5,17.5 C30.2,17.5 29.9,17.6 29.8,17.9 C29.6,18.2 29.6,18.5 29.6,18.9 C29.6,19.2 29.7,19.5 29.8,19.8 C30,20.1 30.2,20.2 30.5,20.1 C30.8,20.1 31.1,20 31.2,19.7 C31.3,19.4 31.4,19.1 31.4,18.7 C31.4,18.4 31.4,18.2 31.3,17.9 C31.2,17.7 30.9,17.4 30.5,17.5 Z M51.9,17.5 C51.6,17.5 51.3,17.6 51.2,17.9 C51,18.2 51,18.5 51,18.9 C51,19.2 51.1,19.5 51.2,19.8 C51.4,20.1 51.6,20.2 51.9,20.1 C52.2,20.1 52.5,20 52.6,19.7 C52.7,19.4 52.8,19.1 52.8,18.7 C52.8,18.4 52.8,18.2 52.7,17.9 C52.5,17.7 52.2,17.4 51.9,17.5 Z M19.6,17.5 C19.3,17.5 19.1,17.6 18.9,17.8 C18.7,18.1 18.7,18.4 18.7,18.7 C18.7,19 18.7,19.4 18.9,19.7 C19,19.9 19.3,20.1 19.6,20 C19.9,20 20.3,19.8 20.4,19.5 C20.5,19.2 20.5,19 20.5,18.7 C20.5,18.4 20.4,18 20.2,17.7 C20.1,17.6 19.9,17.5 19.6,17.5 Z M34.1,17.5 C33.8,17.5 33.6,17.6 33.4,17.8 C33.2,18.1 33.1,18.4 33.1,18.8 C33.1,19.1 33.1,19.3 33.2,19.6 C33.3,19.9 33.6,20.2 34,20.2 C34.3,20.2 34.5,20.1 34.7,19.9 C34.9,19.6 34.9,19.2 34.9,18.9 C34.9,18.6 34.8,18.3 34.7,18 C34.6,17.6 34.3,17.5 34.1,17.5 Z M16.2,17.5 C15.9,17.5 15.7,17.6 15.5,17.8 C15.3,18 15.2,18.2 15.2,18.5 L17.1,18.5 C17.1,18.3 17,18.1 16.9,17.9 C16.8,17.6 16.5,17.4 16.2,17.5 Z M2.6,-2.27373675e-13 C3.8,-2.27373675e-13 4.4,0.6 4.9,1.4 C5.3,2.1 9,9.1 9,9.3 C9,9.4 9.1,9.5 9.2,9.4 C9.3,9.4 9.3,9.3 9.3,9.1 C9.3,9 9.3,8.1 9.3,7.6 L9.3,0.2 L11.9,0.2 L11.9,9.1 C11.9,11.8 10.6,12.2 9.5,12.2 C8.3,12.2 7.7,11.6 7.2,10.8 C6.5,9.7 3.1,3.1 3.1,2.9 C3,2.8 2.9,2.7 2.8,2.8 C2.7,2.8 2.7,2.9 2.7,3.1 C2.7,3.3 2.7,4 2.7,4.5 L2.7,11.9 L0,11.9 L0,3 C0.2,0.5 1.5,-2.27373675e-13 2.6,-2.27373675e-13 Z M72.1,0.1 L72.1,2.6 L68.3,2.6 L68.3,12 L65.6,12 L65.6,2.6 L61.8,2.6 L61.8,0.1 L72.1,0.1 Z M34.4,0.1 L34.4,2.6 L30.6,2.6 L30.6,12 L27.9,12 L27.9,2.6 L24.1,2.6 L24.1,0.1 L34.4,0.1 Z M79.8,0.1 C82.6,0.1 83.6,1.2 83.6,4.2 L83.6,12 L75.6,12 C73.5,12 72.4,11 72.4,8.6 L72.4,8 C72.4,5.6 73.4,4.6 75.5,4.6 L81,4.6 L81,4.2 C81,3.1 80.6,2.6 79.6,2.6 L73,2.6 L73,0.1 L79.8,0.1 L79.8,0.1 Z M57.3,0.1 C60.1,0.1 61.1,1.2 61.1,4.2 L61.1,12 L53.1,12 C51,12 49.9,11 49.9,8.6 L49.9,8 C49.9,5.6 50.9,4.6 53,4.6 L58.5,4.6 L58.5,4.2 C58.5,3.1 58.1,2.6 57.1,2.6 L50.5,2.6 L50.5,0.1 L57.3,0.1 Z M23.2,0.1 L23.2,2.6 L19.4,2.6 L19.4,12 L16.7,12 L16.7,2.6 L12.9,2.6 L12.9,0.1 L23.2,0.1 Z M44.9,0.1 C47.6,0.1 48.8,1.1 48.8,4.3 L48.8,7.9 C48.8,10.7 47.9,12 45,12 L37.6,12 L37.6,0.1 C37.7,0.1 44.9,0.1 44.9,0.1 Z M44.7,2.6 L40.3,2.6 L40.3,9.4 L44.7,9.4 C45.7,9.4 46.1,9 46.1,7.8 L46.1,4.1 C46.1,3.1 45.7,2.6 44.7,2.6 Z M80.9,7 L75.8,7 C75.4,7 74.9,7.2 74.9,8.2 C74.9,9.2 75.4,9.4 75.8,9.4 L80.9,9.4 C80.9,9.4 80.9,7 80.9,7 Z M58.5,7 L53.4,7 C53,7 52.5,7.2 52.5,8.2 C52.5,9.2 53,9.4 53.4,9.4 L58.5,9.4 C58.5,9.4 58.5,7 58.5,7 Z" id="Shape"></path>
            </g>
        </g>
    </g>
</svg>