<?xml version="1.0" encoding="UTF-8"?>
<svg width="170px" height="86px" viewBox="0 0 170 86" version="1.1" xmlns="http://www.w3.org/2000/svg" xmlns:xlink="http://www.w3.org/1999/xlink">
    <title>Group 33</title>
    <g id="Page-Carreras-y-Payments" stroke="none" stroke-width="1" fill="none" fill-rule="evenodd">
        <g id="Landing-Carreras" transform="translate(-1033.000000, -2217.000000)">
            <g id="Group-33" transform="translate(1033.000000, 2217.562814)">
                <g id="Group-13-Copy-4">
                    <rect id="Rectangle-Copy-7" x="0" y="0" width="170" height="85" rx="10"></rect>
                </g>
                <g id="Logo_Orbis-Data" transform="translate(42.000000, 19.437186)" fill-rule="nonzero">
                    <path d="M5.66375477,17.4881039 C8.81278443,17.4881039 11.345504,19.8015442 11.345504,23.0403605 C11.345504,26.2791768 8.81728305,28.5926171 5.68174923,28.5926171 C2.54621541,28.5926171 0,26.311565 0,23.0449874 C0,19.7784098 2.52822096,17.4881039 5.66375477,17.4881039 Z M5.66375477,26.3532069 C6.50149499,26.3504263 7.30169521,25.9954325 7.87857969,25.3706416 C8.45546417,24.7458507 8.75885393,23.9056087 8.71831354,23.0449874 C8.77979715,21.8785322 8.20970571,20.7725762 7.23649991,20.1703246 C6.26329411,19.568073 5.04622099,19.568073 4.07301518,20.1703246 C3.09980938,20.7725762 2.52971795,21.8785322 2.59120155,23.0449874 C2.55033166,23.9120475 2.85855706,24.7581304 3.44332903,25.3840887 C4.028101,26.010047 4.8377662,26.3605895 5.68174923,26.3532069 L5.66375477,26.3532069 Z" id="Shape" fill="#000000"></path>
                    <path d="M11.8943349,17.7425823 L14.3595752,17.7425823 L14.3595752,19.5933345 C14.3586013,19.8437353 14.3450875,20.0939183 14.3190877,20.3428892 L14.3595752,20.3428892 C14.8094366,18.8252724 16.0600513,17.6176566 17.6390647,17.6176566 C17.7898436,17.619475 17.9402544,17.6333979 18.0889261,17.6592985 L18.0889261,20.2596053 C17.8876673,20.2313071 17.6847432,20.2173931 17.4816132,20.2179634 C16.1633745,20.2218899 15.0112145,21.1338743 14.6699796,22.4434929 C14.5105418,23.0036632 14.4361878,23.5858019 14.4495475,24.1693193 L14.4495475,28.3705268 L11.8943349,28.3705268 L11.8943349,17.7425823 Z" id="Path" fill="#000000"></path>
                    <path d="M18.3273526,13.5783899 L20.8960611,13.5783899 L20.8960611,18.1358672 C20.8960611,18.6540778 20.8555736,19.0288551 20.8555736,19.0288551 L20.8960611,19.0288551 C21.6108587,18.0134632 22.773366,17.4347531 23.9911074,17.4881039 C26.7802479,17.4881039 28.561699,19.7599022 28.561699,23.0403605 C28.561699,26.4087295 26.5598159,28.5926171 23.8291573,28.5926171 C22.6115409,28.6287377 21.4569072,28.0366962 20.7521055,27.0148508 L20.6936235,27.0148508 C20.7212724,27.2559366 20.7347926,27.498515 20.734111,27.7412711 L20.734111,28.3427656 L18.3273526,28.3427656 L18.3273526,13.5783899 Z M23.3927918,26.3717145 C24.8053565,26.3717145 25.9794947,25.1872331 25.9794947,23.0866293 C25.9794947,21.0693094 24.9268191,19.7599022 23.4107862,19.7599022 C22.0612021,19.7599022 20.8240833,20.7546815 20.8240833,23.1051368 C20.815086,24.7523063 21.6608254,26.3717145 23.3927918,26.3717145 Z" id="Shape" fill="#000000"></path>
                    <path d="M29.1690119,13.5783899 L31.7152273,13.5783899 L31.7152273,15.9288452 L29.1690119,15.9288452 L29.1690119,13.5783899 Z M29.1690119,17.7425823 L31.7377204,17.7425823 L31.7377204,28.3473924 L29.1690119,28.3473924 L29.1690119,17.7425823 Z" id="Shape" fill="#000000"></path>
                    <path d="M33.3527227,25.1872331 C34.1219322,25.9129242 35.1208639,26.3271774 36.1643563,26.3532069 C36.8931318,26.3532069 37.5139405,26.0200715 37.5139405,25.3954427 C37.5139405,23.8130495 32.4979861,24.0073785 32.4979861,20.6112482 C32.4979861,18.6355703 34.2209552,17.4881039 36.4432704,17.4881039 C38.7690537,17.4881039 39.9027044,18.6957197 39.9027044,18.6957197 L38.9579955,20.6528902 C38.2470401,20.0486793 37.3520157,19.7210837 36.4297745,19.7275141 C35.7594811,19.7275141 35.1116807,20.0190075 35.1116807,20.6852783 C35.1116807,22.1843876 40.1276351,21.9946855 40.1276351,25.4093233 C40.1276351,27.1767917 38.6340953,28.5879902 36.1868494,28.5879902 C34.7059551,28.6151274 33.2713446,28.0570483 32.1785845,27.0287315 L33.3527227,25.1872331 Z" id="Path" fill="#000000"></path>
                    <path d="M60.2139457,22.6748369 C59.2927802,22.6607966 58.4148,23.0757407 57.8251818,23.8037958 C57.1784649,24.5730492 56.8350432,25.5633674 56.8624784,26.5799241 C56.8267711,27.4421977 57.1151222,28.2855245 57.6677303,28.9350063 C58.188329,29.5434352 58.9448714,29.8824824 59.732594,29.8603824 C60.6654693,29.8627147 61.5521682,29.443102 62.1573469,28.712916 C62.8303234,27.9558616 63.1957582,26.9624142 63.1785322,25.9367877 C63.2147874,25.0703003 62.9173585,24.224062 62.3507873,23.5817055 C61.8002513,22.9747447 61.020443,22.6437966 60.2139457,22.6748369 L60.2139457,22.6748369 Z" id="Path" fill="#013BA7"></path>
                    <path d="M82.9994246,30.6238176 C82.0291935,31.3869468 80.8467121,31.8101833 79.6254642,31.8314334 C78.3143544,31.8823965 77.0432926,31.3614918 76.1255427,30.3971005 C75.2091334,29.4006998 74.7225182,28.0660602 74.7759586,26.6955961 C74.7103364,25.1007061 75.2638144,23.5443985 76.3144845,22.3694628 C77.3707256,21.2433469 78.8429261,20.632629 80.3632369,20.6899052 C81.0234352,20.683466 81.6832843,20.7236601 82.3381284,20.8102041 C82.9822257,21.1407809 83.556928,21.5982456 84.0296072,22.1566263 L84.2005545,20.6899052 L86,20.6899052 C84.5829567,8.33696631 74.0295256,-0.725326482 61.9589901,0.045749771 C49.8884546,0.816826024 40.5064374,11.1526125 40.5864937,23.5909593 C40.5864937,23.8377262 40.5864937,24.078324 40.5864937,24.3127526 C41.4022124,22.0965889 43.4880129,20.6503382 45.7913899,20.7037859 C46.5033665,20.6795946 47.2108399,20.8286112 47.8562536,21.1387126 C48.5492676,21.5307438 49.1679578,22.0479583 49.6826908,22.6655832 L50.9333054,11.8803247 L53.4750222,11.8803247 L51.0862583,31.8314334 L48.585029,31.8314334 L48.7244861,30.6376983 C48.2394093,31.1087794 47.6890913,31.5032705 47.0914893,31.808299 C46.6416279,31.808299 46.0793011,31.808299 45.4135063,31.808299 C44.0295223,31.8590545 42.6854953,31.325839 41.6931527,30.3323242 C41.6301721,30.262921 41.5671915,30.1981446 41.5087095,30.1287414 C44.2575254,39.813152 52.7228703,46.6021461 62.5248427,46.9831525 C72.3268151,47.3641589 81.2662256,41.2516944 84.7178951,31.808299 L82.8644662,31.808299 L82.9994246,30.6238176 Z M64.9374902,31.8314334 L62.3957734,31.8314334 L62.5487263,30.6238176 C61.5772639,31.3878805 60.3930607,31.811169 59.1702673,31.8314334 C57.8580023,31.8813932 56.5859342,31.3607452 55.6658472,30.3971005 C54.7494379,29.4006998 54.2628227,28.0660602 54.316263,26.6955961 C54.2530724,25.0994056 54.8098484,23.5429268 55.8637862,22.3694628 C56.9200273,21.2433469 58.3922277,20.632629 59.9125386,20.6899052 C60.5727369,20.683466 61.232586,20.7236601 61.88743,20.8102041 C62.5300403,21.141087 63.1032135,21.5985513 63.5744102,22.1566263 L63.7453575,20.6899052 L66.2870743,20.6899052 L64.9374902,31.8314334 Z M74.0741748,23.1005099 L71.7348956,23.1005099 L70.6867186,31.8314334 L68.1405032,31.8314334 L69.1886802,23.1005099 L67.7491238,23.1005099 L68.0370351,20.7037859 L69.4765915,20.7037859 L70.1018988,15.5401872 L72.639117,15.5401872 L72.0183083,20.7037859 L74.3620861,20.7037859 L74.0741748,23.1005099 Z" id="Shape" fill="#013BA7"></path>
                    <path d="M45.8498718,29.8557555 C46.7983381,29.8643853 47.6990366,29.428442 48.2971177,28.6712741 C48.9769007,27.877006 49.3371975,26.8463588 49.3048072,25.7887275 C49.3391186,24.9485798 49.030933,24.13183 48.4545692,23.5354367 C47.8569846,22.9490278 47.0529331,22.6382849 46.2277554,22.6748369 C45.2821336,22.6541471 44.3767488,23.0680136 43.7580164,23.8037958 C43.0950701,24.5915743 42.7463412,25.6080871 42.7818172,26.6493273 C42.748071,27.5054943 43.051342,28.3394999 43.623058,28.9627675 C44.2118467,29.5666791 45.0190241,29.8903701 45.8498718,29.8557555 L45.8498718,29.8557555 Z" id="Path" fill="#013BA7"></path>
                    <path d="M80.6691426,22.6748369 C79.7464101,22.6593903 78.8664938,23.0744678 78.2758801,23.8037958 C77.6279212,24.5725945 77.2829241,25.5628282 77.3086781,26.5799241 C77.2748231,27.441913 77.5629397,28.2845541 78.11393,28.9350063 C78.6345287,29.5434352 79.3910711,29.8824824 80.1787937,29.8603824 C81.1124732,29.8665318 82.0006632,29.4462135 82.6035466,28.712916 C83.2781205,27.9568725 83.6438059,26.9627438 83.6247319,25.9367877 C83.6609871,25.0703003 83.3635582,24.224062 82.796987,23.5817055 C82.2492303,22.9762028 81.4727588,22.6452775 80.6691426,22.6748369 Z" id="Path" fill="#013BA7"></path>
                    <path d="M0.530836428,31.9378517 L1.57451483,31.9378517 C1.79427727,31.9085276 2.01566001,31.9781029 2.18195288,32.1287549 C2.34824575,32.2794068 2.44329311,32.4964994 2.44274729,32.7244214 C2.45042763,32.9999704 2.30580244,33.2562485 2.06936235,33.3860653 L2.06936235,33.3860653 C2.37757649,33.4920475 2.57851141,33.7973036 2.55971125,34.1309931 C2.56005969,34.3833204 2.45552097,34.6237671 2.27244193,34.7917334 C2.08936288,34.9596997 1.8452062,35.0391645 1.60150651,35.0101003 L0.530836428,35.0101003 L0.530836428,31.9378517 Z M1.57451483,33.2333782 C1.82296641,33.2333782 2.02437621,33.0262257 2.02437621,32.7706902 C2.03557562,32.6447981 1.99179028,32.5202992 1.90487737,32.4309082 C1.81796446,32.3415172 1.69691695,32.2964834 1.57451483,32.3080021 L0.949207512,32.3080021 L0.949207512,33.2333782 L1.57451483,33.2333782 Z M1.61950097,34.6214424 C1.75814094,34.6341739 1.8951828,34.5833658 1.99403867,34.4825832 C2.09289453,34.3818006 2.14349952,34.2413045 2.13234294,34.0986049 C2.13505804,33.9595228 2.08128115,33.8255717 1.98395002,33.728978 C1.88661888,33.6323842 1.75454427,33.5818917 1.61950097,33.589648 L0.949207512,33.589648 L0.949207512,34.6399499 L1.61950097,34.6214424 Z" id="Shape" fill="#000000"></path>
                    <path d="M3.91829262,33.7099469 L2.91510174,31.9378517 L3.36496312,31.9378517 L3.91829262,32.9465116 C4.01276351,33.1177062 4.10273578,33.3351696 4.10273578,33.3351696 L4.10273578,33.3351696 C4.10273578,33.3351696 4.18820945,33.1223331 4.28268034,32.9465116 L4.83151122,31.9378517 L5.2813726,31.9378517 L4.3366637,33.7099469 L4.3366637,35.0147272 L3.91829262,35.0147272 L3.91829262,33.7099469 Z" id="Path" fill="#000000"></path>
                    <path d="M8.17398127,31.886956 C8.58464734,31.8792677 8.98057274,32.0443087 9.27015515,32.3438946 C9.55973756,32.6434806 9.71788518,33.051653 9.70800858,33.473976 C9.73879388,34.0588865 9.45290023,34.6134386 8.96488759,34.9154188 C8.47687495,35.2173989 7.86658898,35.2173989 7.37857634,34.9154188 C6.89056371,34.6134386 6.60467005,34.0588865 6.63545535,33.473976 C6.62682301,33.0512193 6.78599461,32.6430853 7.07628108,32.3436491 C7.36656755,32.0442128 7.76292078,31.8793119 8.17398127,31.886956 Z M8.17398127,34.6630843 C8.47347929,34.6558089 8.75789015,34.5264189 8.96460343,34.3033983 C9.1713167,34.0803777 9.28338649,33.7820093 9.27614165,33.473976 C9.30241099,33.0508562 9.0978451,32.647788 8.74530672,32.4280409 C8.39276834,32.2082937 7.95069559,32.2082937 7.59815721,32.4280409 C7.24561883,32.647788 7.04105294,33.0508562 7.06732228,33.473976 C7.06007779,33.7832363 7.17262165,34.0827814 7.38017851,34.3066697 C7.58773537,34.5305579 7.87329027,34.6604355 8.17398127,34.6677112 L8.17398127,34.6630843 Z" id="Shape" fill="#000000"></path>
                    <path d="M10.4232882,31.9378517 L11.3230109,31.9378517 C11.5129852,31.9260418 11.7034736,31.9495522 11.8853377,32.0072549 C12.1925444,32.1688436 12.3828394,32.4969 12.3751736,32.8517003 C12.3675077,33.2065006 12.1632314,33.5255387 11.8493487,33.6729319 L11.8493487,33.6729319 C11.8849134,33.7151111 11.9151444,33.7617505 11.939321,33.8117383 L12.5961186,35.0147272 L12.114767,35.0147272 L11.4804624,33.7886039 L10.8416593,33.7886039 L10.8416593,35.0147272 L10.4232882,35.0147272 L10.4232882,31.9378517 Z M11.4444735,33.4138266 C11.5892753,33.423976 11.731109,33.3682319 11.8324296,33.2613503 C11.9337503,33.1544688 11.9843415,33.0072267 11.9708113,32.8586009 C11.9824336,32.6716573 11.892355,32.4934902 11.7368834,32.3959129 C11.606616,32.3379782 11.4644242,32.3141337 11.3230109,32.3265097 L10.8416593,32.3265097 L10.8416593,33.4277072 L11.4444735,33.4138266 Z" id="Shape" fill="#000000"></path>
                    <path d="M13.243919,31.9378517 L14.2875974,31.9378517 C14.5073599,31.9085276 14.7287426,31.9781029 14.8950355,32.1287549 C15.0613284,32.2794068 15.1563757,32.4964994 15.1558299,32.7244214 C15.1633349,32.9986934 15.0208861,33.2541933 14.7869436,33.3860653 L14.7869436,33.3860653 C15.1030029,33.4871068 15.3122587,33.7956555 15.2952869,34.1356199 C15.2957896,34.3888552 15.1906442,34.630145 15.0065255,34.7982759 C14.8224067,34.9664067 14.5770074,35.0452221 14.3325836,35.0147272 L13.243919,35.0147272 L13.243919,31.9378517 Z M14.2875974,33.2333782 C14.4091963,33.241652 14.5283541,33.195568 14.6145255,33.1069398 C14.7006968,33.0183115 14.7455032,32.8957561 14.7374588,32.7706902 C14.7503459,32.6443778 14.7071085,32.5188313 14.6197914,32.4290245 C14.5324743,32.3392178 14.4104082,32.2947476 14.2875974,32.3080021 L13.6622901,32.3080021 L13.6622901,33.2333782 L14.2875974,33.2333782 Z M14.3370822,34.6214424 C14.4712937,34.6306428 14.603041,34.5811163 14.6998514,34.4850702 C14.7966619,34.3890241 14.8495302,34.2553924 14.8454255,34.1171124 C14.8534758,33.9740233 14.8013995,33.8342675 14.7024312,33.7333625 C14.6034629,33.6324574 14.4671317,33.5801189 14.328085,33.589648 L13.6622901,33.589648 L13.6622901,34.6399499 L14.3370822,34.6214424 Z" id="Shape" fill="#000000"></path>
                    <polygon id="Path" fill="#000000" points="16.0330596 31.9378517 16.4514307 31.9378517 16.4514307 35.0147272 16.0330596 35.0147272"></polygon>
                    <path d="M17.3826437,34.3345758 C17.5891131,34.535018 17.8592054,34.6517241 18.1429095,34.6630843 C18.2734018,34.6834555 18.4060089,34.643859 18.505607,34.5547826 C18.605205,34.4657062 18.6617446,34.3361378 18.66025,34.2003963 C18.66025,33.5341255 17.2116964,33.6821856 17.2116964,32.7336751 C17.2289367,32.4879872 17.3407058,32.259508 17.5222481,32.0988432 C17.7037904,31.9381784 17.9401221,31.8585887 18.1788984,31.8777023 C18.4888189,31.8670832 18.7911003,31.9778827 19.0246378,32.1877032 L18.8311974,32.543973 C18.6504501,32.3796776 18.4199504,32.2848488 18.1788984,32.275614 C18.0465564,32.2601343 17.913786,32.3006927 17.8111158,32.3879634 C17.7084457,32.4752341 17.6447108,32.6017072 17.6345661,32.738302 C17.6345661,33.3768115 19.0831197,33.2009901 19.0831197,34.2050231 C19.078036,34.4526411 18.9726775,34.6868344 18.7924605,34.8511067 C18.6122436,35.015379 18.3735321,35.0948143 18.1339122,35.0702498 C17.7646081,35.0746714 17.4086795,34.9282405 17.1442172,34.6630843 L17.3826437,34.3345758 Z" id="Path" fill="#000000"></path>
                    <path d="M22.0746979,31.886956 C22.4692154,31.8705193 22.8561027,32.0020626 23.1633625,32.2571065 L22.9519276,32.5763612 C22.7088984,32.3855457 22.4119353,32.2815695 22.1061882,32.2802409 C21.4651832,32.2802409 20.9455459,32.8146943 20.9455459,33.473976 C20.9455459,34.1332577 21.4651832,34.6677112 22.1061882,34.6677112 C22.4231518,34.6569599 22.7234567,34.519132 22.9429304,34.2836801 L22.9429304,33.8209921 L22.4435842,33.8209921 L22.4435842,33.473976 L23.3118167,33.473976 L23.3118167,35.0193541 L22.9429304,35.0193541 L22.9429304,34.8250251 C22.9429304,34.7602488 22.9429304,34.6954725 22.9429304,34.6954725 L22.9429304,34.6954725 C22.7018395,34.9360136 22.3790964,35.0704514 22.0432076,35.0702498 C21.6355428,35.0745705 21.2441981,34.9057471 20.961508,34.603612 C20.6788178,34.3014768 20.5298195,33.8927895 20.5496678,33.473976 C20.5385839,33.0529046 20.6950963,32.6454261 20.9829874,32.3458328 C21.2708784,32.0462395 21.6651977,31.8804959 22.0746979,31.886956 Z" id="Path" fill="#000000"></path>
                    <path d="M24.0720824,31.9378517 L24.9718052,31.9378517 C25.1602928,31.9262971 25.3492613,31.949808 25.5296333,32.0072549 C25.83684,32.1688436 26.0271351,32.4969 26.0194692,32.8517003 C26.0118033,33.2065006 25.8075271,33.5255387 25.4936444,33.6729319 L25.4936444,33.6729319 C25.5292091,33.7151111 25.5594401,33.7617505 25.5836167,33.8117383 L26.2179212,35.0054735 L25.7680598,35.0054735 L25.1382539,33.7793501 L24.4904535,33.7793501 L24.4904535,35.0054735 L24.0720824,35.0054735 L24.0720824,31.9378517 Z M25.0932678,33.4138266 C25.331544,33.4070666 25.5383355,33.2428913 25.6050388,33.0075227 C25.6717421,32.7721541 25.5831048,32.519412 25.3856777,32.3820322 C25.2568856,32.3244838 25.1162404,32.3006395 24.9763038,32.312629 L24.4904535,32.312629 L24.4904535,33.4138266 L25.0932678,33.4138266 Z" id="Shape" fill="#000000"></path>
                    <path d="M28.2288016,31.886956 C28.6386937,31.8805416 29.033439,32.0461446 29.3220341,32.3455872 C29.6106291,32.6450299 29.7681673,33.0524695 29.7583303,33.473976 C29.7583303,34.3453523 29.0715229,35.0517423 28.224303,35.0517423 C27.3770831,35.0517423 26.6902757,34.3453523 26.6902757,33.473976 C26.6816433,33.0512193 26.8408149,32.6430853 27.1311014,32.3436491 C27.4213879,32.0442128 27.8177411,31.8793119 28.2288016,31.886956 L28.2288016,31.886956 Z M28.2288016,34.6630843 C28.8507193,34.6454274 29.3415725,34.1136811 29.3264634,33.473976 C29.3264634,32.8479139 28.8330093,32.3403903 28.224303,32.3403903 C27.6155966,32.3403903 27.1221426,32.8479139 27.1221426,33.473976 C27.1148981,33.7832363 27.227442,34.0827814 27.4349988,34.3066697 C27.6425557,34.5305579 27.9281106,34.6604355 28.2288016,34.6677112 L28.2288016,34.6630843 Z" id="Shape" fill="#000000"></path>
                    <path d="M30.4331224,31.9378517 L30.8514934,31.9378517 L30.8514934,33.9366641 C30.8514934,34.3736299 31.1959042,34.7278606 31.6207564,34.7278606 C32.0456086,34.7278606 32.3900194,34.3736299 32.3900194,33.9366641 L32.3900194,31.9378517 L32.8083904,31.9378517 L32.8083904,33.9366641 C32.7699395,34.5758767 32.2546836,35.0740499 31.6320029,35.0740499 C31.0093223,35.0740499 30.4940664,34.5758767 30.4556154,33.9366641 L30.4331224,31.9378517 Z" id="Path" fill="#000000"></path>
                    <path d="M33.6631271,31.9378517 L34.7562902,31.9378517 C35.0082262,31.9259604 35.2534484,32.0233704 35.4322087,32.2063479 C35.6109691,32.3893254 35.7068537,32.6410694 35.6965005,32.9002428 C35.7107839,33.1617656 35.6166381,33.4172632 35.4374163,33.6033591 C35.2581944,33.789455 35.0106875,33.888714 34.7562902,33.8765146 L34.0814981,33.8765146 L34.0814981,35.0147272 L33.6631271,35.0147272 L33.6631271,31.9378517 Z M34.688811,33.5017373 C34.8470246,33.5145906 35.0027218,33.4551876 35.11451,33.3393207 C35.2262982,33.2234539 35.2828505,33.0628634 35.2691322,32.9002428 C35.2832978,32.7395449 35.2270269,32.5807243 35.115659,32.4670759 C35.0042912,32.3534275 34.8494368,32.2967996 34.6933096,32.312629 L34.0814981,32.312629 L34.0814981,33.5017373 L34.688811,33.5017373 Z" id="Shape" fill="#000000"></path>
                </g>
            </g>
        </g>
    </g>
</svg>