<?xml version="1.0" encoding="UTF-8"?>
<svg width="170px" height="85px" viewBox="0 0 170 85" version="1.1" xmlns="http://www.w3.org/2000/svg" xmlns:xlink="http://www.w3.org/1999/xlink">
    <title>Group 72</title>
    <defs>
        <polygon id="path-1" points="0 0 42.4720465 0 42.4720465 23.9999522 0 23.9999522"></polygon>
        <polygon id="path-3" points="0 24 124 24 124 0 0 0"></polygon>
    </defs>
    <g id="Page-Carreras-y-Payments" stroke="none" stroke-width="1" fill="none" fill-rule="evenodd">
        <g id="Group-72">
            <g id="Group-13-Copy-4">
                <rect id="Rectangle-Copy-7" x="0" y="0" width="170" height="85" rx="10"></rect>
            </g>
            <g id="Group-19" transform="translate(23.000000, 31.000000)">
                <g id="Group-3" transform="translate(0.000119, 0.000048)">
                    <mask id="mask-2" fill="white">
                        <use xlink:href="#path-1"></use>
                    </mask>
                    <g id="Clip-2"></g>
                    <path d="M38.5457059,10.8648729 C37.748947,9.88634395 37.0350453,9.21479977 36.4040008,8.85024039 C35.7834025,8.47540837 35.0538315,8.2881118 34.2157627,8.2881118 C32.9019177,8.2881118 31.8102915,8.75157524 30.9413589,9.67802431 C30.072189,10.6047123 29.6374853,11.7655209 29.6374853,13.1604503 C29.6374853,14.5869143 30.0567571,15.7582345 30.8945885,16.6741721 C31.7428661,17.5905874 32.8240461,18.0485562 34.138366,18.0485562 C34.9761974,18.0485562 35.7159771,17.8665154 36.3574678,17.501956 C36.9783035,17.148147 37.707637,16.4608355 38.5457059,15.4404993 L38.5457059,20.0787171 C37.1281113,20.8176307 35.7107541,21.1874459 34.2933968,21.1874459 C31.9551136,21.1874459 29.9995405,20.4275092 28.4271524,18.9073969 C26.8542895,17.377012 26.0682142,15.4770508 26.0682142,13.2072745 C26.0682142,10.937737 26.8647357,9.02200854 28.4582536,7.46032789 C30.0512966,5.89888613 32.0066323,5.11792636 34.324498,5.11792636 C35.8142662,5.11792636 37.2211773,5.47722997 38.5457059,6.19535939 L38.5457059,10.8648729 Z M9.78427558,0 L9.78427558,5.53958252 L16.2193622,5.53958252 L16.7756215,5.53958252 L19.711474,5.53958252 L19.711474,6.8981993 C20.3527272,6.22163825 20.9218068,5.75817481 21.4184753,5.5082868 C21.9253527,5.24812614 22.5255334,5.11792636 23.2187802,5.11792636 C24.1394688,5.11792636 25.1017048,5.41989429 26.1052507,6.02359124 L24.5067471,9.24083973 C23.8446015,8.76184788 23.1978878,8.52223251 22.5668433,8.52223251 C20.6630263,8.52223251 19.711474,9.96948069 19.711474,12.8637382 L19.711474,20.7500224 L16.2193622,20.7500224 L16.2193622,8.81918356 L9.78427558,8.81918356 L9.78427558,20.7500224 L6.29240124,20.7500224 L6.29240124,8.81918356 L2.36606062,8.81918356 L2.36606062,5.53958252 L6.29240124,5.53958252 L6.29240124,0 L0,0 L0,24 L42.4720465,24 L42.4720465,0 L9.78427558,0 Z" id="Fill-1" fill="#133077" mask="url(#mask-2)"></path>
                </g>
                <path d="M53.3038369,10.4554723 L53.916838,10.4554723 C55.7453949,10.4554723 56.6596734,9.75239347 56.6596734,8.34599695 C56.6596734,7.02870965 55.7700859,6.370066 53.9916231,6.370066 L53.3038369,6.370066 L53.3038369,10.4554723 Z M55.7066966,11.9313883 L59.6674621,17.4176964 L57.3059124,17.4176964 L53.6518848,12.1480694 L53.3038369,12.1480694 L53.3038369,17.4176964 L51.3731922,17.4176964 L51.3731922,4.54392451 L53.6352658,4.54392451 C55.3256483,4.54392451 56.5464273,4.86380984 57.2976029,5.5028638 C58.1261752,6.21430406 58.5404613,7.15365366 58.5404613,8.32091259 C58.5404613,9.23278884 58.2809686,10.0166154 57.7617458,10.6723923 C57.242523,11.328408 56.5573483,11.7479141 55.7066966,11.9313883 L55.7066966,11.9313883 Z" id="Fill-4" fill="#133077"></path>
                <path d="M66.3956829,12.264867 C66.1359528,11.2643593 65.5091818,10.7641055 64.514895,10.7641055 C64.2881653,10.7641055 64.0756805,10.7987458 63.8767281,10.8682653 C63.6777758,10.9377848 63.4968669,11.0378834 63.3340014,11.168322 C63.1711359,11.2992385 63.0315369,11.4561949 62.9156792,11.6394302 C62.7995841,11.8229044 62.711029,12.031463 62.6504886,12.264867 L66.3956829,12.264867 Z M68.3097087,13.7988354 L62.5260841,13.7988354 C62.5759408,14.4660794 62.7912747,14.9969122 63.172323,15.3915728 C63.5536087,15.7807388 64.0424426,15.9752023 64.6390621,15.9752023 C65.1032051,15.9752023 65.4868649,15.8641144 65.7907539,15.6416998 C66.0891824,15.4192851 66.4289208,15.0079016 66.8099691,14.4075492 L68.3842564,15.2914743 C68.1411453,15.7083525 67.8842641,16.065506 67.6138504,16.3629349 C67.3429618,16.6603637 67.0530802,16.9047571 66.7437308,17.0965927 C66.4343813,17.2884283 66.1001034,17.4286619 65.7411345,17.5177711 C65.3819283,17.6064025 64.9925705,17.6510765 64.5728238,17.6510765 C63.3684263,17.6510765 62.4019169,17.2619106 61.6728208,16.4838176 C60.9434872,15.699991 60.5788204,14.6605429 60.5788204,13.3654732 C60.5788204,12.0813928 60.9323288,11.0419446 61.6395829,10.2471287 C62.3522975,9.46330218 63.2967275,9.07150835 64.4733477,9.07150835 C65.6608888,9.07150835 66.6000957,9.45231284 67.2907309,10.2136829 C67.9754308,10.9697972 68.3180181,12.0176068 68.3180181,13.3571117 L68.3097087,13.7988354 Z" id="Fill-6" fill="#133077"></path>
                <path d="M76.6288358,9.64680025 L76.6288358,12.1397079 C76.2033912,11.6172365 75.8223429,11.2588885 75.4854535,11.0641861 C75.1540245,10.8642279 74.7646668,10.7641294 74.3171428,10.7641294 C73.6155866,10.7641294 73.032737,11.0113895 72.5688315,11.5061487 C72.1046885,12.0009078 71.8727358,12.620611 71.8727358,13.3654971 C71.8727358,14.127106 72.0963791,14.7523039 72.5439031,15.2415684 C72.9968876,15.730594 73.5740392,15.9752262 74.2755954,15.9752262 C74.7231195,15.9752262 75.1179377,15.8779944 75.4605251,15.683292 C75.791954,15.4943232 76.1813117,15.1276137 76.6288358,14.5826858 L76.6288358,17.0591095 C75.8719623,17.4537701 75.1153262,17.6511004 74.3584527,17.6511004 C73.1101337,17.6511004 72.0659902,17.2454505 71.2264969,16.4336728 C70.3867661,15.6166393 69.9667821,14.6022755 69.9667821,13.3903425 C69.9667821,12.1786484 70.3922266,11.1559232 71.2431158,10.3221668 C72.0935301,9.48841043 73.1376737,9.07153224 74.3750716,9.07153224 C75.1706435,9.07153224 75.921819,9.26336787 76.6288358,9.64680025" id="Fill-8" fill="#133077"></path>
                <path d="M78.4350996,9.29652701 L80.299506,9.29652701 L80.299506,10.0218234 C80.641856,9.66060859 80.9457449,9.41334846 81.2109356,9.2798041 C81.4815867,9.14100397 81.8020946,9.07148446 82.1719845,9.07148446 C82.6636673,9.07148446 83.1774297,9.23274106 83.7132714,9.55501538 L82.8597707,11.2726969 C82.5062623,11.0170753 82.1610635,10.8890256 81.824174,10.8890256 C80.8075704,10.8890256 80.299506,11.6618628 80.299506,13.2070595 L80.299506,17.4176486 L78.4350996,17.4176486 L78.4350996,9.29652701 Z" id="Fill-10" fill="#133077"></path>
                <path d="M86.9035359,9.29652701 L86.9035359,13.9574402 C86.9035359,15.3026787 87.4310682,15.9751784 88.4861328,15.9751784 C89.5411973,15.9751784 90.068967,15.3026787 90.068967,13.9574402 L90.068967,9.29652701 L91.933136,9.29652701 L91.933136,13.9990086 C91.933136,14.6492908 91.8528903,15.2109416 91.6928738,15.6832442 C91.5383177,16.105856 91.2702782,16.4866605 90.8889924,16.8256577 C90.2593725,17.3758414 89.4583401,17.6510526 88.4861328,17.6510526 C87.5193859,17.6510526 86.7212025,17.3758414 86.0915826,16.8256577 C85.7048363,16.4866605 85.4313363,16.105856 85.2713197,15.6832442 C85.1165263,15.3053065 85.0391295,14.7438946 85.0391295,13.9990086 L85.0391295,9.29652701 L86.9035359,9.29652701 Z" id="Fill-12" fill="#133077"></path>
                <mask id="mask-4" fill="white">
                    <use xlink:href="#path-3"></use>
                </mask>
                <g id="Clip-15"></g>
                <path d="M94.2860677,17.4176247 L96.1504741,17.4176247 L96.1504741,9.29650312 L94.2860677,9.29650312 L94.2860677,17.4176247 Z M94.0044955,5.91967032 C94.0044955,5.59166244 94.1232022,5.30832861 94.3608528,5.06942993 C94.5980287,4.83029235 94.8826872,4.71084301 95.2141161,4.71084301 C95.551243,4.71084301 95.8382756,4.83029235 96.0761637,5.06942993 C96.3133396,5.30283394 96.4322836,5.58903455 96.4322836,5.92803177 C96.4322836,6.2672679 96.3133396,6.55633529 96.0761637,6.79523397 C95.8439735,7.03437155 95.559315,7.15358199 95.2224256,7.15358199 C94.8855362,7.15358199 94.5980287,7.03437155 94.3608528,6.79523397 C94.1232022,6.55633529 94.0044955,6.26440111 94.0044955,5.91967032 L94.0044955,5.91967032 Z" id="Fill-14" fill="#133077" mask="url(#mask-4)"></path>
                <polygon id="Fill-16" fill="#133077" mask="url(#mask-4)" points="100.43443 11.0475349 100.43443 17.4175292 98.5700239 17.4175292 98.5700239 11.0475349 97.774452 11.0475349 97.774452 9.29664646 98.5700239 9.29664646 98.5700239 6.31996894 100.43443 6.31996894 100.43443 9.29664646 101.884313 9.29664646 101.884313 11.0475349"></polygon>
                <path d="M103.152147,9.29652701 L105.016554,9.29652701 L105.016554,10.0469078 C105.375523,9.66897005 105.682261,9.41334846 105.936293,9.2798041 C106.206944,9.14100397 106.546682,9.07148446 106.955508,9.07148446 C107.866938,9.07148446 108.587724,9.47163974 109.118105,10.2719503 C109.703567,9.47163974 110.496289,9.07148446 111.496274,9.07148446 C113.313435,9.07148446 114.222253,10.1804521 114.222253,12.3981485 L114.222253,17.4176486 L112.349775,17.4176486 L112.349775,12.9067638 C112.349775,12.1286708 112.255522,11.5784872 112.067965,11.255974 C111.874473,10.9279661 111.556815,10.7640816 111.114988,10.7640816 C110.601464,10.7640816 110.227063,10.9585451 109.992261,11.3477111 C109.757222,11.736877 109.640177,12.3620748 109.640177,13.2235435 L109.640177,17.4176486 L107.767461,17.4176486 L107.767461,12.9318482 C107.767461,11.4865112 107.353175,10.7640816 106.524365,10.7640816 C105.999682,10.7640816 105.617209,10.9614119 105.376947,11.3560725 C105.136685,11.7507331 105.016554,12.3733031 105.016554,13.2235435 L105.016554,17.4176486 L103.152147,17.4176486 L103.152147,9.29652701 Z" id="Fill-17" fill="#133077" mask="url(#mask-4)"></path>
                <path d="M122.011189,12.264867 C121.751696,11.2643593 121.124688,10.7641055 120.130401,10.7641055 C119.903671,10.7641055 119.691187,10.7987458 119.492472,10.8682653 C119.293519,10.9377848 119.112373,11.0378834 118.949508,11.168322 C118.786405,11.2992385 118.64728,11.4561949 118.531185,11.6394302 C118.41509,11.8229044 118.326535,12.031463 118.265995,12.264867 L122.011189,12.264867 Z M123.925215,13.7988354 L118.141828,13.7988354 C118.191447,14.4660794 118.406781,14.9969122 118.788067,15.3915728 C119.169115,15.7807388 119.658186,15.9752023 120.254806,15.9752023 C120.718711,15.9752023 121.102608,15.8641144 121.406497,15.6416998 C121.704689,15.4192851 122.044427,15.0079016 122.425475,14.4075492 L124,15.2914743 C123.756651,15.7083525 123.500008,16.065506 123.229357,16.3629349 C122.958705,16.6603637 122.668586,16.9047571 122.359237,17.0965927 C122.049887,17.2884283 121.71561,17.4286619 121.356641,17.5177711 C120.997434,17.6064025 120.608077,17.6510765 120.18833,17.6510765 C118.983932,17.6510765 118.017423,17.2619106 117.288327,16.4838176 C116.558993,15.699991 116.194564,14.6605429 116.194564,13.3654732 C116.194564,12.0813928 116.547835,11.0419446 117.255089,10.2471287 C117.967804,9.46330218 118.912234,9.07150835 120.088854,9.07150835 C121.276395,9.07150835 122.215602,9.45231284 122.906,10.2136829 C123.590937,10.9697972 123.933524,12.0176068 123.933524,13.3571117 L123.925215,13.7988354 Z" id="Fill-18" fill="#133077" mask="url(#mask-4)"></path>
            </g>
        </g>
    </g>
</svg>