<?xml version="1.0" encoding="UTF-8"?>
<svg width="205px" height="86px" viewBox="0 0 205 86" version="1.1" xmlns="http://www.w3.org/2000/svg" xmlns:xlink="http://www.w3.org/1999/xlink">
    <title>Group 12</title>
    <g id="Page-Carreras-y-Payments" stroke="none" stroke-width="1" fill="none" fill-rule="evenodd">
        <g id="Landing-Carreras" transform="translate(-253.000000, -2217.000000)">
            <g id="Group-12" transform="translate(253.000000, 2217.562814)">
                <rect id="Rectangle-Copy-7" x="0" y="0" width="205" height="85" rx="10"></rect>
                <g id="Group-Copy-4" transform="translate(32.000000, 33.437186)" fill="#F32525">
                    <path d="M5.10144928,11.884984 C4.30434783,10.658147 4.14492754,9.04792332 4.14492754,7.82108626 C4.14492754,3.60383387 8.05072464,0 12.1956522,0 L25.1086957,0 L20.0869565,4.83067093 L12.115942,4.83067093 C8.84782609,4.83067093 4.94202899,7.89776358 5.10144928,11.884984 L5.10144928,11.884984 Z M9.96376812,8.43450479 C10.2826087,7.43769968 11.3188406,6.1341853 12.2753623,5.44408946 C10.442029,5.44408946 8.28985507,6.28753994 6.69565217,8.43450479 L9.96376812,8.43450479 L9.96376812,8.43450479 Z M12.5942029,5.98083067 C11.8768116,6.5942492 11.0797101,7.514377 10.6811594,8.35782748 L14.5869565,8.35782748 C14.1086957,7.59105431 13.2318841,6.5942492 12.5942029,5.98083067 L12.5942029,5.98083067 Z M6.45652174,9.04792332 C5.97826087,9.8913738 5.73913043,10.8115016 5.65942029,11.7316294 L9.24637681,11.7316294 C9.24637681,10.8115016 9.4057971,9.8913738 9.72463768,9.04792332 L6.45652174,9.04792332 L6.45652174,9.04792332 Z M10.3623188,9.04792332 C10.0434783,9.8913738 9.88405797,10.8115016 9.80434783,11.7316294 L15.3043478,11.7316294 C15.2246377,10.8115016 15.0652174,9.8913738 14.7463768,9.04792332 L10.3623188,9.04792332 L10.3623188,9.04792332 Z M18.2536232,8.43450479 C16.7391304,6.28753994 14.5869565,5.44408946 12.7536232,5.44408946 C13.7101449,6.1341853 14.6666667,7.43769968 15.0652174,8.43450479 L18.2536232,8.43450479 L18.2536232,8.43450479 Z M15.384058,9.04792332 C15.7028986,9.8913738 15.8623188,10.8115016 15.8623188,11.7316294 L19.4492754,11.7316294 C19.3695652,10.8115016 19.1304348,9.8913738 18.6521739,9.04792332 L15.384058,9.04792332 L15.384058,9.04792332 Z M6.77536232,15.5654952 C8.36956522,17.7891374 10.442029,18.5559105 12.3550725,18.5559105 C11.3985507,17.8658147 10.3623188,16.5623003 10.0434783,15.5654952 L6.77536232,15.5654952 L6.77536232,15.5654952 Z M12.5942029,18.0191693 C13.3115942,17.4057508 14.1086957,16.4089457 14.5072464,15.5654952 L10.6014493,15.5654952 C11,16.4089457 11.7971014,17.4057508 12.5942029,18.0191693 L12.5942029,18.0191693 Z M9.72463768,15.028754 C9.4057971,14.1086262 9.24637681,13.1884984 9.24637681,12.3450479 L5.65942029,12.3450479 C5.73913043,13.2651757 5.97826087,14.1853035 6.45652174,15.028754 L9.72463768,15.028754 L9.72463768,15.028754 Z M14.7463768,15.028754 C15.0652174,14.1853035 15.2246377,13.2651757 15.3043478,12.3450479 L9.80434783,12.3450479 C9.88405797,13.2651757 10.0434783,14.1853035 10.3623188,15.028754 L14.7463768,15.028754 L14.7463768,15.028754 Z M15.1449275,15.5654952 C14.7463768,16.5623003 13.7898551,17.8658147 12.8333333,18.5559105 C14.6666667,18.5559105 16.7391304,17.7891374 18.3333333,15.5654952 L15.1449275,15.5654952 L15.1449275,15.5654952 Z M18.6521739,15.028754 C19.1304348,14.1853035 19.3695652,13.2651757 19.4492754,12.3450479 L15.8623188,12.3450479 C15.8623188,13.1884984 15.7028986,14.1086262 15.384058,15.028754 L18.6521739,15.028754 L18.6521739,15.028754 Z M20.0072464,11.9616613 C20.0869565,16.1022364 16.2608696,19.1693291 12.9927536,19.1693291 L5.02173913,19.1693291 L0,24 L12.9130435,24 C17.057971,24 20.9637681,20.4728435 20.9637681,16.1789137 C20.9637681,14.9520767 20.8043478,13.341853 20.0072464,12.0383387 L20.0072464,11.9616613 L20.0072464,11.9616613 Z" id="Shape"></path>
                    <path d="M57.0899611,17.25 C53.7124426,17.25 51.2999293,15.265873 51.2999293,12.0912698 C51.2999293,8.99603175 53.7928597,6.93253968 57.0899611,6.93253968 C60.3870626,6.93253968 62.8799929,8.99603175 62.8799929,12.0912698 C62.8799929,15.265873 60.4674797,17.25 57.0899611,17.25 L57.0899611,17.25 Z M114.829445,7.17063492 L114.829445,17.0119048 L111.451926,17.0119048 L111.371509,15.9801587 L111.291092,15.9801587 C110.889007,16.297619 110.165253,17.1706349 107.993991,17.1706349 C105.581478,17.1706349 103.490633,15.1071429 103.490633,12.0119048 C103.490633,9.1547619 105.340226,6.8531746 108.235242,6.8531746 C110.165253,6.8531746 110.969424,7.72619048 111.291092,7.96428571 L111.371509,7.96428571 L111.371509,7.09126984 L114.829445,7.09126984 L114.829445,7.17063492 Z M88.7743019,7.17063492 L88.7743019,17.0119048 L85.3967833,17.0119048 L85.3163662,15.9801587 L85.2359491,15.9801587 C84.8338636,16.297619 84.1101096,17.1706349 81.9388476,17.1706349 C79.5263344,17.1706349 77.4354896,15.1071429 77.4354896,12.0119048 C77.4354896,9.1547619 79.2850831,6.8531746 82.180099,6.8531746 C84.1101096,6.8531746 84.9142807,7.72619048 85.2359491,7.96428571 L85.3163662,7.96428571 L85.3163662,7.09126984 L88.7743019,7.09126984 L88.7743019,7.17063492 Z M72.4496288,7.17063492 L75.9075645,7.17063492 L75.9075645,17.0119048 L72.4496288,17.0119048 L72.4496288,7.17063492 L72.4496288,7.17063492 Z M91.0259809,17.0119048 L91.0259809,3.12301587 L94.4839166,3.12301587 L94.4839166,7.88492063 L94.4839166,7.88492063 C94.7251679,7.72619048 95.8510074,6.93253968 97.4593496,6.93253968 C100.193531,6.93253968 102.123542,9.07539683 102.123542,11.9325397 C102.123542,15.5039683 99.95228,17.25 97.4593496,17.25 C95.529339,17.25 94.6447508,16.3769841 94.4034995,16.1388889 L94.4034995,16.1388889 L94.3230824,17.0119048 L91.0259809,17.0119048 L91.0259809,17.0119048 Z M57.0899611,14.7896825 C58.5374691,14.7896825 59.3416402,13.5992063 59.3416402,12.0912698 C59.3416402,10.5833333 58.5374691,9.39285714 57.0899611,9.39285714 C55.5620361,9.39285714 54.8382821,10.5833333 54.8382821,12.0912698 C54.8382821,13.5198413 55.6424532,14.7896825 57.0899611,14.7896825 L57.0899611,14.7896825 Z M70.7608696,14.3134921 C70.6000353,14.3928571 70.1175327,14.4722222 69.7958643,14.4722222 C69.0721103,14.4722222 68.3483563,14.1547619 68.3483563,12.9642857 L68.3483563,9.63095238 L70.5196182,9.63095238 L70.5196182,7.17063492 L68.3483563,7.17063492 L68.3483563,3.99603175 L64.8904206,3.99603175 L64.8904206,7.17063492 L63.3624956,7.17063492 L63.3624956,9.63095238 L64.8904206,9.63095238 L64.8904206,13.5198413 C64.8904206,15.6626984 65.9358431,17.1706349 68.4287734,17.1706349 C69.1525274,17.1706349 69.8762814,17.0912698 70.358784,17.0119048 L70.7608696,14.3134921 L70.7608696,14.3134921 Z M31.3564864,16.6944444 C32.3214917,17.0119048 33.7689996,17.25 35.3773418,17.25 C38.3527748,17.25 41.3282078,16.218254 41.3282078,13.0436508 C41.3282078,8.67857143 35.2165076,9.23412698 35.2165076,7.48809524 C35.2165076,6.61507937 36.1815129,6.37698413 37.0661011,6.37698413 C38.3527748,6.37698413 39.961117,7.01190476 40.3632025,7.09126984 L40.5240368,4.07539683 C39.6394486,3.75793651 38.2723577,3.59920635 36.985684,3.59920635 C34.0906681,3.59920635 31.1956522,4.71031746 31.1956522,7.56746032 C31.1956522,11.8531746 37.3073524,10.9801587 37.3073524,13.281746 C37.3073524,14.1547619 36.4227642,14.4722222 35.2969247,14.4722222 C33.7689996,14.4722222 32.3214917,13.6785714 31.6781548,13.4404762 L31.3564864,16.6944444 L31.3564864,16.6944444 Z M107.18982,12.0119048 C107.18982,13.6785714 108.074408,14.6309524 109.280665,14.6309524 C110.326087,14.6309524 111.451926,13.5992063 111.451926,12.0912698 C111.451926,10.5833333 110.486921,9.5515873 109.280665,9.5515873 C107.993991,9.5515873 107.18982,10.6626984 107.18982,12.0119048 L107.18982,12.0119048 Z M81.1346766,12.0119048 C81.1346766,13.5992063 82.0192648,14.6309524 83.2255214,14.6309524 C84.2709438,14.6309524 85.3967833,13.5992063 85.3967833,12.0912698 C85.3967833,10.5833333 84.431778,9.5515873 83.2255214,9.5515873 C82.0192648,9.5515873 81.1346766,10.6626984 81.1346766,12.0119048 L81.1346766,12.0119048 Z M50.4153411,7.32936508 C50.1740898,7.25 49.2090845,6.93253968 47.9224107,6.93253968 C44.7861435,6.93253968 42.4540474,8.83730159 42.4540474,12.0912698 C42.4540474,15.0277778 44.5448922,17.25 47.7615765,17.25 C49.1286674,17.25 50.1740898,16.8531746 50.334924,16.8531746 L50.1740898,13.9960317 C49.9328385,14.1547619 49.2090845,14.4722222 48.4049134,14.4722222 C47.0378226,14.4722222 45.9924001,13.5198413 45.9924001,12.0912698 C45.9924001,10.6626984 47.1182397,9.71031746 48.4853305,9.71031746 C49.2895016,9.71031746 49.9328385,10.0277778 50.1740898,10.1865079 L50.4153411,7.32936508 L50.4153411,7.32936508 Z M129.626193,17.0119048 L133.084129,17.0119048 L133.084129,12.4880952 L133.084129,12.4880952 L136.139979,17.0119048 L140,17.0119048 L136.300813,11.7738095 L139.919583,7.17063492 L136.059562,7.17063492 L133.084129,11.218254 L133.084129,11.218254 L133.084129,3.12301587 L129.626193,3.12301587 L129.626193,17.0119048 L129.626193,17.0119048 Z M117.081124,17.0119048 L120.458643,17.0119048 L120.458643,11.9325397 C120.458643,10.7420635 121.262814,9.9484127 122.308236,9.9484127 C123.514493,9.9484127 124.15783,10.6626984 124.15783,11.9325397 L124.15783,17.0119048 L127.535348,17.0119048 L127.535348,11.0595238 C127.535348,8.83730159 126.08784,6.93253968 123.434076,6.93253968 C121.664899,6.93253968 120.699894,7.88492063 120.297808,8.28174603 L120.136974,8.28174603 L120.136974,7.17063492 L117.081124,7.17063492 L117.081124,17.0119048 L117.081124,17.0119048 Z M74.2188052,2.25 C73.1733828,2.25 72.2887946,3.12301587 72.2887946,4.1547619 C72.2887946,5.18650794 73.1733828,6.05952381 74.2188052,6.05952381 C75.2642276,6.05952381 76.1488158,5.18650794 76.1488158,4.1547619 C76.1488158,3.04365079 75.2642276,2.25 74.2188052,2.25 L74.2188052,2.25 Z M98.6656062,12.0912698 C98.6656062,10.7420635 97.9418522,9.63095238 96.5747614,9.63095238 C95.3685048,9.63095238 94.4839166,10.5833333 94.4839166,12.0912698 C94.4839166,13.5198413 95.2880877,14.5515873 96.5747614,14.5515873 C97.781018,14.6309524 98.6656062,13.5992063 98.6656062,12.0912698 L98.6656062,12.0912698 Z" id="Shape"></path>
                </g>
            </g>
        </g>
    </g>
</svg>