<?xml version="1.0" encoding="UTF-8"?>
<svg width="170px" height="85px" viewBox="0 0 170 85" version="1.1" xmlns="http://www.w3.org/2000/svg" xmlns:xlink="http://www.w3.org/1999/xlink">
    <title>Group 92</title>
    <g id="Page-Carreras-y-Payments" stroke="none" stroke-width="1" fill="none" fill-rule="evenodd">
        <g id="Group-92">
            <g id="Group-13-Copy-4">
                <rect id="Rectangle-Copy-7" x="0" y="0" width="170" height="85" rx="10"></rect>
            </g>
            <g id="Sonda_logo" transform="translate(41.000000, 29.000000)" fill-rule="nonzero">
                <g id="g46643" transform="translate(43.500000, 14.500000) scale(-1, 1) rotate(-180.000000) translate(-43.500000, -14.500000) translate(0.000000, 0.000000)">
                    <g id="g46649" transform="translate(14.672729, 18.337267)" fill="#000000">
                        <path d="M14.0481302,8.01251717 C13.9037512,9.54909855 12.0738927,10.6627334 8.36869377,10.6627334 C6.13319904,10.6627334 4.47469148,10.3411233 3.30326474,9.83284075 C2.14453066,9.34269209 1.53581185,8.64507028 1.39883689,7.87651292 C1.21743763,6.85088086 1.91606279,6.18686009 2.68291099,5.75111314 C3.39634425,5.32016633 4.46305654,4.92548733 5.76881393,4.54307537 C6.95451991,4.16599691 7.60924962,3.95745706 8.14445677,3.74305036 C8.68971229,3.49664265 8.93563258,3.21290045 8.86317864,2.79368734 C8.82034091,2.55421319 8.63576849,2.29607179 8.29465325,2.12753318 C7.93132586,1.95686118 7.35169439,1.78618918 6.53090238,1.78618918 C5.28279083,1.78618918 4.7322467,2.23846998 4.56882871,2.88275679 L0,2.76328639 C0.115291661,1.17443672 1.88909088,0 6.2119993,0 C8.72567483,0 10.4619249,0.461881107 11.6291208,1.01069827 C12.8888673,1.61018367 13.5049901,2.40380849 13.6366765,3.15423195 C13.8043254,4.09079456 13.1908468,4.75374862 12.4007287,5.22523003 C11.7359507,5.62630924 10.8115019,5.92498524 9.53959164,6.2999303 C8.25340211,6.6391409 7.71925267,6.79007895 7.0275027,7.06048741 C6.27969349,7.33782941 5.96290585,7.68130682 6.03588865,8.07758587 C6.07079346,8.29039253 6.24531754,8.49519893 6.54465277,8.62640303 C6.8979318,8.78000783 7.43684098,8.87334409 7.93238358,8.87334409 C9.03135639,8.87334409 9.47771493,8.44399733 9.65012356,7.93411472 L14.0481302,8.01251717 Z" id="path46651"></path>
                    </g>
                    <g id="g46653" transform="translate(43.639124, 18.537220)" fill="#000000">
                        <path d="M9.14347488,2.82728839 C8.74048293,4.08546106 7.71237748,6.5954062 6.05862966,10.2563207 L1.34700853,10.2563207 L0,0 L3.1229232,0 C3.60524427,3.68118176 3.8776076,6.16659279 3.96063875,7.43116566 L4.06006459,7.43116566 C4.45882565,6.17832649 5.48217136,3.69238211 7.14015006,0 L11.841194,0 L13.1882025,10.2563207 L10.0615773,10.2563207 C9.58401595,6.5975396 9.31112376,4.10626171 9.23391008,2.82728839 L9.14347488,2.82728839 Z" id="path46655"></path>
                    </g>
                    <g id="g46657" transform="translate(84.094439, 18.372041)" fill="#000000">
                        <path d="M1.45225184,0 C1.04925989,0 0.702327182,0.145604552 0.422030942,0.434680257 C0.141205841,0.716289061 0,1.06830007 0,1.47524612 C0,1.87472528 0.143321285,2.22246948 0.426790689,2.50887844 C0.704442625,2.79475404 1.05137533,2.9382252 1.45225184,2.9382252 C1.85207063,2.9382252 2.19900333,2.79475404 2.48141501,2.50994514 C2.76276897,2.22406953 2.9055614,1.87685868 2.9055614,1.47524612 C2.9055614,1.07150017 2.76276897,0.720555861 2.48141501,0.433613557 C2.19900333,0.145604552 1.85207063,0 1.45225184,0 M1.45225184,2.61768184 C1.13440648,2.61768184 0.872620369,2.50887844 0.651556542,2.28433809 C0.427848411,2.05499758 0.317845359,1.79098933 0.317845359,1.47524612 C0.317845359,1.15043597 0.426790689,0.884294314 0.647325655,0.65975396 C0.871562647,0.432546857 1.13334876,0.320543355 1.45225184,0.320543355 C1.76798175,0.320543355 2.03082559,0.432546857 2.2561203,0.65975396 C2.47929957,0.886961064 2.58771604,1.15363607 2.58771604,1.47524612 C2.58771604,1.79312273 2.47929957,2.05606428 2.2561203,2.28433809 C2.03188331,2.50781174 1.7700972,2.61768184 1.45225184,2.61768184" id="path46659"></path>
                    </g>
                    <g id="g46661" transform="translate(85.022801, 19.131531)" fill="#000000">
                        <path d="M0.966757596,0.738689761 C1.06142368,0.798424962 1.10584799,0.895494664 1.10584799,1.02029857 C1.10584799,1.20057087 1.03445178,1.32004127 0.886899611,1.38457662 C0.805983904,1.41817767 0.674826418,1.43684492 0.498186901,1.43684492 L0,1.43684492 L0,0 L0.251208894,0 L0.251208894,0.568551109 L0.44635854,0.568551109 C0.580689191,0.568551109 0.674826418,0.552017258 0.727183641,0.520549608 C0.817089982,0.465081207 0.862043152,0.358411205 0.862043152,0.192539353 L0.862043152,0.0762690512 L0.866274039,0.0314676505 C0.866274039,0.0261341504 0.868918343,0.0218673503 0.871033786,0.0149338002 C0.871033786,0.0106670002 0.87314923,0.00320010005 0.875264673,0 L1.10690572,0 L1.0989728,0.0176005503 C1.09527078,0.0314676505 1.08733787,0.0554684009 1.08733787,0.0933362514 C1.08522242,0.130137402 1.08310698,0.171738703 1.08310698,0.201072953 L1.08310698,0.305076205 C1.08310698,0.377078456 1.05613508,0.453347507 1.00747988,0.524816408 C0.952478354,0.605885609 0.87314923,0.65068701 0.761030734,0.66828756 C0.848292771,0.68375471 0.919160122,0.706155411 0.966757596,0.738689761 M0.862043152,0.999497915 C0.862043152,0.889094464 0.811801373,0.813892112 0.712375537,0.777090962 C0.66319148,0.757357012 0.583333495,0.746156661 0.476503607,0.746156661 L0.251208894,0.746156661 L0.251208894,1.26243947 L0.464868669,1.26243947 C0.601314763,1.26243947 0.702856042,1.24643897 0.766319342,1.20750442 C0.829782642,1.17337002 0.862043152,1.10830132 0.862043152,0.999497915" id="path46663"></path>
                    </g>
                    <g id="g46665" transform="translate(29.750227, 18.337267)" fill="#000000">
                        <path d="M7.17426785,10.6627334 C3.29507367,10.6627334 0.537064444,8.95547999 0.0632051406,5.34843388 L0.0621474189,5.33403343 C-0.41541391,1.70778673 1.89465019,0 5.7749021,0 C9.65674059,0 12.4147498,1.70778673 12.8912534,5.33403343 C13.364055,8.95547999 11.0550486,10.6627334 7.17426785,10.6627334 M9.39812764,5.33403343 C9.04590633,2.66194989 7.51485423,1.79845623 6.01288947,1.79845623 C4.50880927,1.79845623 3.20252302,2.66194989 3.55685978,5.33403343 C3.90960995,8.02691762 5.43854661,8.89041129 6.92464554,8.89041129 L6.94368453,8.89041129 C8.44564929,8.89041129 9.75034896,8.02691762 9.39812764,5.33403343" id="path46667"></path>
                    </g>
                    <g id="g46669" transform="translate(57.792391, 18.537273)" fill="#000000">
                        <path d="M6.7710052,10.2584541 L1.34806625,10.2584541 L0,0 L5.5234225,0 C10.5925536,0 12.5911186,1.92966033 13.0221402,5.20122928 C13.4632101,8.56026763 11.5720038,10.2584541 6.7710052,10.2584541 M9.51526404,5.13082708 C9.18631261,2.60541479 7.78060052,1.77765558 5.54933668,1.77765558 L3.64014909,1.77765558 L4.51911579,8.48186518 L6.3754173,8.48186518 C9.11015665,8.48186518 9.7696461,7.05942071 9.51526404,5.13082708" id="path46671"></path>
                    </g>
                    <g id="g46673" transform="translate(70.142244, 18.537166)" fill="#000000">
                        <path d="M13.6028294,0 L10.4751465,10.2563207 L5.81852685,10.2563207 L0,0 L3.67346732,0 L4.83008596,2.45020994 L9.40208783,2.45020994 L9.9330641,0 L13.6028294,0 Z M8.96895081,4.21719851 L5.73020709,4.21719851 L6.8196604,6.50527005 C7.15337158,7.19329156 7.51299694,7.91491412 7.85675648,8.78054118 L8.02176106,8.78054118 C8.15238969,7.91491412 8.31369224,7.22689261 8.4776391,6.5111369 L8.96895081,4.21719851 Z" id="path46675"></path>
                    </g>
                    <g id="g46677" fill="#00609C">
                        <path d="M35.7231348,0 C35.7231348,0 79.1077041,3.2369012 84.3656384,9.6659022 C88.1845425,14.3396483 59.2643169,15.192475 47.0582089,15.6250218 C34.8494567,16.0586354 15.175305,16.3695785 10.7545573,16.8293262 C-3.66218892,18.3243062 8.24511266,19.5782121 12.7224484,20.5606428 C12.7224484,20.5606428 -12.9801879,17.494947 8.67983626,15.5391525 C12.1142585,15.2271427 28.3095637,15.0895384 40.5156716,14.6580583 C52.7244239,14.2212446 80.1918688,12.0830444 74.2046353,8.82480924 C63.6258321,3.0662292 35.7231348,0 35.7231348,0" id="path46679"></path>
                    </g>
                </g>
            </g>
        </g>
    </g>
</svg>