<?xml version="1.0" encoding="UTF-8"?>
<svg width="170px" height="86px" viewBox="0 0 170 86" version="1.1" xmlns="http://www.w3.org/2000/svg" xmlns:xlink="http://www.w3.org/1999/xlink">
    <title>Group 70</title>
    <g id="Page-Carreras-y-Payments" stroke="none" stroke-width="1" fill="none" fill-rule="evenodd">
        <g id="Group-70" transform="translate(0.000000, 0.562814)">
            <g id="Group-13-Copy-4">
                <rect id="Rectangle-Copy-7" x="0" y="0" width="170" height="85" rx="10"></rect>
            </g>
            <g id="TALENTLY" transform="translate(39.000000, 29.437186)" fill-rule="nonzero">
                <path d="M5.74754617,21.0864455 C4.58461644,21.0864455 3.6527829,20.8019567 2.95204555,20.2329152 C2.25130821,19.6638736 1.90093635,18.6530399 1.90093635,17.2004781 L1.90093635,12.34863 L0,12.34863 L0,9.94515043 L1.90093635,9.94515043 L2.23639795,6.95766632 L4.76353311,6.95766632 L4.76353311,9.94515043 L7.76033489,9.94515043 L7.76033489,12.34863 L4.76353311,12.34863 L4.76353311,17.2229226 C4.76353311,17.7620382 4.87535365,18.1364328 5.09898835,18.3460427 C5.33753967,18.5407535 5.74009105,18.6380769 6.30664248,18.6380769 L7.69323238,18.6380769 L7.69323238,21.0864455 L5.74754617,21.0864455 Z" id="Path" fill="#4E0FFF"></path>
                <path d="M13.5950061,21.3560352 C12.6408645,21.3560352 11.858108,21.2062774 11.2468003,20.9067616 C10.6355563,20.5922829 10.1808,20.1804807 9.88259492,19.6713551 C9.58445351,19.1621656 9.43535098,18.6006694 9.43535098,17.986675 C9.43535098,16.9533968 9.83790235,16.1148295 10.6430051,15.470909 C11.4481079,14.8269885 12.655762,14.5050282 14.2659675,14.5050282 L17.0838271,14.5050282 L17.0838271,14.2354385 C17.0838271,13.4717501 16.8676221,12.91019 16.4352757,12.5508223 C16.0028656,12.1913906 15.4661729,12.0117068 14.8250702,12.0117068 C14.2436212,12.0117068 13.7366599,12.1539831 13.3043134,12.4384719 C12.8719034,12.7080617 12.603557,13.1123823 12.4992107,13.651434 L9.70369734,13.651434 C9.77824861,12.8427926 10.046595,12.1390201 10.5088001,11.5399886 C10.9859027,10.9410211 11.5972104,10.484266 12.3426594,10.1697872 C13.0881084,9.8403455 13.9230699,9.67562463 14.8474164,9.67562463 C16.4278269,9.67562463 17.6727248,10.0724638 18.5822376,10.8661422 C19.4916866,11.6598205 19.9463793,12.7828767 19.9463793,14.2354385 L19.9463793,21.0864455 L17.5087248,21.0864455 L17.2403784,19.2894789 C16.9123783,19.8884465 16.4501732,20.382673 15.8538267,20.7719668 C15.2723141,21.1613244 14.5194163,21.3560352 13.5950061,21.3560352 Z M14.2436212,19.1097951 C15.0636215,19.1097951 15.6972754,18.8402053 16.1445194,18.3011537 C16.6067245,17.7620382 16.8974808,17.0956732 17.0167246,16.3019948 L14.5790701,16.3019948 C13.8186599,16.3019948 13.2744547,16.4442712 12.9464546,16.72876 C12.6184545,16.9983497 12.4544545,17.335273 12.4544545,17.7395937 C12.4544545,18.1738403 12.6184545,18.5107636 12.9464546,18.7503634 C13.2744547,18.9899632 13.7068648,19.1097951 14.2436212,19.1097951 Z" id="Shape" fill="#4E0FFF"></path>
                <polygon id="Path" fill="#4E0FFF" points="22.2308568 21.0864455 22.2308568 4.91361844 25.0934727 4.91361844 25.0934727 21.0864455"></polygon>
                <path d="M32.9608278,21.3560352 C31.8426861,21.3560352 30.8511733,21.1164354 29.9864168,20.6372358 C29.121724,20.1580362 28.4433138,19.4841258 27.9513137,18.6156324 C27.4593135,17.7470752 27.2133134,16.7437869 27.2133134,15.6056399 C27.2133134,14.4525938 27.4518648,13.4267971 27.9289674,12.5283139 C28.4209676,11.6298306 29.0918653,10.9335396 29.9417243,10.439313 C30.8064808,9.93018743 31.8202762,9.67562463 32.9832377,9.67562463 C34.0715844,9.67562463 35.0332384,9.91522443 35.8681999,10.394424 C36.7030977,10.8736237 37.3516491,11.5325071 37.8138542,12.3710745 C38.2909569,13.1947428 38.5295082,14.1156706 38.5295082,15.1339857 C38.5295082,15.2987066 38.5220594,15.470909 38.5070983,15.6505928 C38.5070983,15.8302767 38.4996495,16.017506 38.484752,16.2121529 L30.0535194,16.2121529 C30.1131731,17.0807102 30.4113782,17.7620382 30.9480709,18.2562008 C31.4997248,18.7503634 32.1632374,18.9974447 32.9384815,18.9974447 C33.5199304,18.9974447 34.0044819,18.8701953 34.3921357,18.6156324 C34.7946871,18.3460427 35.0928922,18.001638 35.2866872,17.5823543 L38.1940593,17.5823543 C37.9853031,18.2861907 37.6349567,18.9301112 37.1428928,19.5141157 C36.6658539,20.0831573 36.0694437,20.532367 35.3537898,20.8618726 C34.653097,21.1913144 33.855443,21.3560352 32.9608278,21.3560352 Z M32.9832377,12.0117068 C32.2824813,12.0117068 31.6637249,12.2138351 31.1270321,12.6181558 C30.5902757,13.0075135 30.2473781,13.606545 30.0982756,14.4151863 L35.6221998,14.4151863 C35.5774436,13.6814239 35.3090972,13.0973554 34.817097,12.6631087 C34.3250332,12.2288621 33.7137892,12.0117068 32.9832377,12.0117068 Z" id="Shape" fill="#4E0FFF"></path>
                <path d="M40.4898054,21.0864455 L40.4898054,9.94515043 L43.0169724,9.94515043 L43.2406262,11.8320229 C43.5835239,11.1731394 44.075524,10.6489868 44.7166267,10.2596292 C45.372627,9.87027149 46.1404859,9.67562463 47.0201399,9.67562463 C48.3917941,9.67562463 49.4577945,10.1098713 50.218141,10.9784286 C50.9785512,11.8469859 51.3587563,13.1198638 51.3587563,14.7969985 L51.3587563,21.0864455 L48.4961404,21.0864455 L48.4961404,15.0665883 C48.4961404,14.1081891 48.3023453,13.3744267 47.9146915,12.865301 C47.5270376,12.3561115 46.9231787,12.1015487 46.1031784,12.1015487 C45.2980757,12.1015487 44.6346267,12.3861014 44.1127678,12.955143 C43.6058702,13.5241845 43.3524213,14.3178629 43.3524213,15.3361141 L43.3524213,21.0864455 L40.4898054,21.0864455 Z" id="Path" fill="#4E0FFF"></path>
                <path d="M58.5911842,21.0864455 C57.4282863,21.0864455 56.4964273,20.8019567 55.7957345,20.2329152 C55.094978,19.6638736 54.7446316,18.6530399 54.7446316,17.2004781 L54.7446316,12.34863 L52.8436698,12.34863 L52.8436698,9.94515043 L54.7446316,9.94515043 L55.0800805,6.95766632 L57.6071838,6.95766632 L57.6071838,9.94515043 L60.6040047,9.94515043 L60.6040047,12.34863 L57.6071838,12.34863 L57.6071838,17.2229226 C57.6071838,17.7620382 57.7190426,18.1364328 57.9426327,18.3460427 C58.181184,18.5407535 58.5837354,18.6380769 59.1502868,18.6380769 L60.5369022,18.6380769 L60.5369022,21.0864455 L58.5911842,21.0864455 Z" id="Path" fill="#4E0FFF"></path>
                <polygon id="Path" fill="#4E0FFF" points="70.691918 21.0583099 70.691918 4.88544452 73.5542792 4.88544452 73.5542792 21.0583099"></polygon>
                <polygon id="Path" fill="#4E0FFF" points="77.4187215 26 79.9907721 20.3170021 79.319747 20.3170021 75.0032859 9.91701488 78.1120292 9.91701488 81.2207725 17.7563471 84.4632114 9.91701488 87.5051069 9.91701488 80.4606169 26"></polygon>
                <path d="M64.3464656,25.9719923 C63.960658,25.9719923 63.6478101,25.6577694 63.6478101,25.2700742 L63.6478101,0.701943665 C63.6478101,0.314271562 63.960658,0 64.3464656,0 L68.8895727,0 C69.0824765,0 69.2390914,0.157135781 69.2390914,0.350973111 L69.2390914,1.9851039 C69.2390914,2.17894506 69.0824765,2.33607573 68.8895727,2.33607573 L66.6810471,2.33607573 C66.4881433,2.33607573 66.3315284,2.49321279 66.3315284,2.68705396 L66.3315284,23.2624747 C66.3315284,23.4563542 66.4881433,23.6134657 66.6810471,23.6134657 L68.8895727,23.6134657 C69.0824765,23.6134657 69.2390914,23.7706411 69.2390914,23.9644567 L69.2390914,25.6210653 C69.2390914,25.8148809 69.0824765,25.9719923 68.8895727,25.9719923 L64.3464656,25.9719923 Z" id="Path" fill="#4E0FFF"></path>
                <path d="M92.649208,9.82864087 C92.8427484,9.82787633 93,9.98524359 93,10.1796347 L93,25.2700103 C93,25.6577054 92.6874067,25.9719923 92.3009625,25.9719923 L87.758492,25.9719923 C87.5655882,25.9719923 87.4089733,25.8148169 87.4089733,25.6210013 L87.4089733,23.9868373 C87.4089733,23.7930217 87.5655882,23.6359102 87.758492,23.6359102 L89.9670176,23.6359102 C90.1599214,23.6359102 90.3165364,23.4787348 90.3165364,23.2849192 L90.3165364,10.1879475 C90.3165364,9.99464342 90.471878,9.83778772 90.6641452,9.83695644 L92.649208,9.82864087 Z" id="Path" fill="#4E0FFF"></path>
                <path d="M92.649208,5.61410726 C92.8427484,5.61490988 93,5.45754262 93,5.26313234 L93,0.701950059 C93,0.314272841 92.6874067,5.28269842e-07 92.3009625,5.28269842e-07 L87.758492,5.28269842e-07 C87.5655882,5.28269842e-07 87.4089733,0.157140257 87.4089733,0.350976948 L87.4089733,1.98511029 C87.4089733,2.17894506 87.5655882,2.33608212 87.758492,2.33608212 L89.9670176,2.33607573 C90.1599214,2.33607573 90.3165364,2.49321279 90.3165364,2.68705396 L90.3165364,5.25482596 C90.3165364,5.44809163 90.471878,5.60499209 90.6641452,5.60579779 L92.649208,5.61410726 Z" id="Path" fill="#FF4343"></path>
            </g>
        </g>
    </g>
</svg>