<?xml version="1.0" encoding="UTF-8"?>
<svg width="170px" height="85px" viewBox="0 0 170 85" version="1.1" xmlns="http://www.w3.org/2000/svg" xmlns:xlink="http://www.w3.org/1999/xlink">
    <title>Group 72</title>
    <defs>
        <linearGradient x1="0%" y1="49.999759%" x2="99.9999968%" y2="49.999759%" id="linearGradient-1">
            <stop stop-color="#AF4700" offset="0%"></stop>
            <stop stop-color="#D06301" offset="8.3%"></stop>
            <stop stop-color="#EA7902" offset="16.6%"></stop>
            <stop stop-color="#F98603" offset="24%"></stop>
            <stop stop-color="#FF8B04" offset="29.9%"></stop>
            <stop stop-color="#FF8506" offset="41.1%"></stop>
            <stop stop-color="#FF760F" offset="54.9%"></stop>
            <stop stop-color="#FF5D1D" offset="70.2%"></stop>
            <stop stop-color="#FF3A30" offset="86.3%"></stop>
            <stop stop-color="#FF1744" offset="99.9%"></stop>
        </linearGradient>
        <linearGradient x1="50.0002378%" y1="100%" x2="50.0002378%" y2="9.87463409e-07%" id="linearGradient-2">
            <stop stop-color="#00BFA5" offset="0.4%"></stop>
            <stop stop-color="#00BEA5" offset="0.5%"></stop>
            <stop stop-color="#11BBC8" offset="20.5%"></stop>
            <stop stop-color="#1EB8E1" offset="39.3%"></stop>
            <stop stop-color="#26B6F0" offset="56.3%"></stop>
            <stop stop-color="#29B6F6" offset="70.1%"></stop>
            <stop stop-color="#25B0F3" offset="77.2%"></stop>
            <stop stop-color="#1AA1EA" offset="86.1%"></stop>
            <stop stop-color="#0887DD" offset="96%"></stop>
            <stop stop-color="#007BD7" offset="100%"></stop>
        </linearGradient>
        <linearGradient x1="0%" y1="49.9997596%" x2="100%" y2="49.9997596%" id="linearGradient-3">
            <stop stop-color="#8BC34A" offset="0.2%"></stop>
            <stop stop-color="#7DC252" offset="4.2%"></stop>
            <stop stop-color="#51C16F" offset="19.4%"></stop>
            <stop stop-color="#2DC087" offset="34%"></stop>
            <stop stop-color="#14BF97" offset="47.7%"></stop>
            <stop stop-color="#05BFA1" offset="60.1%"></stop>
            <stop stop-color="#00BFA5" offset="70.1%"></stop>
            <stop stop-color="#00B99F" offset="78.6%"></stop>
            <stop stop-color="#00AA90" offset="89.2%"></stop>
            <stop stop-color="#02937B" offset="100%"></stop>
        </linearGradient>
        <linearGradient x1="50%" y1="100%" x2="50%" y2="0%" id="linearGradient-4">
            <stop stop-color="#5F9618" offset="0%"></stop>
            <stop stop-color="#639A1D" offset="7.8%"></stop>
            <stop stop-color="#71A82C" offset="17.6%"></stop>
            <stop stop-color="#87BF45" offset="28.2%"></stop>
            <stop stop-color="#8BC34A" offset="29.8%"></stop>
            <stop stop-color="#90C046" offset="40.9%"></stop>
            <stop stop-color="#9FBA3C" offset="54.6%"></stop>
            <stop stop-color="#B8AF2C" offset="69.8%"></stop>
            <stop stop-color="#DBA016" offset="85.9%"></stop>
            <stop stop-color="#FF9100" offset="99.4%"></stop>
        </linearGradient>
    </defs>
    <g id="Page-Carreras-y-Payments" stroke="none" stroke-width="1" fill="none" fill-rule="evenodd">
        <g id="Group-72">
            <g id="Group-13-Copy-4">
                <rect id="Rectangle-Copy-7" x="0" y="0" width="170" height="85" rx="10"></rect>
            </g>
            <g id="logo-upayments" transform="translate(26.000000, 27.000000)" fill-rule="nonzero">
                <path d="M45.1688903,12.4035753 C45.4874974,12.4016988 45.8031157,12.4657692 46.0958351,12.5918479 C46.6700414,12.8366198 47.1267165,13.2955193 47.3692513,13.8714815 C47.6197886,14.4678254 47.6197886,15.140133 47.3692513,15.7365248 C47.1267165,16.3124391 46.6700414,16.7713385 46.0958351,17.0161105 C45.8031157,17.1422371 45.4874974,17.2063075 45.1688903,17.2043852 L42.7726599,17.2043852 L42.7726599,12.4043365 L45.1688903,12.4035753 Z M42.7726599,19.596191 L45.1688903,19.596191 C45.8074062,19.5998836 46.4398961,19.4717908 47.0268294,19.2199212 C48.176158,18.7322956 49.0912436,17.8160313 49.5781451,16.6649222 C49.995145,15.6734135 50.066975,14.5701654 49.7825474,13.532714 C49.4450909,12.3262626 48.6554427,11.2971558 47.577944,10.6605761 C47.2208669,10.4499495 46.8379019,10.2868481 46.4387391,10.1753483 C46.0254995,10.0602038 45.598376,10.0025597 45.1694206,10.0038795 L40.3769115,10.0038795 L40.3769115,21.9971045 L42.7731419,21.9971045 L42.7731419,19.5971021 L42.7726599,19.596191 Z M59.7736702,13.055591 L59.222652,13.055591 L58.3375518,14.117884 C58.1235079,13.9155539 57.8959658,13.7283302 57.6563717,13.5576037 C57.4153314,13.3853905 57.1593465,13.2342783 56.8922738,13.1059457 C56.6276115,12.9784283 56.3504151,12.8773832 56.0659874,12.8042969 C55.7844523,12.7322656 55.495686,12.6957225 55.2054734,12.6955786 C54.5970875,12.6915982 53.9935224,12.8096681 53.4314163,13.0427385 C52.8866651,13.2675125 52.3925324,13.5987027 51.977943,14.0170306 C51.5546761,14.4475876 51.2215583,14.9578009 50.9964266,15.518273 C50.7520117,16.1281887 50.6300453,16.7804983 50.6372765,17.4377474 C50.6257065,18.121133 50.747673,18.8001546 50.9964266,19.4365904 C51.2172196,19.9941372 51.5513015,20.4996987 51.977943,20.9210479 C52.3934965,21.3260918 52.8881113,21.6407369 53.4314163,21.8452251 C53.9983432,22.0594005 54.5994979,22.1671596 55.2054734,22.1629874 C55.4942397,22.1631041 55.7820419,22.1264922 56.0616487,22.0542691 C56.344148,21.9812308 56.6198982,21.8818162 56.8840784,21.757368 C57.1511511,21.6321047 57.4066539,21.483822 57.6481764,21.3140546 C57.8882526,21.1454861 58.1186871,20.9625786 58.3370697,20.766291 L59.2221699,21.9957617 L59.7731882,21.9957617 L59.7731882,13.055591 L59.7736702,13.055591 Z M57.2977037,18.3459549 C57.1820043,18.6321137 57.0166506,18.895397 56.8088738,19.1236717 C56.6044716,19.3485416 56.3595746,19.5329358 56.0867169,19.6672631 C55.8133771,19.8035565 55.5115946,19.8737654 55.2059554,19.8722308 C54.9051371,19.874197 54.606247,19.8202935 54.3247119,19.7133017 C54.0547467,19.6108658 53.8098497,19.4511214 53.6068937,19.2449547 C53.3952603,19.0259836 53.2318349,18.7653858 53.1267413,18.4797067 C52.8929322,17.805289 52.8929322,17.0716445 53.1267413,16.3972268 C53.2318349,16.1115956 53.3957423,15.8509979 53.6068937,15.6319788 C53.8098497,15.4259081 54.0547467,15.2661637 54.3247119,15.1636318 C54.606247,15.056688 54.9051371,15.0028324 55.2059554,15.00461 C55.5115946,15.003264 55.8133771,15.0734729 56.0867169,15.2096704 C56.3595746,15.3440936 56.6044716,15.5284878 56.8088738,15.7533097 C57.0166506,15.9815365 57.1820043,16.2448678 57.2977037,16.5309786 C57.5368157,17.1122161 57.5368157,17.7647175 57.2977037,18.3459549 Z M64.8335894,25.4255423 C65.4424574,25.4296666 66.0450583,25.3072327 66.6037898,25.0659616 C67.1437202,24.8336105 67.6354426,24.5016529 68.0529245,24.0873054 C68.4689601,23.6722386 68.8020779,23.1811121 69.0339587,22.6404941 C69.2749991,22.0805015 69.399858,21.4772998 69.4013042,20.867528 L69.4013042,13.0393336 L67.1051538,13.0393336 L67.1051538,17.9904026 C67.1051538,18.2295636 67.0598382,18.4665665 66.9716174,18.6887507 C66.8848429,18.9105993 66.7604661,19.1157589 66.6042719,19.2952135 C66.4504882,19.4719347 66.2648871,19.6180593 66.0571103,19.7258664 C65.8527081,19.8335775 65.6246839,19.8895432 65.3932852,19.8889198 C65.1642968,19.8906942 64.9362726,19.8510818 64.7212646,19.771905 C64.5149341,19.6954137 64.3278868,19.5739869 64.174103,19.4163526 C64.0111597,19.2460577 63.8843725,19.0439674 63.8024188,18.8226464 C63.7055206,18.55615 63.6592408,18.2739716 63.6650258,17.9904026 L63.6650258,13.0393336 L61.3934614,13.0393336 L61.3934614,17.9904026 C61.384784,18.5837731 61.4913238,19.1731633 61.7068139,19.7258664 C62.0881398,20.7074479 62.8613972,21.4850209 63.8400211,21.8710738 C64.3341538,22.0680328 64.8615501,22.1674474 65.3932852,22.1638027 C65.661322,22.1624599 65.9269485,22.1084604 66.1742559,22.0048256 C66.4331333,21.8989368 66.6876719,21.793048 66.9383539,21.6870632 C66.855436,21.8917432 66.7460037,22.084434 66.6124673,22.2599083 C66.4808593,22.4335601 66.3246651,22.5871181 66.1491877,22.7157864 C65.9741924,22.8438793 65.7813601,22.9454999 65.5769579,23.0174352 C65.3706274,23.0899461 65.153209,23.126729 64.9338622,23.1261535 L63.6650258,23.1093686 L63.6650258,25.409285 L64.8340715,25.4260699 L64.8335894,25.4255423 Z M82.5110073,16.3093698 C82.5138998,15.8498949 82.4227865,15.3946881 82.2439346,14.9716604 C81.8997289,14.1492957 81.2479558,13.4947801 80.4274544,13.1487232 C80.0065979,12.9690288 79.5534421,12.8779107 79.0959475,12.8809049 C78.8857603,12.8814116 78.6760552,12.8996352 78.4692425,12.935459 C78.2585733,12.9714746 78.0527248,13.0318044 77.8555538,13.1152493 C77.6550082,13.2005167 77.4660326,13.3100982 77.2920014,13.4414041 C77.110257,13.5788486 76.9497241,13.7423336 76.8161878,13.9266799 C76.5467046,13.5660441 76.184662,13.2855922 75.7686264,13.1153932 C75.3791051,12.9609241 74.9640336,12.8814595 74.5451055,12.8811718 C74.1382294,12.8802606 73.7347278,12.955409 73.3553303,13.1027806 C72.9740044,13.2507755 72.6196751,13.4613542 72.3077689,13.7258844 L71.6897414,13.0401009 L71.1382411,13.0401009 L71.1382411,21.9974882 L73.4180008,21.9974882 L73.4180008,16.3093698 C73.4170366,16.1572506 73.4469256,16.00657 73.5057395,15.8662002 C73.5621429,15.7293313 73.6445787,15.6044515 73.747744,15.498227 C73.956967,15.2822772 74.2447692,15.1613779 74.5451055,15.1636318 C74.8488164,15.162385 75.1404752,15.2827088 75.3554832,15.4978434 C75.5704912,15.712978 75.6905293,16.0051313 75.689083,16.3093698 L75.689083,21.996577 L77.9688428,21.996577 L77.9688428,16.3093698 C77.9678786,16.1572506 77.9977676,16.00657 78.0565814,15.8662002 C78.113467,15.7293313 78.1954207,15.6044515 78.298586,15.498227 C78.507809,15.2822772 78.7956112,15.1613779 79.0959475,15.1636318 C79.3996583,15.162385 79.6917992,15.2827088 79.9063252,15.4978434 C80.1213332,15.712978 80.2413713,16.0051313 80.239925,16.3093698 L80.239925,21.996577 L82.5114894,21.996577 L82.5114894,16.3093698 L82.5110073,16.3093698 Z M92.0051049,14.645074 C91.7939536,14.3445282 91.5476103,14.0706944 91.2704139,13.8296151 C90.7218061,13.3487994 90.0661763,13.0061954 89.3584818,12.8302895 C89.0007779,12.7408979 88.6334324,12.6959143 88.2646406,12.6963939 C87.6567369,12.6923655 87.0536539,12.8089008 86.4905836,13.0393336 C85.3764951,13.4897926 84.4966978,14.3788653 84.0565581,15.498227 C83.8106969,16.1153842 83.6887305,16.7748873 83.6974079,17.4391861 C83.6896946,18.0909682 83.8116611,18.7377147 84.0565581,19.3417317 C84.2826539,19.8990387 84.6157717,20.4062787 85.0375923,20.8347255 C85.8918393,21.6933456 87.054618,22.1724349 88.2646406,22.1644261 C88.6319861,22.1650975 88.9978854,22.1216006 89.3546251,22.0348466 C89.7055799,21.9494354 90.0449647,21.8217262 90.3650663,21.6545485 C90.68565,21.4868432 90.9855042,21.2819714 91.2583619,21.0440573 C91.5341121,20.8043208 91.7794911,20.5319257 91.9891963,20.2327707 L90.3187866,18.5517379 C90.2310479,18.7505192 90.1143844,18.9351053 89.9726526,19.0995015 C89.8323671,19.2622672 89.6694238,19.4032124 89.4881615,19.5177335 C89.3073812,19.631775 89.1121385,19.7203993 88.9077363,19.7811127 C88.6989954,19.8428332 88.482059,19.8737654 88.2646406,19.8729022 C88.1754557,19.8729022 88.0862708,19.8685381 87.9975679,19.859762 C87.9064547,19.8511298 87.8172697,19.8329541 87.7300131,19.8054748 L92.005587,14.6452179 L92.0051049,14.645074 Z M86.2437583,18.6260711 C86.1965144,18.5417629 86.1603583,18.4518437 86.1352901,18.3584237 C86.1073294,18.2580499 86.0837075,18.1535039 86.0644242,18.0448336 C86.045141,17.9382734 86.0311607,17.830802 86.0224832,17.7228511 C86.0142878,17.6170102 86.009467,17.5220556 86.009467,17.4385147 C86.0041642,17.09452 86.0639422,16.7526353 86.1849444,16.4306528 C86.2929305,16.1464123 86.4563559,15.8863421 86.6650968,15.6654047 C86.8675707,15.4539628 87.1124677,15.2873126 87.382915,15.1761006 C87.6625218,15.061148 87.9618939,15.0029283 88.2641586,15.0047027 C88.3716626,15.0045109 88.4786845,15.0101218 88.5857064,15.0214876 C88.6927283,15.0336687 88.7978219,15.058942 88.8985768,15.0967799 L86.2432762,18.6260711 L86.2437583,18.6260711 Z M95.4293243,16.8781385 C95.427878,16.6497198 95.4736757,16.4234592 95.5628606,16.2132163 C95.8342721,15.5730877 96.4633874,15.1592198 97.1575836,15.1640635 C97.3841616,15.1626727 97.6088112,15.2082317 97.8170701,15.2978152 C98.2278028,15.4733374 98.5541715,15.8016982 98.7272384,16.2135999 C98.8169055,16.4238429 98.8622211,16.6501035 98.8612569,16.8785221 L98.8612569,21.9969607 L101.141074,21.9969607 L101.141074,16.8785221 C101.143909,16.3426519 101.037369,15.8118171 100.827664,15.3188203 C100.626154,14.8416973 100.33546,14.4074477 99.9714888,14.0391867 C99.6079999,13.6727481 99.1770198,13.3802111 98.7026523,13.1776892 C98.2143046,12.9678778 97.6883545,12.8611258 97.1575836,12.8639926 C96.1567841,12.8622768 95.1921405,13.2351416 94.4521466,13.9095113 L93.7005828,13.0397172 L93.1495645,13.0397172 L93.1495645,21.9971045 L95.4293243,21.9971045 L95.4293243,16.878666 L95.4293243,16.8781385 Z M108.973382,21.996577 L108.973382,19.7216941 L107.244641,19.7216941 C107.012278,19.7230849 106.781843,19.6760871 106.568281,19.5837222 C106.362915,19.4957692 106.175868,19.3694508 106.017263,19.2115288 C105.860587,19.0543261 105.735728,18.8683493 105.649918,18.6637172 C105.560251,18.4507407 105.514453,18.2216027 105.516381,17.9904026 L105.516381,15.3308575 L108.973382,15.3308575 L108.973382,13.055591 L105.516381,13.055591 L105.516381,9.47656853 L103.245299,9.47656853 L103.245299,13.055591 L102.134585,13.055591 L102.134585,15.33033 L103.245299,15.33033 L103.245299,17.989875 C103.241924,18.5244984 103.348464,19.0540863 103.558651,19.5455485 C103.967456,20.5070841 104.732036,21.2728596 105.691859,21.6823155 C106.182617,21.8927983 106.711459,21.9995983 107.245123,21.9960495 L108.973382,21.996577 Z M116.262925,21.7749203 C116.600863,21.6323444 116.906984,21.424883 117.164898,21.1642852 C117.422329,20.9034957 117.628659,20.597291 117.77473,20.2611132 C117.926103,19.9116034 118.003236,19.5341347 117.999861,19.1530214 C118.003718,18.7812596 117.927067,18.4130946 117.77473,18.0740873 C117.630588,17.754071 117.423293,17.4666654 117.164898,17.2293747 C116.901681,16.990981 116.59556,16.8051002 116.262925,16.6815632 C115.911006,16.5492502 115.537393,16.4825901 115.160888,16.4848441 L112.789533,16.4848441 C112.637678,16.4866185 112.492089,16.4243704 112.388442,16.3133023 C112.279009,16.2037688 112.218749,16.0543831 112.221642,15.8993864 C112.223088,15.5858443 112.476663,15.3320564 112.789533,15.3306177 L117.407384,15.3306177 L117.407384,13.0554258 L112.789533,13.0554258 C112.408207,13.0528095 112.030256,13.1281977 111.678819,13.2771038 C110.998603,13.5631187 110.457226,14.1052234 110.172317,14.7867387 C109.876801,15.4988505 109.876801,16.2992989 110.172317,17.0114107 C110.458673,17.6952759 110.999085,18.2410253 111.679301,18.5334663 C112.029774,18.6852019 112.408207,18.7621248 112.790015,18.7593433 L115.160888,18.7593433 C115.298281,18.7557945 115.435192,18.7814514 115.561979,18.8345876 C115.679125,18.8946297 115.745652,19.0218593 115.728779,19.1524938 C115.727333,19.466036 115.47424,19.7199197 115.160888,19.7211666 L109.950078,19.7211666 L109.950078,21.9961425 L115.160888,21.9961425 C115.539803,21.9982555 115.914862,21.9228673 116.262925,21.7743927 L116.262925,21.7749203 Z" id="Shape" fill="#2D3344"></path>
                <path d="M31.9493701,4.96785388 L31.9493701,9.95148558 C31.9501406,8.63387012 31.427999,7.37001433 30.4979206,6.43821202 C29.5678423,5.50645767 28.3060924,4.98315213 26.9905906,4.98358374 L4.97526584,4.98358374 L4.97526584,4.96785388 C4.97526584,2.22421642 7.19601887,0 9.93534613,0 L26.9905906,0 C29.729484,0.00065177725 31.9493701,2.22467201 31.9493701,4.96785388 Z" id="Path" fill="url(#linearGradient-1)"></path>
                <path d="M31.949322,9.95148558 L31.949322,27.0333929 C31.949322,29.7763829 29.7292429,31.9999519 26.9905424,31.9999519 L22.0147463,31.9999519 C23.3299589,31.9999519 24.5912749,31.4768382 25.5212568,30.5454196 C26.4512387,29.6140009 26.9736696,28.3506726 26.9735249,27.0333929 L26.9735249,4.98358347 L26.9905424,4.98358347 C28.3060924,4.98315213 29.5678423,5.50645767 30.4979206,6.43825998 C31.427999,7.37001433 31.9501406,8.63387012 31.949322,9.95148558 Z" id="Path" fill="url(#linearGradient-2)"></path>
                <path d="M26.9735731,27.0163682 L26.9735731,27.0334408 C26.9735731,28.3506726 26.4512387,29.6140009 25.5212568,30.5454196 C24.5913231,31.4768862 23.3299589,32 22.0147945,32 L4.96008029,32 C3.6447327,32.0002876 2.38315156,31.4771259 1.45293343,30.5457073 C0.52271048,29.6142886 0,28.3508645 0,27.0334408 L0,21.999886 C0,23.3174535 0.52253211,24.5810695 1.45273578,25.512728 C2.38293945,26.4443864 3.64457843,26.9677879 4.96008029,26.9677399 L4.97579613,26.9677399 L4.97579613,27.0162723 L26.9735731,27.0163682 Z" id="Path" fill="url(#linearGradient-3)"></path>
                <path d="M9.93587642,0 C7.19654916,0 4.97589254,2.22421642 4.97579613,4.96785388 L4.97579613,26.9678358 L4.96008029,26.9678358 C3.64457843,26.9678358 2.38293945,26.4444823 1.45273578,25.5128239 C0.52253211,24.5811654 0,23.3175494 0,21.9999819 L0,4.96785388 C0,2.22421642 2.22073857,0 4.96008029,0 L9.93587642,0 Z" id="Path" fill="url(#linearGradient-4)"></path>
                <path d="M19.2120736,20.0271315 C18.9880507,20.2308044 18.7516865,20.4205219 18.5043309,20.5951329 C18.2553844,20.7715663 17.9917345,20.9263232 17.7163217,21.0576771 C17.4438015,21.1876882 17.1598078,21.2920424 16.8679561,21.3693968 C16.578081,21.4462717 16.279432,21.4850883 15.9795295,21.4849729 C15.3402423,21.489337 14.7061615,21.3698284 14.1121417,21.1330653 C12.9356237,20.6689385 12.005931,19.734115 11.5471348,18.5539439 C11.28792,17.8894533 11.1600722,17.1808424 11.170678,16.4675316 L11.170678,10.5148831 L13.9013278,10.5148831 L13.9013278,16.4675316 C13.8959285,16.7984821 13.9520909,17.1276102 14.0669707,17.4379872 C14.1662793,17.7052509 14.318183,17.9497351 14.5137631,18.1569568 C14.6988339,18.3498394 14.9230496,18.5007118 15.1713694,18.5993112 C15.4285595,18.7010757 15.7029598,18.7522936 15.9795295,18.7501356 C16.2575455,18.7509029 16.531512,18.6835714 16.7776142,18.5540878 C17.027332,18.4243644 17.2503907,18.2486984 17.4352205,18.0362973 C17.623232,17.8205393 17.7726288,17.573897 17.8768546,17.3072567 C17.9831534,17.0402328 18.0376767,16.7553689 18.0375321,16.4679153 L18.0375321,10.5152667 L20.77792,10.5152667 L20.77792,21.2842734 L20.1153482,21.2842734 L19.2120736,20.0271315 Z" id="Path" fill="#2D3344"></path>
                <polygon id="Path" fill="#90A4AE" points="72.1737505 30.8803984 71.4168837 30.8803984 71.4168837 27.2510692 72.1737505 27.2510692"></polygon>
                <path d="M73.5192377,30.8803984 L72.7990091,30.8803984 L72.7990091,28.1697793 L72.9730403,28.1697793 L73.2107061,28.4330146 C73.4445152,28.229054 73.7491902,28.1162594 74.0654352,28.1166741 C74.2331993,28.1158278 74.3995171,28.1481028 74.553783,28.2115497 C74.7037101,28.2729345 74.8396568,28.361415 74.954392,28.4722913 C75.0696093,28.5836952 75.1612047,28.715145 75.2253214,28.8594952 C75.2913665,29.008737 75.3251121,29.1693926 75.324168,29.3315348 L75.324168,30.8803984 L74.6039193,30.8803984 L74.6039193,29.3315348 C74.6039193,29.262429 74.589939,29.1939465 74.5614962,29.1303077 C74.5344997,29.0683954 74.4949691,29.012094 74.4453148,28.9644728 C74.3961426,28.9173312 74.3378108,28.8795412 74.2741761,28.8531649 C74.2081311,28.8261172 74.1372652,28.8123056 74.0659173,28.8126413 C73.8460885,28.8104353 73.6469891,28.9359864 73.5621429,29.1303077 C73.5337002,29.1938986 73.5192377,29.262429 73.5197198,29.3315348 L73.5192377,30.8803984 Z" id="Path" fill="#90A4AE"></path>
                <path d="M78.3053351,28.7089585 L77.7779388,29.2176372 C77.7523885,29.1488671 77.7162325,29.084413 77.6694706,29.026625 C77.6256013,28.9719541 77.5735366,28.9237574 77.5152048,28.8836175 C77.4583193,28.8450122 77.3956488,28.8150871 77.3291216,28.7949932 C77.2625945,28.7748033 77.1931749,28.7645885 77.1232732,28.7646844 C77.0273391,28.7642049 76.9323692,28.784107 76.8451126,28.8229041 C76.7583381,28.8614135 76.6812052,28.9170435 76.6180526,28.9861014 C76.5520075,29.0594754 76.5004249,29.1440234 76.4666792,29.2354772 C76.4285949,29.3377692 76.4097937,29.4457681 76.41124,29.5543905 C76.4102758,29.6457004 76.4290769,29.7361951 76.4666792,29.8202155 C76.5023532,29.9012627 76.5539359,29.9750683 76.6180526,30.037748 C76.752071,30.1665602 76.9338155,30.2383996 77.1232732,30.2372486 C77.1922107,30.2374884 77.2606662,30.2281368 77.3267112,30.2094336 C77.3913101,30.1910661 77.4530164,30.1642103 77.5099019,30.1296333 C77.5672695,30.0950085 77.6188522,30.0523268 77.6632036,30.0031231 C77.7080371,29.9533918 77.7446752,29.897522 77.7726359,29.8373841 L78.3000322,30.3461107 C78.2339872,30.4366054 78.1563722,30.5190433 78.0691155,30.5915541 C77.9833052,30.6635853 77.8883353,30.7255936 77.7870983,30.776332 C77.6858614,30.8269744 77.5788395,30.8656277 77.4679609,30.8914285 C77.355154,30.9177089 77.2394546,30.930897 77.1232732,30.9307052 C76.930923,30.9319521 76.740019,30.895313 76.5626133,30.8230899 C76.2169614,30.6837272 75.9412113,30.4210673 75.7936946,30.0905005 C75.7175258,29.9212607 75.6789593,29.7386888 75.6799235,29.5543905 C75.6784773,29.3551296 75.7170437,29.1574993 75.7936946,28.9722898 C75.8655246,28.7977267 75.9706182,28.6376946 76.1036725,28.5003461 C76.2338343,28.3668341 76.3895463,28.2589311 76.5626133,28.1826797 C76.7385728,28.1048936 76.9299588,28.0651373 77.1232732,28.0661719 C77.2404188,28.0661719 77.3570823,28.0805795 77.4703713,28.1092577 C77.6988776,28.1669978 77.9085827,28.2793128 78.0797213,28.4357961 C78.1679421,28.5163157 78.2436288,28.6082491 78.3053351,28.7089585 Z" id="Path" fill="#90A4AE"></path>
                <polygon id="Path" fill="#90A4AE" points="79.3818213 30.8804943 78.6562899 30.8804943 78.6562899 27.0917564 79.3818213 27.0917564"></polygon>
                <path d="M82.0072329,30.5641227 C81.9484191,30.6153407 81.8862307,30.6631058 81.8211498,30.7071302 C81.7555868,30.7515862 81.6861672,30.7904792 81.6138551,30.8234736 C81.5425071,30.8562281 81.4677846,30.8825085 81.3911338,30.901979 C81.3144829,30.9213536 81.2359038,30.9311134 81.1573246,30.9311134 C80.9890785,30.9320959 80.8222785,30.9020749 80.6660844,30.8425125 C80.3570706,30.7256415 80.1126557,30.4903171 79.9921355,30.1933201 C79.9241621,30.0260944 79.8904165,29.8477428 79.893309,29.6681922 L79.893309,28.1698272 L80.6111272,28.1698272 L80.6111272,29.6681922 C80.6096809,29.7514453 80.6241433,29.8342189 80.6545144,29.9122927 C80.6805468,29.9795762 80.7200774,30.0411049 80.77166,30.09333 C80.8198681,30.1419103 80.879164,30.1798922 80.9442449,30.2046859 C81.0117362,30.2302949 81.0840484,30.2431953 81.1563605,30.2427157 C81.2296367,30.2427636 81.3019488,30.225643 81.3665477,30.1928405 C81.4321106,30.1601819 81.4909245,30.1159656 81.5391325,30.0624457 C81.5887869,30.0081586 81.6278354,29.9461023 81.655314,29.8790107 C81.6832747,29.8115833 81.6977371,29.7396479 81.6977371,29.6670892 L81.6977371,28.1686763 L82.4179657,28.1686763 L82.4179657,30.8792954 L82.2434525,30.8792954 L82.0072329,30.5641227 Z" id="Path" fill="#90A4AE"></path>
                <path d="M85.698525,30.8803984 L85.5240118,30.8803984 L85.2444049,30.5083968 C85.1754674,30.5677675 85.1026732,30.6231097 85.0269865,30.6741838 C84.9503357,30.7255456 84.8698282,30.7704333 84.7854641,30.8083672 C84.7020641,30.8460133 84.6148075,30.8760823 84.5256226,30.8981425 C84.4369197,30.9200108 84.3462886,30.9310568 84.2546932,30.9310568 C83.8719211,30.9328153 83.5040936,30.786355 83.2350925,30.5248461 C83.1020382,30.3945472 82.9969446,30.2406535 82.9251146,30.0717494 C82.7737413,29.7055986 82.7737413,29.2978691 82.9251146,28.9317183 C82.9969446,28.7620468 83.1020382,28.6072899 83.2350925,28.4760319 C83.3662185,28.3478432 83.5219305,28.2455511 83.6940334,28.1749107 C83.8714391,28.1019682 84.062343,28.0648976 84.2546932,28.0660965 C84.3207383,28.0662883 84.3863013,28.0713717 84.4513822,28.0812988 C84.5188735,28.0915136 84.5854006,28.1082026 84.6495173,28.131174 C84.713152,28.1537617 84.7738942,28.1839265 84.8302976,28.2209013 C84.886219,28.2577802 84.9349091,28.3042983 84.9729935,28.358058 L84.9729935,27.0926196 L85.698525,27.0926196 L85.698525,30.8803984 Z M84.9729935,29.5011104 C84.9729935,29.406971 84.9532282,29.3137908 84.916108,29.226797 C84.8794698,29.1402828 84.8274051,29.0606264 84.7618421,28.9915685 C84.6967612,28.9235177 84.6196283,28.8677438 84.5333359,28.8269804 C84.4470434,28.7856896 84.3515915,28.7643487 84.2551753,28.7646365 C84.1597233,28.764013 84.0652355,28.7812296 83.9770147,28.815279 C83.8912044,28.8479856 83.8140715,28.897573 83.7499547,28.9607802 C83.6834276,29.0272004 83.6318449,29.1059936 83.5980993,29.192268 C83.5595328,29.2910113 83.5407317,29.3957491 83.54266,29.5011104 C83.5421779,29.6926982 83.6159363,29.8776199 83.7499547,30.019908 C83.8135894,30.0870956 83.8907223,30.1413348 83.9770147,30.1793646 C84.0637893,30.2182097 84.1587592,30.2380639 84.2551753,30.2375928 C84.3515915,30.23792 84.4470434,30.2165792 84.5333359,30.1752403 C84.6196283,30.134525 84.6972433,30.0787031 84.7618421,30.0106523 C84.8274051,29.9415464 84.8794698,29.8618901 84.916108,29.7752799 C84.9532282,29.6883341 84.9729935,29.5952018 84.9729935,29.5011104 Z" id="Shape" fill="#90A4AE"></path>
                <path d="M87.0965591,27.4333533 C87.0970411,27.4952177 87.0835429,27.5564586 87.0575105,27.6130478 C87.0329244,27.6675268 86.9977325,27.7169703 86.9538632,27.7586449 C86.9090297,27.8003674 86.8564829,27.8337933 86.7991153,27.8572922 C86.6785951,27.9062082 86.5426483,27.9062082 86.4221281,27.8572922 C86.3073929,27.8106781 86.2157976,27.7231568 86.1666254,27.6130478 C86.1155248,27.4986706 86.1155248,27.3693309 86.1666254,27.2549537 C86.2148334,27.1441733 86.3069108,27.0560765 86.4221281,27.0094624 C86.5426483,26.9606902 86.6785951,26.9606902 86.7991153,27.0094624 C86.8564829,27.0329613 86.9090297,27.0663872 86.9538632,27.1081097 C86.9977325,27.1501199 87.0334065,27.1999951 87.0575105,27.2549537 C87.0835429,27.3112071 87.0965591,27.3719685 87.0965591,27.4333533 Z M86.9726643,30.8804464 L86.2471328,30.8804464 L86.2471328,28.1698272 L86.9726643,28.1698272 L86.9726643,30.8804464 Z" id="Shape" fill="#90A4AE"></path>
                <path d="M88.2415008,30.8803984 L87.5212722,30.8803984 L87.5212722,28.1698272 L87.6957854,28.1698272 L87.9329691,28.4330146 C88.1667783,28.229054 88.4719353,28.1162594 88.7876982,28.1166741 C88.9554623,28.1158278 89.1217802,28.1481028 89.276046,28.2115497 C89.4259731,28.2728866 89.5619198,28.361415 89.6771371,28.4722913 C89.7918724,28.5836952 89.8839498,28.715145 89.9475844,28.8594952 C90.0136295,29.008737 90.0473751,29.1693926 90.0464311,29.3315348 L90.0464311,30.8803984 L89.3261824,30.8803984 L89.3261824,29.3315348 C89.3261824,29.262429 89.312202,29.1939465 89.2842414,29.1303077 C89.2567628,29.0683954 89.2172321,29.012094 89.1675778,28.9644728 C89.1184056,28.9173312 89.0605559,28.8795412 88.9964392,28.8531649 C88.9308762,28.8261172 88.8600103,28.8123056 88.7881803,28.8126413 C88.5688336,28.8104353 88.3697342,28.9359864 88.2844059,29.1303077 C88.2564453,29.1938986 88.2419828,29.262429 88.2424649,29.3315348 L88.2415008,30.8803984 Z" id="Path" fill="#90A4AE"></path>
                <path d="M93.2946708,30.5388015 C93.2961171,30.7230998 93.2570685,30.9056717 93.1813819,31.0749115 C93.1081056,31.2385404 93.003012,31.3871588 92.871404,31.5128059 C92.7388318,31.638357 92.5831197,31.7388267 92.4119811,31.8088917 C92.2350574,31.8818821 92.0441535,31.9189527 91.8513212,31.917782 L91.4902427,31.9127663 L91.4902427,31.2218035 L91.8460183,31.226791 C91.9438807,31.2290929 92.041261,31.2149456 92.1338205,31.1850206 C92.2779626,31.1371596 92.3970365,31.0366899 92.4650099,30.9053839 C92.4977914,30.8422727 92.5238238,30.7761401 92.5426249,30.7079934 C92.5127359,30.7534565 92.471277,30.7905272 92.4216227,30.8156087 C92.3657013,30.8445267 92.3068875,30.8674021 92.2461453,30.8839472 C92.1805823,30.9018831 92.1135731,30.9141121 92.0455997,30.9205863 C91.9810009,30.9270605 91.9164021,30.9304174 91.8518033,30.9306572 C91.6599351,30.9319041 91.4695132,30.8984302 91.2911434,30.831914 C90.9387424,30.70291 90.6596176,30.4373727 90.5217426,30.1005715 C90.4436455,29.9096551 90.405079,29.7058863 90.4084536,29.5007747 C90.4065253,29.3056381 90.4450917,29.1120841 90.5217426,28.9313346 C90.5935726,28.7616632 90.6986662,28.6069063 90.8317205,28.4756483 C90.9628464,28.3474595 91.1190406,28.2451675 91.2911434,28.174575 C91.468067,28.1015846 91.658971,28.0645619 91.8518033,28.0656868 C91.9433986,28.0657608 92.0345118,28.0767909 92.1232147,28.0986592 C92.2133638,28.1206235 92.3006204,28.151172 92.3845024,28.1897773 C92.4688666,28.2287183 92.5498561,28.274613 92.6260249,28.326934 C92.7017116,28.3785835 92.7735416,28.4352206 92.8410329,28.4964616 L93.1206397,28.1750545 L93.2946708,28.1750545 L93.2946708,30.5388015 Z M92.5691394,29.5011104 C92.5691394,29.407019 92.5498561,29.3138388 92.5122538,29.226845 C92.4760978,29.1402828 92.423551,29.0606264 92.357988,28.9915685 C92.2933892,28.9235177 92.2157742,28.8676958 92.1299638,28.8269804 C92.0431893,28.7857375 91.9482194,28.7643967 91.8513212,28.764624 C91.7563513,28.764109 91.6618635,28.7803663 91.5731606,28.8126413 C91.4878323,28.8437653 91.4102173,28.8921059 91.3461006,28.9544019 C91.2795734,29.0207263 91.2279908,29.0996153 91.1942452,29.1860816 C91.1561608,29.2869349 91.1373596,29.3937349 91.139288,29.5011104 C91.1373596,29.6052248 91.1561608,29.7086678 91.1942452,29.8060682 C91.2284729,29.8921029 91.2800555,29.9707522 91.3461006,30.0376041 C91.4102173,30.1016745 91.4873502,30.1521251 91.5731606,30.1857429 C91.6613814,30.2205596 91.7558692,30.2382077 91.8513212,30.2375843 C91.9482194,30.23792 92.0436714,30.2165792 92.1299638,30.1752403 C92.2162563,30.1346209 92.2933892,30.078799 92.357988,30.0107003 C92.423551,29.9416424 92.4760978,29.861938 92.5122538,29.7752799 C92.5498561,29.6883341 92.5686573,29.5951538 92.5686573,29.5011104 L92.5691394,29.5011104 Z" id="Shape" fill="#90A4AE"></path>
                <polygon id="Path" fill="#90A4AE" points="98.0248468 30.8803984 95.4317347 30.8803984 95.4317347 27.2510692 98.0248468 27.2510692 98.0248468 27.9775681 96.1886014 27.9775681 96.1886014 28.7038272 97.4314055 28.7038272 97.4314055 29.4301822 96.1886014 29.4301822 96.1886014 30.1540434 98.0248468 30.1540434"></polygon>
                <polygon id="Path" fill="#90A4AE" points="99.2044984 30.8804943 98.1280121 28.1698752 98.9485135 28.1698752 99.5660589 29.8604993 100.180712 28.1698752 101.004106 28.1698752 99.9276194 30.8804943"></polygon>
                <path d="M102.320186,30.2173945 C102.347665,30.225691 102.376107,30.231206 102.40455,30.2338916 C102.432993,30.2363854 102.460954,30.2376323 102.489396,30.2376323 C102.557852,30.237872 102.626307,30.2284725 102.692352,30.2098173 C102.756951,30.1914498 102.818657,30.1645939 102.875543,30.130017 C102.932911,30.0953921 102.984493,30.0527585 103.028845,30.0034588 C103.073678,29.9537754 103.110798,29.8979057 103.138277,29.8377677 L103.666155,30.3464464 C103.599628,30.436989 103.522495,30.5194269 103.435239,30.5919377 C103.348946,30.663921 103.253976,30.7259772 103.152739,30.7767156 C103.051502,30.8273581 102.944481,30.8660113 102.833602,30.8918121 C102.720795,30.9180925 102.605096,30.9312807 102.489396,30.9310888 C102.106624,30.9335826 101.739279,30.788561 101.469314,30.5285867 C101.336259,30.3990072 101.230684,30.2454972 101.159336,30.0768808 C101.082203,29.8941171 101.043636,29.698405 101.046047,29.5011583 C101.043154,29.300219 101.081721,29.1007183 101.159336,28.9140222 C101.298657,28.5752547 101.576818,28.3062166 101.928736,28.1698272 C102.106624,28.1001459 102.297046,28.0648496 102.489396,28.0660965 C102.605578,28.0659526 102.721759,28.0795724 102.835048,28.10662 C103.058734,28.1599001 103.265546,28.2635829 103.439095,28.4090841 C103.526834,28.4820266 103.604449,28.5648481 103.671458,28.6558223 L102.320186,30.2173945 Z M102.689942,28.7924994 C102.658125,28.7810377 102.624861,28.7734126 102.590633,28.769672 C102.556888,28.766267 102.523142,28.7645885 102.489396,28.7646844 C102.393944,28.764061 102.298974,28.7817091 102.210754,28.8165258 C102.125425,28.8501436 102.04781,28.9005943 101.984176,28.9645208 C101.918131,29.0314206 101.866548,29.1101179 101.83232,29.1962005 C101.794236,29.2936009 101.775435,29.3970439 101.776881,29.5011583 C101.776881,29.5260959 101.778327,29.5551098 101.780738,29.587193 C101.78363,29.6192282 101.787969,29.651743 101.793754,29.6846894 C101.800021,29.7175878 101.80677,29.7491434 101.816412,29.7795481 C101.824125,29.8077947 101.835695,29.8349862 101.850639,29.8604513 L102.689942,28.7924994 Z" id="Shape" fill="#90A4AE"></path>
                <path d="M104.752765,30.8804943 L104.032537,30.8804943 L104.032537,28.1698752 L104.20705,28.1698752 L104.444234,28.4912822 C104.678525,28.2878491 104.9832,28.1751025 105.298963,28.1749586 L105.934827,28.1749586 L105.934827,28.8633318 L105.298963,28.8633318 C105.153856,28.8626124 105.014535,28.9172353 104.91137,29.0151633 C104.861716,29.0630722 104.822185,29.1198052 104.795188,29.1822451 C104.766746,29.2471307 104.752765,29.31686 104.752765,29.3872128 L104.752765,30.8804943 Z" id="Path" fill="#90A4AE"></path>
                <path d="M106.929842,31.91315 L106.929842,31.2170558 L107.330933,31.2221871 C107.399871,31.2222831 107.468808,31.2111571 107.533889,31.1892408 C107.598488,31.1675163 107.65923,31.1368239 107.714669,31.0981227 C107.770109,31.0591817 107.819281,31.0126635 107.861222,30.9601028 C107.903163,30.9070145 107.937873,30.8486989 107.963905,30.7867866 C107.884844,30.8187738 107.804336,30.850857 107.722383,30.8829401 C107.644285,30.9143039 107.560403,30.9306572 107.475557,30.9310409 C107.307793,30.9321439 107.140993,30.9020749 106.984799,30.8425125 C106.675785,30.7256895 106.43137,30.490365 106.31085,30.1933201 C106.242877,30.0260944 106.209131,29.8477428 106.212024,29.6681922 L106.212024,28.1698272 L106.92936,28.1698272 L106.92936,29.6681922 C106.927431,29.754035 106.942376,29.8393983 106.973229,29.9200618 C106.998779,29.9869616 107.038792,30.0481066 107.089893,30.0997083 C107.138583,30.1473774 107.197397,30.1841124 107.26296,30.2072755 C107.330933,30.231206 107.402763,30.2432432 107.475075,30.2427157 C107.548351,30.2427636 107.620181,30.225643 107.68478,30.1928405 C107.750825,30.1601819 107.809157,30.1159656 107.857847,30.0623978 C107.907019,30.0081586 107.94655,29.9461503 107.974029,29.8790107 C108.001989,29.8115833 108.016452,29.7396479 108.01597,29.6670892 L108.01597,28.1686763 L108.741501,28.1686763 L108.741501,30.5375546 C108.741019,30.7219489 108.701488,30.9043769 108.62532,31.0736647 C108.552526,31.2372936 108.44695,31.3859119 108.315342,31.511559 C108.183734,31.6369183 108.028504,31.737388 107.857847,31.8076448 C107.681406,31.8806352 107.490984,31.9177059 107.299116,31.9165351 L106.929842,31.91315 Z" id="Path" fill="#90A4AE"></path>
                <path d="M112.02206,29.5011583 C112.023507,29.695048 111.98494,29.8873552 111.908289,30.0668098 C111.836941,30.2354742 111.731848,30.3893199 111.599758,30.5199065 C111.469114,30.6476636 111.313402,30.7499077 111.141781,30.8209798 C110.783113,30.9677759 110.377201,30.9677759 110.018051,30.8209798 C109.66806,30.6766296 109.391828,30.4055773 109.249132,30.0668098 C109.172481,29.8873552 109.133915,29.695048 109.135361,29.5011583 C109.133433,29.3051586 109.171999,29.1107413 109.249132,28.9291286 C109.32048,28.7597928 109.425574,28.6054676 109.55911,28.4749289 C109.690236,28.3473157 109.845948,28.2454552 110.018051,28.1749586 C110.194975,28.1019682 110.385879,28.0649455 110.578711,28.0660965 C110.771543,28.0647537 110.962929,28.0995704 111.141781,28.1685803 C111.313402,28.2348568 111.469114,28.3338877 111.599758,28.4597266 C111.732812,28.5896898 111.837906,28.7436314 111.908289,28.9126794 C111.986387,29.0997592 112.024953,29.2997394 112.02206,29.5011583 Z M111.296529,29.5011583 C111.297975,29.3977633 111.278692,29.2950876 111.239643,29.1986943 C111.204452,29.112228 111.151905,29.033195 111.085378,28.9659115 C111.020779,28.9012657 110.943164,28.8502875 110.856871,28.8162861 C110.678502,28.7471322 110.47892,28.7471322 110.300068,28.8162861 C110.214258,28.8501436 110.137125,28.9011218 110.07349,28.9659115 C110.007445,29.0333389 109.955863,29.1123719 109.921635,29.1986943 C109.88355,29.2952794 109.864749,29.3979072 109.866196,29.5011583 C109.865231,29.6006209 109.884032,29.6994121 109.921635,29.7921607 C109.956345,29.8782913 110.007927,29.9573243 110.07349,30.0250394 C110.137607,30.0908362 110.21474,30.1437327 110.300068,30.1806595 C110.387807,30.2187372 110.482777,30.2381598 110.578711,30.2376456 C110.674163,30.2382077 110.769133,30.220128 110.856871,30.184496 C110.942682,30.1498712 111.020297,30.0989889 111.085378,30.0348705 C111.152387,29.9678748 111.204934,29.8887459 111.239643,29.8021358 C111.27821,29.706174 111.297493,29.6040259 111.296047,29.5011583 L111.296529,29.5011583 Z" id="Shape" fill="#90A4AE"></path>
                <path d="M113.140488,30.8803984 L112.420259,30.8803984 L112.420259,28.1698272 L112.59429,28.1698272 L112.831956,28.4330146 C113.065765,28.229006 113.37044,28.1162114 113.686685,28.1166741 C113.854449,28.1158278 114.020767,28.1481028 114.175033,28.2115497 C114.32496,28.2728386 114.460907,28.361367 114.575642,28.4722913 C114.690859,28.5836472 114.782455,28.715097 114.846089,28.8594952 C114.912616,29.0086891 114.946362,29.1693447 114.945418,29.3315348 L114.945418,30.8803984 L114.224687,30.8803984 L114.224687,29.3315348 C114.225169,29.262429 114.210707,29.1939465 114.182746,29.1303077 C114.15575,29.0683954 114.116219,29.012094 114.066565,28.9644728 C114.017393,28.9172833 113.959061,28.8795412 113.894944,28.8531649 C113.829381,28.8261172 113.758515,28.8123056 113.687167,28.8126413 C113.467338,28.8103394 113.268239,28.9359385 113.182911,29.1303077 C113.15495,29.1939465 113.140488,29.262429 113.14097,29.3315348 L113.140488,30.8803984 Z" id="Path" fill="#90A4AE"></path>
                <path d="M116.581098,30.2173945 C116.608576,30.2257389 116.637019,30.231254 116.665462,30.2338916 C116.693423,30.2363854 116.721865,30.2376323 116.749826,30.2376323 C116.818764,30.2378241 116.887219,30.2284725 116.953264,30.2098173 C117.017863,30.1914498 117.079569,30.1645939 117.136455,30.130017 C117.193822,30.0953921 117.245405,30.0527585 117.289274,30.0034588 C117.33459,29.9537754 117.371228,29.8979057 117.398707,29.8377677 L117.926585,30.3464464 C117.86054,30.436989 117.782925,30.5194269 117.695668,30.5919377 C117.609376,30.663921 117.514888,30.7259772 117.413651,30.7767156 C117.312414,30.8273581 117.20491,30.8660113 117.094032,30.8918121 C116.981225,30.9180925 116.866008,30.9312807 116.749826,30.9310888 C116.367536,30.9335346 116.000191,30.788513 115.730225,30.5285867 C115.596689,30.3990551 115.491595,30.2455451 115.420247,30.0768808 C115.342632,29.8941171 115.304066,29.698405 115.306958,29.5011583 C115.304066,29.300219 115.342632,29.1007183 115.420247,28.9140222 C115.559087,28.5753027 115.837247,28.3062166 116.189166,28.1698272 C116.367054,28.1000979 116.557476,28.0648496 116.749826,28.0660965 C116.86649,28.0659526 116.982671,28.0795724 117.095478,28.10662 C117.319163,28.1599001 117.526458,28.2635829 117.699525,28.4090841 C117.787264,28.4820266 117.865361,28.5648481 117.931888,28.6558223 L116.581098,30.2173945 Z M116.950372,28.7924994 C116.918554,28.7810377 116.885291,28.7734126 116.851545,28.769672 C116.817799,28.766267 116.783572,28.7645885 116.749826,28.7646844 C116.654374,28.764061 116.559886,28.7817091 116.471665,28.8165258 C116.385855,28.8501436 116.308722,28.9005463 116.244605,28.9645208 C116.17856,29.0314206 116.126978,29.1101179 116.09275,29.1962005 C116.054666,29.2936009 116.035865,29.3970439 116.037311,29.5011583 C116.037311,29.5260959 116.038757,29.5551098 116.041649,29.587193 C116.04406,29.6198516 116.048399,29.6524144 116.054666,29.6846894 C116.060451,29.717396 116.068164,29.7490475 116.076841,29.7795481 C116.084555,29.8077947 116.096125,29.8349862 116.111069,29.8604513 L116.950372,28.7924994 Z" id="Shape" fill="#90A4AE"></path>
            </g>
        </g>
    </g>
</svg>