<?xml version="1.0" encoding="UTF-8"?>
<svg width="170px" height="86px" viewBox="0 0 170 86" version="1.1" xmlns="http://www.w3.org/2000/svg" xmlns:xlink="http://www.w3.org/1999/xlink">
    <title>Group 80</title>
    <defs>
        <polygon id="path-1" points="-2.00192977e-16 0 50 0 50 50 -2.00192977e-16 50"></polygon>
    </defs>
    <g id="Page-Carreras-y-Payments" stroke="none" stroke-width="1" fill="none" fill-rule="evenodd">
        <g id="Group-80" transform="translate(0.000000, 0.562814)">
            <g id="Group-13-Copy-4">
                <rect id="Rectangle-Copy-7" x="0" y="0" width="170" height="85" rx="10"></rect>
            </g>
            <g id="Group-10" transform="translate(60.000000, 17.437186)">
                <g id="Group-3">
                    <mask id="mask-2" fill="white">
                        <use xlink:href="#path-1"></use>
                    </mask>
                    <g id="Clip-2"></g>
                    <path d="M48.8378482,17.486902 C52.9860593,30.6520723 45.6777787,44.6863854 32.5127759,48.8382556 C19.347773,52.9856178 5.31273676,45.6772443 1.16182092,32.5120741 C-2.98548856,19.3469038 4.32189043,5.31259069 17.4859917,1.16162206 C30.650093,-2.98574016 44.6851292,4.32173176 48.8378482,17.486902" id="Fill-1" fill="#412050" mask="url(#mask-2)"></path>
                </g>
                <path d="M44.9932022,24.7445154 C45.1816343,25.0889268 45.0743452,25.3521941 44.7083,25.4685006 L42.6409564,26.1158498 C42.3290066,26.2186322 42.0558251,26.1338818 41.9268979,25.8480744 L38.6586377,18.9246843 C38.570282,18.7596914 38.4269293,18.8029682 38.4494691,18.9868947 L39.5656363,26.58919 C39.6107157,26.9011438 39.4484297,27.1238391 39.1364799,27.2230151 L37.6416453,27.6909458 C37.3333019,27.7901218 37.0745458,27.7008634 36.9320948,27.4240721 L33.4853199,20.5529748 C33.3969642,20.3879819 33.2581195,20.4321603 33.2752497,20.6151852 L34.5708331,28.164286 C34.6276332,28.4726334 34.4491186,28.7007383 34.1380704,28.7981112 L32.0743331,29.4508699 C31.7091896,29.5617668 31.4675637,29.4102979 31.4242874,29.0208065 L30.0529705,17.2269706 C30.012399,16.9150168 30.1719803,16.6923215 30.4857333,16.5931454 L32.9317443,15.8213754 C33.2454973,15.723101 33.4844183,15.8213754 33.6458028,16.0936588 L35.9448548,20.0616025 C36.0359153,20.2220874 36.1738584,20.1833186 36.154925,19.9948841 L35.7627338,15.4291792 C35.7392925,15.1118159 35.8817435,14.8927269 36.1909886,14.7953541 L38.6424091,14.0226825 C38.9525557,13.924408 39.208607,14.0172729 39.3573692,14.2940642 L44.9932022,24.7445154 Z" id="Fill-4" fill="#FFFFFF"></path>
                <path d="M5.00448348,25.2544607 C4.81695296,24.9100493 4.92424205,24.6467819 5.29118879,24.5313771 L7.35763082,23.8831263 C7.66958062,23.7848519 7.9418605,23.8705039 8.07168932,24.1518033 L11.3390479,31.0797014 C11.4292068,31.2410879 11.5671499,31.1960078 11.5491182,31.0120813 L10.432951,23.4106877 C10.393281,23.0978323 10.5492559,22.875137 10.8621073,22.7759609 L12.352434,22.3080303 C12.6652854,22.2088542 12.9240414,22.2990143 13.071902,22.5803136 L16.5132673,29.4505093 C16.6025246,29.6109942 16.7404677,29.5668158 16.722436,29.3837909 L15.4286557,21.83469 C15.370954,21.5272443 15.548567,21.2991393 15.8614184,21.2008649 L17.9278605,20.5544173 C18.2902993,20.4381109 18.5310235,20.5895798 18.576103,20.9781696 L19.9465183,32.7765135 C19.9861882,33.0839592 19.8257054,33.3066546 19.512854,33.4058306 L17.066843,34.1785022 C16.7548932,34.2758751 16.5177752,34.1785022 16.3527845,33.9062189 L14.0537325,29.9373736 C13.9644751,29.7768887 13.826532,29.8201655 13.8436622,30.004092 L14.236755,34.5743048 C14.2592948,34.8916682 14.1159421,35.1071507 13.8030907,35.203622 L11.3570797,35.975392 C11.0451299,36.0754696 10.7899802,35.984408 10.6430212,35.7049118 L5.00448348,25.2544607 Z" id="Fill-6" fill="#FFFFFF"></path>
                <path d="M23.741036,26.7725755 C23.9015188,28.1871867 24.0890493,29.0256752 25.3738137,28.6190533 C26.6558733,28.2187427 26.6468574,27.3261582 26.485473,25.9052359 L26.182539,23.2536289 C26.0220562,21.8345097 25.8345257,20.9960212 24.5524661,21.4026431 C23.2677017,21.8083633 23.280324,22.7018494 23.4417084,24.1209685 L23.741036,26.7725755 Z M20.3438486,24.0840029 C20.2050039,22.8659407 20.075175,19.5309205 24.1909289,18.2317142 C28.3030764,16.9379175 28.9179601,20.1214688 29.0559032,21.3386294 L29.5797265,25.9412999 C29.7176696,27.1557557 29.8474984,30.4952839 25.7326461,31.7899822 C21.6204986,33.0837789 21.0083197,29.9029324 20.8703765,28.6884766 L20.3438486,24.0840029 Z" id="Fill-8" fill="#FFFFFF"></path>
            </g>
        </g>
    </g>
</svg>